<?xml version="1.0" encoding="UTF-8"?>
<svg width="15px" height="9px" viewBox="0 0 15 9" version="1.1" xmlns="http://www.w3.org/2000/svg" xmlns:xlink="http://www.w3.org/1999/xlink">
    <!-- Generator: Sketch 57.1 (83088) - https://sketch.com -->
    <title>arrow_left--black</title>
    <desc>Created with Sketch.</desc>
    <g id="Page-1" stroke="none" stroke-width="1" fill="none" fill-rule="evenodd">
        <g id="arrow_left--black" transform="translate(7.500000, 4.000000) scale(-1, 1) translate(-7.500000, -4.000000) translate(0.000000, -1.000000)" fill="#000000" fill-rule="nonzero">
            <path d="M0.625,4.858 L12.85,4.858 L10.2,2.11 C9.887,1.818 9.875,1.525 10.175,1.22 C10.475,0.915 10.762,0.928 11.05,1.246 L14.8,5.06 C14.8737074,5.10689655 14.927212,5.1796627 14.95,5.264 C14.988,5.34 15,5.416 15,5.493 C14.9989354,5.57466319 14.986482,5.65577849 14.963,5.734 C14.9334077,5.81487581 14.8813747,5.88564065 14.813,5.938 L11.063,9.752 C10.775,10.07 10.488,10.083 10.187,9.778 C9.887,9.473 9.9,9.18 10.213,8.888 L12.85,6.128 L0.625,6.128 C0.456811023,6.13361007 0.293840892,6.06914633 0.175,5.95 C0.0576238005,5.82777846 -0.00547253766,5.66336743 0,5.494 L0,5.214 L0.175,5.036 C0.293840892,4.91685367 0.456811023,4.85238993 0.625,4.858 Z" id="Path"></path>
        </g>
    </g>
</svg>