<?xml version="1.0" encoding="UTF-8"?>
<svg width="8px" height="11px" viewBox="0 0 8 11" version="1.1" xmlns="http://www.w3.org/2000/svg" xmlns:xlink="http://www.w3.org/1999/xlink">
    <!-- Generator: Sketch 53.2 (72643) - https://sketchapp.com -->
    <title>arrow</title>
    <desc>Created with Sketch.</desc>
    <g id="Symbols" stroke="none" stroke-width="1" fill="none" fill-rule="evenodd">
        <g id="btnprimmary" transform="translate(-74.000000, -13.000000)" fill="#FFFFFF">
            <g id="Group-3" transform="translate(11.445570, 8.000000)">
                <g id="arrow" transform="translate(66.628169, 10.178571) rotate(90.000000) translate(-66.628169, -10.178571) translate(61.354930, 6.514286)">
                    <path d="M0.4640625,3.12486282 L9.541125,3.12486282 L7.5735,0.900117641 C7.34146875,0.663223479 7.3321875,0.426329317 7.5549375,0.179135408 C7.7776875,-0.0680585001 7.99115625,-0.0577587539 8.204625,0.199734901 L10.989,3.28965876 C11.0446875,3.33085774 11.0818125,3.38235647 11.100375,3.4544547 C11.1282187,3.51625317 11.1375,3.57805165 11.1375,3.63985013 C11.1375,3.7016486 11.1282187,3.76344708 11.1096562,3.8355453 C11.0910937,3.89734378 11.0539687,3.94884251 10.9982812,4.00034124 L8.21390625,7.0902651 C8.0004375,7.34775875 7.78696875,7.3580585 7.56421875,7.11086459 C7.34146875,6.86367068 7.35075,6.62677652 7.58278125,6.38988236 L9.541125,4.15483744 L0.4640625,4.15483744 C0.32484375,4.15483744 0.21346875,4.10333871 0.1299375,4.01064099 C0.04640625,3.91794327 0,3.79434632 0,3.63985013 C0,3.48535393 0,3.41325571 0,3.41325571 C0,3.41325571 0.04640625,3.36175698 0.1299375,3.26905926 C0.21346875,3.17636155 0.32484375,3.12486282 0.4640625,3.12486282 Z"></path>
                </g>
            </g>
        </g>
    </g>
</svg>