<?xml version="1.0" encoding="UTF-8"?>
<svg width="12px" height="9px" viewBox="0 0 12 9" version="1.1" xmlns="http://www.w3.org/2000/svg" xmlns:xlink="http://www.w3.org/1999/xlink">
    <title>arrow_down--teal</title>
    <g id="Page-1" stroke="none" stroke-width="1" fill="none" fill-rule="evenodd">
        <g id="arrow_down--teal" transform="translate(6.194375, 4.474535) rotate(-90.000000) translate(-6.194375, -4.474535) translate(2.651078, -1.094000)" fill="#008287">
            <path d="M4.04892216,0.464 L4.04892216,9.54 L6.21192216,7.574 C6.44192216,7.342 6.67192216,7.333 6.91192216,7.555 C7.15292216,7.778 7.14292216,7.991 6.89192216,8.205 L3.88892216,10.988 C3.85108887,11.0436524 3.79416265,11.0835008 3.72892216,11.1 C3.67239922,11.1255008 3.61092084,11.138138 3.54892216,11.1370706 C3.48429671,11.136163 3.42006861,11.1267473 3.35792216,11.109 C3.29533312,11.0875418 3.23993881,11.049112 3.19792216,10.998 L0.193922158,8.213 C-0.056077842,8 -0.066077842,7.786 0.173922158,7.563 C0.413922158,7.341 0.643922158,7.35 0.873922158,7.583 L3.04892216,9.539 L3.04892216,0.464 C3.04892216,0.325 3.09892216,0.214 3.18892216,0.13 C3.27892216,0.047 3.39892216,2.77555756e-16 3.54892216,2.77555756e-16 L3.76892216,2.77555756e-16 L3.90892216,0.13 C3.99892216,0.214 4.04892216,0.324 4.04892216,0.464 Z" id="Path"></path>
        </g>
    </g>
</svg>