<?xml version="1.0" encoding="UTF-8"?>
<svg width="8px" height="11px" viewBox="0 0 8 11" version="1.1" xmlns="http://www.w3.org/2000/svg" xmlns:xlink="http://www.w3.org/1999/xlink">
    <!-- Generator: Sketch 53.2 (72643) - https://sketchapp.com -->
    <title>arrow</title>
    <desc>Created with Sketch.</desc>
    <g id="Symbols" stroke="none" stroke-width="1" fill="none" fill-rule="evenodd">
        <g id="btn_secondaryteal--outline" transform="translate(-74.000000, -13.000000)" fill="#008287">
            <g id="Group-3" transform="translate(11.445570, 8.000000)">
                <g id="arrow" transform="translate(66.628169, 10.178571) rotate(90.000000) translate(-66.628169, -10.178571) translate(61.354930, 6.514286)">
                    <path d="M0.4640625,3.03806107 L9.541125,3.03806107 L7.5735,0.875114374 C7.34146875,0.644800605 7.3321875,0.414486836 7.5549375,0.174159425 C7.7776875,-0.0661679862 7.99115625,-0.0561543441 8.204625,0.194186709 L10.989,3.19827935 C11.0446875,3.23833392 11.0818125,3.28840213 11.100375,3.35849762 C11.1282187,3.41857947 11.1375,3.47866133 11.1375,3.53874318 C11.1375,3.59882503 11.1282187,3.65890688 11.1096562,3.72900238 C11.0910937,3.78908423 11.0539687,3.83915244 10.9982812,3.88922065 L8.21390625,6.89331329 C8.0004375,7.14365434 7.78696875,7.15366799 7.56421875,6.91334058 C7.34146875,6.67301316 7.35075,6.4426994 7.58278125,6.21238563 L9.541125,4.03942529 L0.4640625,4.03942529 C0.32484375,4.03942529 0.21346875,3.98935707 0.1299375,3.8992343 C0.04640625,3.80911152 0,3.68894781 0,3.53874318 C0,3.38853855 0,3.31844305 0,3.31844305 C0,3.31844305 0.04640625,3.26837484 0.1299375,3.17825206 C0.21346875,3.08812928 0.32484375,3.03806107 0.4640625,3.03806107 Z"></path>
                </g>
            </g>
        </g>
    </g>
</svg>