<svg xmlns="http://www.w3.org/2000/svg" width="221" height="61" viewBox="0 0 221 61">
    <g fill="#FFF" fill-rule="evenodd">
        <path fill-rule="nonzero" d="M68.686 16.91C67.93 9.987 63.053 3.28 56.138 1.496c-3.616-.93-7.5-.51-10.921.945-3.166 1.35-5.926 3.75-7.831 6.608a14.202 14.202 0 0 0-2.018 4.635c-.24 1.013-.397 2.086-.315 3.136a7.852 7.852 0 0 0 1.23 3.645 9.961 9.961 0 0 0-1.065 2.85c-.21 1.028-.18 2.04.113 2.993l-.338.36c-.202.225-.397.45-.592.683-.27-.293-.563-.563-.848-.818.315-1.747.045-3.6-.742-5.22-.12-.248-.248-.488-.375-.72a7.935 7.935 0 0 0 1.2-2.888c.33-1.62.03-3.353-.443-4.92-.487-1.613-1.297-3.12-2.295-4.471-2.085-2.813-4.95-5.018-8.228-6.24C19.22.79 15.296.625 11.786 1.75 8.583 2.778 5.913 4.93 3.88 7.564 1.578 10.549.265 14.172.033 17.93c-.24 3.885.87 7.59 2.55 11.056 1.56 3.21 3.563 6.203 5.73 9.038 2.123 2.775 4.433 5.408 6.871 7.913a87.742 87.742 0 0 0 3.278 3.196c.922.855 1.845 1.755 2.85 2.505a562.12 562.12 0 0 0 2.55 1.905 528.402 528.402 0 0 0 5.266 3.886c1.447 1.057 2.888 2.13 4.388 3.112.262.173.66.518.997.45.36-.075.743-.427 1.035-.63 1.56-1.08 3.076-2.235 4.59-3.383a897.483 897.483 0 0 0 5.064-3.862c.915-.705 1.837-1.395 2.715-2.146 4.86-4.147 9.346-8.828 13.209-13.92 2.115-2.784 4.043-5.746 5.513-8.927.81-1.762 1.477-3.6 1.837-5.513a19.63 19.63 0 0 0 .21-5.7zm-32.62 5.708a8.717 8.717 0 0 1 .637-1.56c.158.202.33.397.51.592-.6 1.283-.795 2.445-.6 3.548l-.067.045c-.24.165-.465.345-.683.54-.225-1.028-.12-2.093.203-3.165zm-5.003 6.09l.015.015.037.038.038.03c.195.157.367.315.525.48a10.252 10.252 0 0 1-1.635 1.785c-1.148.998-2.648 1.605-4.118 1.928-1.388.307-2.895.33-4.155-.405-1.403-.818-2.333-2.566-1.883-4.17.337-1.2 1.433-1.936 2.505-2.446 2.393-1.132 5.363-1.313 7.883-.517a5.39 5.39 0 0 1-.127.787 9.388 9.388 0 0 0-2.205-.33c-1.643-.052-3.398.255-4.71.833-2.056.907-2.311 2.13-2.281 2.775l.008.067c.135 1.11.907 1.95 2.295 2.498.885.36 2.062.39 3.323.09 1.215-.292 2.317-.862 3.015-1.56.585-.6 1.08-1.238 1.47-1.898zm-.3-8.37c.15-.173.292-.345.412-.518.158.233.315.473.458.72-.15.195-.308.375-.48.54a8.833 8.833 0 0 0-.39-.742zm-1.32 7.56c-.3.495-.675.968-1.133 1.425-.967.968-3.263 1.53-4.388 1.073l-.015-.007c-1.012-.398-1.132-.803-1.162-.99.007-.248.382-.653 1.207-1.02 1.523-.668 3.818-.893 5.49-.48zm.877-10.32a19.526 19.526 0 0 0-3.442-3.278c-2.738-2.01-6.219-2.91-9.579-2.28-2.078.39-4.56 1.522-5.4 3.607-.45 1.133-.315 2.483.105 3.6.382 1.013 1.072 1.883 1.912 2.55 1.696 1.358 3.893 1.996 6.008 2.326.87.135 1.756.217 2.64.24 1.2.03 2.416-.143 3.601-.323 1.29-.195 2.595-.57 3.75-1.207.15.45.263.9.315 1.35.023.195.038.39.045.585-1.59-.473-3.307-.555-4.935-.323-2.31.323-5.34 1.32-6.106 3.788-.48 1.553.248 3.248 1.388 4.32 1.103 1.036 2.565 1.366 4.035 1.276 2.918-.18 5.716-1.673 7.449-4.028.24.322.412.645.547.96a7.445 7.445 0 0 0-.015 2.273c.045.307.105.615.18.922a3.8 3.8 0 0 1-.277.645c-1.703-.877-3.736-1.087-5.543-.397-2.513.96-5.07 3.675-4.133 6.548.247.765.78 1.41 1.417 1.89.548.413 1.223.548 1.898.518 1.448-.068 2.828-.84 3.998-1.643.63-.435 1.222-.93 1.785-1.455-.435 1.365-.51 2.828-.225 4.305.135.69.39 1.35.668 2.003-1.043 2.79-3.008 4.755-4.47 6.12a104.091 104.091 0 0 1-6.226-5.107c-3.736-3.316-6.999-6.706-9.691-10.066C8.71 33.17 6.273 29.09 4.758 25.16c-.555-1.44-.915-2.798-1.065-4.013l-.008-.038c-.51-3.675.353-7.5 2.356-10.486 2.22-3.293 5.01-5.265 8.295-5.858a13.292 13.292 0 0 1 2.333-.202c1.035 0 2.063.12 3.068.345a14.066 14.066 0 0 1 4.92 2.19c3.608 2.708 5.528 5.73 5.866 9.256 0 .045.03.547-.203 1.222zm-4.665-2.243c-2.475-1.598-5.273-2.22-7.696-1.703a7.73 7.73 0 0 0-2.467.863c-1.65.937-1.996 2.152-1.996 3 0 1.05.428 1.98 1.268 2.775 1.103 1.043 2.895 1.815 5.34 2.31 1.793.36 3.556.465 4.238.435l.045-.007.405-.045c1.253-.128 2.663-.27 4.088-1.125.173-.098.33-.195.488-.3.12.217.225.435.322.652a9.18 9.18 0 0 1-2.077.855c-.938.27-1.913.398-2.88.503-.563.06-1.118.135-1.68.142a19.15 19.15 0 0 1-2.371-.142c-2.078-.255-4.238-.81-5.978-2.018-.87-.6-1.575-1.41-1.995-2.378-.458-1.05-.593-2.422-.09-3.472.517-1.095 1.59-1.808 2.655-2.31a9.403 9.403 0 0 1 2.918-.818 11.41 11.41 0 0 1 5.423.682c1.56.6 2.963 1.53 4.2 2.64.81.72 1.553 1.523 2.235 2.37-.097.173-.21.36-.345.54a15.898 15.898 0 0 0-4.05-3.45zm2.715 4.695a9.217 9.217 0 0 1-.397.248l-.015.007c-1.08.653-2.183.765-3.353.885-.128.015-.263.03-.39.038-.465.022-2.01-.053-3.766-.398-2.077-.412-3.615-1.057-4.455-1.845-.472-.443-.698-.923-.698-1.463 0-1.372 2.326-1.995 2.948-2.085l.06-.015c.473-.105.938-.15 1.388-.15 2.228 0 4.163 1.073 4.98 1.605l.03.015c1.478.878 2.73 1.973 3.668 3.158zm3.436 6.96a6.79 6.79 0 0 0 .18-.772c.285.18.562.375.825.585-.015.053-.023.105-.038.158-.06.225-.127.442-.21.66a6.142 6.142 0 0 0-.247-.21 3.891 3.891 0 0 0-.51-.42zm-5.07 8.837l-.053.03c-2.243 1.395-2.43 2.94-2.408 3.532.03.795.457 1.485 1.14 1.846.938.487 2.183.315 3.42-.473.93-.593 2.07-1.508 3.083-2.498.128.18.248.383.353.6-.383.383-.78.75-1.17 1.103-1.043.937-2.273 1.763-3.6 2.235-.623.225-1.321.368-1.981.255-.773-.135-1.388-.742-1.778-1.402-.367-.623-.457-1.373-.345-2.078.12-.803.488-1.463.99-2.093.788-.99 1.988-1.808 3.196-2.19 1.56-.495 3.21-.263 4.635.457-.12.18-.255.368-.412.563-.038-.022-.083-.045-.12-.067-1.456-.788-3.248-.72-4.95.18zm3.78 1.267c-.833.803-1.786 1.59-2.663 2.145-.788.503-1.365.525-1.613.398-.068-.038-.165-.113-.173-.308-.015-.427.376-1.185 1.538-1.92.638-.33 1.793-.765 2.91-.315zm2.167 2.843c.218.705.368 1.53.443 2.46 0 1.088-.15 2.085-.405 3a8.949 8.949 0 0 1-.458-1.92c-.135-1.192-.007-2.415.42-3.54zm.743 8.566c.067.135.142.262.217.397.113.203.225.398.345.593a30.96 30.96 0 0 1-1.965 2.565 40.126 40.126 0 0 1-1.86 2.063c-.248-.173-.495-.36-.75-.548 1.245-1.177 2.858-2.835 4.013-5.07zm.975-11.124c.12.173.24.345.367.51a6.36 6.36 0 0 0-.517 1.065 9.341 9.341 0 0 0-.375-.892c.18-.218.36-.45.525-.683zm-.293-1.875c.173-.315.323-.645.435-.998.09.255.195.503.315.765a8.68 8.68 0 0 1-.367.75 6.91 6.91 0 0 0-.24-.232 5.047 5.047 0 0 1-.143-.285zm.938 12.279c-.053.09-.105.187-.158.277-.157.278-.322.555-.495.825-.157-.27-.315-.54-.465-.817-.052-.098-.097-.188-.15-.285.24-.533.45-1.095.623-1.688.075.24.165.495.262.75.12.308.248.623.383.938zm-1.448-10.599l-.135.158c-.097-.15-.202-.3-.315-.435.195-.248.375-.488.54-.728.098.195.203.383.315.57a7.322 7.322 0 0 0-.405.435zm.465 13.336c.105-.142.21-.285.308-.435a26.296 26.296 0 0 0 2.122 2.79c.458.533.938 1.05 1.426 1.56-1.71 1.26-2.97 2.116-3.548 2.483-.6-.345-1.905-1.177-3.653-2.415a35.896 35.896 0 0 0 3.345-3.983zm.713-1.027c.217-.323.42-.653.615-.99.907 1.8 2.153 3.488 3.728 5.04-.225.173-.45.338-.66.503-1.365-1.41-2.626-2.903-3.683-4.553zm9.99-11.116c.81-.638 1.71-1.493 1.426-2.475-.3-1.05-1.635-1.2-2.618-1.313l-.172-.023-.06-.007c-2.573-.12-4.658.247-6.226 1.11-.067-.112-.135-.218-.195-.33.248-.135.495-.263.743-.383a11.08 11.08 0 0 1 2.872-.922c.9-.158 1.876-.143 2.783-.083 1.103.075 2.318.285 3.24.93.353.24.6.585.675 1.006.098.525-.21 1.08-.48 1.5-1.755 2.707-6.023 4.425-8.925 2.535a8.732 8.732 0 0 1-1.47-1.215c.134-.21.27-.368.382-.495 2.43 2.197 5.423 2.257 8.026.165zm-6.517-1.245c1.245-.6 2.91-.855 4.988-.758.045.008.097.008.142.015.203.023.533.06.803.113-.12.12-.293.27-.533.465l-.007.007c-1.065.848-3.136 1.958-5.393.158zm3.63-3.848c-.885-.03-1.778.142-2.618.39-.907.262-1.807.63-2.648 1.095a7.417 7.417 0 0 1-.532-1.365c.21-1.02.3-2.04.067-3.045.173-.473.428-.938.773-1.38.915 1.034 2.018 1.905 3.173 2.647 1.267.818 2.655 1.448 4.118 1.785-.773-.097-1.545-.097-2.333-.127zm-5.58-6.286a4.445 4.445 0 0 1-.233-.51c.225-.217.465-.412.712-.6.068.203.15.405.24.593a4.86 4.86 0 0 0-.72.517zm.127 16.734a7.547 7.547 0 0 1-.338 1.695c-.472-1.537-.525-2.67-.525-3.075v-.18c-.015-1.132.15-1.965.375-2.588.458 1.32.6 2.746.488 4.148zm-1.05-6.66a8.89 8.89 0 0 0-.323-.42c.12-.105.24-.203.368-.3.082.135.157.27.247.405a6.035 6.035 0 0 0-.292.315zm1.057 9.338c.008-.007.008-.015.015-.03.593-1.44.766-2.985.646-4.538a9.723 9.723 0 0 0-.346-1.92c.248.202.51.39.766.562 1.26.84 2.88 1.013 4.342.773 1.8-.292 3.518-1.305 4.748-2.625.773-.833 1.65-2.078 1.178-3.27-.398-.983-1.478-1.463-2.43-1.74a1.719 1.719 0 0 0-.21-.053l.157.022c1.553.188 3.218-.007 4.546-.885a4.761 4.761 0 0 0 1.822-2.287c.488-1.268.09-2.738-.907-3.646-1.028-.93-2.273-1.44-3.578-1.822 1.62-.12 3.195-.413 4.703-1.066a11.036 11.036 0 0 0 3.525-2.377c.78-.795 1.425-1.733 1.823-2.776.157-.405.247-.832.285-1.267.052-.683-.578-1.41-1.02-1.883-1.148-1.245-2.828-2.04-4.448-2.468-1.875-.495-3.855-.412-5.723.06-1.853.473-3.593 1.35-5.176 2.4a19.987 19.987 0 0 0-2.67 2.108c-.292-.997-.217-1.8-.217-1.807v-.023c.405-4.26 4.215-7.553 5.85-8.776a13.74 13.74 0 0 1 4.92-2.19 13.644 13.644 0 0 1 3.068-.345c.795 0 1.576.068 2.34.21 3.286.593 6.076 2.558 8.289 5.85 2.01 2.993 2.865 6.811 2.355 10.494l.015.053c-.142 1.095-.48 2.377-1.08 4.035-2.873 7.943-10.568 16.022-16.517 21.407-2.49 2.25-4.882 4.23-6.945 5.843-2.205-2.123-3.435-4.26-4.126-6.023zm2.498-24.167c.09-.165.188-.323.3-.488.855.653 1.988 1.215 3.48 1.575 1.726.405 3.406.42 5.806.045l.038-.007.037-.008c2.475-.615 4.058-1.62 4.95-2.355 1.23-1.012 1.936-2.168 1.936-3.173v-.172l-.068-.158c-.525-1.312-1.71-1.942-2.415-2.325l-.038-.015c-2.76-1.328-5.895-1.042-9.578.885-1.012.525-2.775 1.65-4.238 3.06a5.296 5.296 0 0 1-.405-.727c.06-.053.113-.113.173-.165a20.248 20.248 0 0 1 3.953-2.888c3.405-1.913 7.68-2.67 11.243-.69.675.375 1.32.81 1.868 1.365.285.293.525.615.72.968.15.262.195.42.15.712-.143.968-.645 1.86-1.23 2.626-1.89 2.497-5.003 3.682-8.026 3.967-.885.083-1.77.12-2.655.053-.99-.075-1.95-.338-2.896-.623-1.095-.337-2.16-.802-3.105-1.462zm1.98 1.762c-.157.008-.315.008-.472.015-.72.045-1.425.15-2.1.36 0-.457.097-.96.315-1.53.705.473 1.47.848 2.257 1.155zm-.502-3.607a17.6 17.6 0 0 1 3.81-2.753c1.508-.788 2.858-1.26 4.118-1.425 1.395-.188 2.648-.008 3.825.555.623.33 1.2.682 1.493 1.215-.195.817-1.808 2.708-5.46 3.615-2.13.33-3.608.323-5.07-.022-1.081-.263-1.989-.66-2.716-1.185zm2.82 11.146c2.453.712 4.433.622 5.558-.248 1.118-.862 1.373-2.37.585-3.428-.757-1.005-2.393-1.365-4.283-1.785l-.247-.052c-2.498-.555-4.53-.63-6.143-.233a3.44 3.44 0 0 1-.285-.772c1.372-.466 2.94-.428 4.35-.308 1.755.15 3.54.593 5.198 1.178 1.56.547 3.593 1.815 3.248 3.765-.143.795-.6 1.523-1.178 2.078-1.057 1.012-2.573 1.305-3.983 1.267-1.942-.052-3.818-.825-5.445-1.83-1.193-.735-2.333-1.635-3.255-2.7.195-.18.405-.338.645-.48.045.052.082.105.127.157l.03.038.03.03c1.86 1.86 3.323 2.828 5.048 3.323zm-3.3-4.14c1.207-.143 2.708-.016 4.523.39l.247.052c1.215.27 2.88.637 3.233 1.11.225.3.045.697-.24.915-.495.383-1.793.57-3.953-.06-1.297-.375-2.4-1.065-3.81-2.408zm-2.385-6.361a7.406 7.406 0 0 1-.488-.6c.135-.21.27-.42.42-.615.135.217.278.435.45.66-.135.18-.262.367-.382.555zm-1.966 5.94c.075.165.15.323.24.48-.03.03-.06.068-.09.098l-.007.007c-.195.24-.383.48-.54.728-.113-.15-.225-.3-.345-.443.24-.292.48-.585.742-.87zm-1.162 1.418c.135.172.27.352.39.532a6.596 6.596 0 0 0-.465 1.125 7.187 7.187 0 0 0-.443-.862c.15-.278.33-.54.518-.795zm-1.05-1.118c.202.195.405.39.6.6a9.194 9.194 0 0 0-.488.713 8.258 8.258 0 0 0-.397-.473c.105-.277.202-.555.285-.84zm-.653-4.47c.33 1.035.398 2.16.24 3.24-.285-.202-.577-.39-.877-.562.037-.51.03-1.028-.038-1.546a9.094 9.094 0 0 0-.585-2.22c.195-.18.375-.375.54-.577.285.54.54 1.095.72 1.665z"/>
        <path d="M88.417 38.634H86v-3.366h2.417v-2.437c0-3.57 1.562-4.831 5.728-4.831.57 0 1.18.034 1.847.068v3.502h-.667c-1.685 0-2.384.367-2.384 1.534v2.164H96v3.366h-3.06V53h-4.523V38.634z"/>
        <path fill-rule="nonzero" d="M100 28h5v3.996h-5V28zm0 7.268h5V53h-5V35.268z"/>
        <path d="M109 28h5v25h-5z"/>
        <path fill-rule="nonzero" d="M118 28h5v3.996h-5V28zm0 7.268h5V53h-5V35.268zM141 50.738c0 2.444-.173 4.212-1.083 5.485-1.256 1.769-3.526 2.777-6.506 2.777-2.642 0-4.54-.837-5.935-2.743l2.98-1.837c.815 1.068 1.76 1.573 2.912 1.573 1.897 0 2.815-1.103 2.815-3.375v-3.076c-1.42 2.008-2.78 2.905-4.843 2.905-3.864 0-4.34-2.64-4.34-8.724 0-6.117.476-8.723 4.236-8.723 2.27 0 3.76 1 5.354 3.375v-2.973H141v15.336zm-7.33-11.603c-1.827 0-1.862 1.401-1.862 4.614 0 3.178.07 4.614 1.897 4.614.642 0 1.421-.3 2.478-.838v-7.552c-1.013-.564-1.828-.838-2.512-.838z"/>
        <path d="M146 35.43h4.414v3.798C152.07 36.392 153.93 35.1 156 35v6.042c-2.238.101-3.965.566-5.242 1.654V53H146V35.43z"/>
        <path fill-rule="nonzero" d="M162.416 53C159.73 53 158 51.088 158 48.241c0-3.856 2.877-6.182 8.64-6.96v-1.357c0-1.001-.854-1.746-2.292-1.746-1.305 0-2.585.612-4.023 1.746l-2.133-2.69c1.832-1.522 3.923-2.234 6.415-2.234 4.315 0 6.573 2.011 6.573 5.926v7.415c0 .554.293.935.82 1.067v3.369c-.26.033-.527.033-.753.033-1.865 0-3.144-.679-3.955-2.102-1.606 1.547-3.078 2.292-4.876 2.292zm-.067-5.561c0 1.266.82 2.102 1.865 2.102 1.472 0 2.425-1.233 2.425-3.625v-2.011c-2.751.356-4.29 1.812-4.29 3.534z"/>
        <path d="M175.009 35.397h4.632v3.34c1.741-2.511 3.491-3.737 5.567-3.737 2.385 0 3.792 1.488 3.792 4.236V53h-4.667V42.017c0-1.986-.171-2.747-1.544-2.747-.875 0-1.947.566-3.157 1.75v11.972H175V35.397h.009z"/>
        <path fill-rule="nonzero" d="M200.181 53c-4.647 0-7.181-2.477-7.181-7.02v-4.058c0-4.51 2.324-6.922 6.526-6.922 3.932 0 6.36 2.354 6.36 6.181v3.704h-8.44v1.481c0 1.967 1.303 3.128 3.592 3.128 1.231 0 2.664-.387 4.377-1.16l.585 3.448c-2.053.798-3.966 1.218-5.819 1.218zm1.713-10.658V40.86c0-1.901-.752-2.864-2.22-2.864-1.336 0-2.218.963-2.218 2.765v1.58h4.438z"/>
        <path d="M211.151 47.49c1.252 1.357 2.462 2.069 3.614 2.069 1.117 0 1.874-.645 1.874-1.39 0-1.133-1.252-1.555-3.454-2.879-2.53-1.522-3.882-2.655-3.882-5.211 0-2.978 2.37-5.079 5.848-5.079 1.614 0 3.32.554 5.26 1.654l-2.066 3.011c-1.017-.934-2.135-1.422-3.32-1.422-1.084 0-1.647.422-1.647 1.2 0 .843 1.084 1.356 2.89 2.423 1.051.612 2.203 1.2 3.253 2.1.95.845 1.479 2.036 1.479 3.5 0 3.201-2.403 5.534-6.084 5.534-2.1 0-4.042-.81-5.916-2.366l2.151-3.143z"/>
        <path fill-rule="nonzero" d="M92.911 18.75c-1.311 0-2.53-.391-3.381-1.219-1.265-1.15-1.449-2.852-1.449-4.761 0-1.978.253-3.519 1.403-4.715.805-.828 2.093-1.265 3.404-1.265 1.196 0 2.254.368 3.013 1.035a3.891 3.891 0 0 1 1.265 2.875c0 .276-.161.46-.391.46h-1.219c-.253 0-.437-.161-.437-.368 0-.575-.253-1.104-.69-1.449-.391-.322-.943-.483-1.541-.483-.851 0-1.656.299-2.07.851-.483.644-.598 1.449-.598 3.059 0 1.334.069 2.346.575 2.99.46.598 1.219.92 2.116.92.621 0 1.196-.184 1.61-.506.414-.345.621-.851.621-1.403 0-.253.161-.391.437-.391h1.311c.23 0 .345.161.345.46 0 1.196-.506 2.277-1.403 2.99-.736.598-1.794.92-2.921.92zm14.663 0c-1.794 0-3.128-.736-3.91-1.909s-.851-2.461-.851-4.071c0-1.61.069-2.898.851-4.071.782-1.173 2.116-1.909 3.91-1.909s3.128.736 3.91 1.909.851 2.461.851 4.071c0 1.61-.069 2.898-.851 4.071-.782 1.173-2.116 1.909-3.91 1.909zm0-2.07c1.035 0 1.748-.529 2.116-1.081.414-.621.506-1.495.506-2.829s-.092-2.208-.506-2.829c-.368-.552-1.081-1.081-2.116-1.081-1.035 0-1.748.529-2.116 1.081-.414.621-.506 1.495-.506 2.829s.092 2.208.506 2.829c.368.552 1.081 1.081 2.116 1.081zm11.397 1.84a.461.461 0 0 1-.46-.46V7.48c0-.253.207-.46.46-.46h1.012c.138 0 .253.046.322.184.207.368.391.529.575.529.529 0 .598-.943 2.507-.943.966 0 1.863.368 2.691 1.081a.709.709 0 0 0 .46.207.709.709 0 0 0 .46-.207c.736-.69 1.771-1.081 2.806-1.081 2.254 0 3.841 1.702 3.841 4.117v7.153c0 .253-.207.46-.46.46h-1.15a.461.461 0 0 1-.46-.46v-6.9c0-1.403-.874-2.3-2.231-2.3-1.288 0-2.231.92-2.231 2.185v7.015c0 .253-.207.46-.46.46h-1.15a.461.461 0 0 1-.46-.46v-6.9c0-1.403-.874-2.3-2.231-2.3-1.288 0-2.231.92-2.231 2.185v7.015c0 .253-.207.46-.46.46h-1.15zm25.864-11.73c1.679 0 3.128.713 3.726 1.978.483 1.012.713 2.254.713 4.002 0 1.84-.207 3.082-.736 4.025-.69 1.242-1.978 1.955-3.519 1.955-1.518 0-2.001-.736-2.415-.736-.299 0-.414.207-.414.736v3.91c0 .253-.207.46-.46.46h-1.15a.461.461 0 0 1-.46-.46V7.48c0-.253.207-.46.46-.46h.782c.184 0 .276.046.322.161.138.368.276.483.46.483.483 0 .828-.874 2.691-.874zm-.207 2.07c-.966 0-1.771.345-2.162 1.058-.391.713-.414 1.518-.414 2.852 0 1.334.023 2.139.414 2.852.391.713 1.196 1.058 2.162 1.058s1.794-.345 2.162-1.058c.368-.713.414-1.518.414-2.852 0-1.334-.023-2.139-.414-2.852-.391-.713-1.196-1.058-2.162-1.058zm14.433 9.89c-2.53 0-4.186-1.449-4.186-3.657 0-2.3 1.518-3.519 4.14-3.519h2.461c.138 0 .23-.092.23-.23v-.943c0-1.173-.759-1.794-2.139-1.794-1.334 0-2.116.552-2.116 1.541 0 .276-.161.391-.529.391h-1.058c-.299 0-.46-.161-.46-.46 0-2.07 1.541-3.289 4.186-3.289 2.737 0 4.186 1.265 4.186 3.68v7.59c0 .253-.207.46-.46.46h-.782c-.138 0-.253-.046-.322-.161-.115-.207-.23-.483-.46-.483-.414 0-.989.874-2.691.874zm.161-1.909c1.817 0 2.668-.782 2.668-2.415v-.736c0-.138-.092-.23-.23-.23h-2.415c-1.518 0-2.231.506-2.231 1.587 0 1.173.759 1.794 2.208 1.794zm11.489 1.679a.461.461 0 0 1-.46-.46V7.48c0-.253.207-.46.46-.46h1.012c.138 0 .253.046.322.161.161.23.23.529.598.529.506 0 .828-.92 2.898-.92 2.438 0 3.91 1.656 3.91 4.117v7.153c0 .253-.207.46-.46.46h-1.15a.461.461 0 0 1-.46-.46v-6.417c0-1.702-.874-2.783-2.53-2.783-1.426 0-2.53 1.012-2.53 2.668v6.532c0 .253-.207.46-.46.46h-1.15zm16.641 4.6c-.299 0-.46-.184-.46-.368 0-.092.023-.184.069-.299l1.633-4.485c.046-.138.069-.184.069-.253a.75.75 0 0 0-.069-.23l-3.841-9.752a1.083 1.083 0 0 1-.092-.368c0-.184.184-.345.46-.345h1.403c.207 0 .345.092.437.345l2.829 7.475c.023.069.046.092.092.092s.069-.023.092-.092l2.622-7.475c.092-.253.23-.345.437-.345h1.403c.276 0 .46.161.46.345 0 .115-.046.253-.092.368l-5.773 15.042c-.092.253-.23.345-.437.345h-1.242zm13.145-18.607a.363.363 0 0 1-.368-.368V2.558c0-.184.161-.368.368-.368h1.564c.207 0 .368.184.368.368v1.587a.363.363 0 0 1-.368.368h-1.564zm.184 14.007a.461.461 0 0 1-.46-.46V7.48c0-.253.207-.46.46-.46h1.196c.253 0 .46.207.46.46v10.58c0 .253-.207.46-.46.46h-1.196zm11.857.23c-2.53 0-4.186-1.449-4.186-3.657 0-2.3 1.518-3.519 4.14-3.519h2.461c.138 0 .23-.092.23-.23v-.943c0-1.173-.759-1.794-2.139-1.794-1.334 0-2.116.552-2.116 1.541 0 .276-.161.391-.529.391h-1.058c-.299 0-.46-.161-.46-.46 0-2.07 1.541-3.289 4.186-3.289 2.737 0 4.186 1.265 4.186 3.68v7.59c0 .253-.207.46-.46.46h-.782c-.138 0-.253-.046-.322-.161-.115-.207-.23-.483-.46-.483-.414 0-.989.874-2.691.874zm.161-1.909c1.817 0 2.668-.782 2.668-2.415v-.736c0-.138-.092-.23-.23-.23h-2.415c-1.518 0-2.231.506-2.231 1.587 0 1.173.759 1.794 2.208 1.794zM68.883 15.91C68.123 8.987 63.233 2.28 56.298.496c-3.625-.93-7.522-.51-10.952.945-3.174 1.35-5.942 3.75-7.853 6.608a14.18 14.18 0 0 0-2.024 4.635c-.24 1.013-.398 2.086-.315 3.136a7.837 7.837 0 0 0 1.233 3.645 9.944 9.944 0 0 0-1.068 2.85c-.21 1.028-.18 2.04.113 2.993l-.339.36c-.203.225-.398.45-.594.683-.27-.293-.564-.563-.85-.818.316-1.747.045-3.6-.745-5.22-.12-.248-.248-.488-.376-.72.595-.87 1-1.876 1.204-2.888.33-1.62.03-3.353-.444-4.92-.489-1.613-1.301-3.12-2.302-4.471-2.09-2.813-4.964-5.018-8.252-6.24C19.274-.21 15.34-.375 11.82.75 8.608 1.778 5.93 3.93 3.892 6.564 1.582 9.549.266 13.172.032 16.93c-.24 3.885.873 7.59 2.558 11.056 1.565 3.21 3.573 6.203 5.747 9.038 2.129 2.775 4.446 5.408 6.89 7.913a87.877 87.877 0 0 0 3.288 3.196c.925.855 1.85 1.755 2.858 2.505.85.638 1.708 1.275 2.558 1.905a529.829 529.829 0 0 0 5.28 3.886c1.452 1.057 2.896 2.13 4.4 3.112.264.173.662.518 1.001.45.361-.075.745-.427 1.038-.63 1.565-1.08 3.084-2.235 4.604-3.383 1.7-1.282 3.392-2.572 5.077-3.862.918-.705 1.843-1.395 2.723-2.146 4.874-4.147 9.373-8.828 13.247-13.92 2.12-2.784 4.054-5.746 5.528-8.927.813-1.762 1.482-3.6 1.843-5.513.346-1.875.421-3.803.21-5.7zm-32.714 5.708a8.703 8.703 0 0 1 .64-1.56c.157.202.33.397.51.592-.6 1.283-.796 2.445-.6 3.548l-.069.045c-.24.165-.466.345-.684.54-.226-1.028-.12-2.093.203-3.165zm-5.017 6.09l.015.015.037.038.038.03c.196.157.369.315.527.48-.467.66-1.03 1.253-1.64 1.785-1.151.998-2.656 1.605-4.13 1.928-1.391.307-2.903.33-4.167-.405-1.407-.818-2.34-2.566-1.888-4.17.338-1.2 1.437-1.936 2.512-2.446 2.4-1.132 5.379-1.313 7.906-.517-.023.27-.068.532-.128.787a9.44 9.44 0 0 0-2.211-.33c-1.648-.052-3.408.255-4.724.833-2.061.907-2.317 2.13-2.287 2.775l.007.067c.136 1.11.91 1.95 2.302 2.498.888.36 2.069.39 3.333.09 1.218-.292 2.324-.862 3.023-1.56.587-.6 1.084-1.238 1.475-1.898zm-.301-8.37c.15-.173.293-.345.414-.518.158.233.316.473.458.72-.15.195-.308.375-.481.54a8.824 8.824 0 0 0-.391-.742zm-1.324 7.56c-.3.495-.677.968-1.136 1.425-.97.968-3.272 1.53-4.4 1.073l-.015-.007c-1.016-.398-1.136-.803-1.166-.99.007-.248.383-.653 1.21-1.02 1.528-.668 3.83-.893 5.507-.48zm.88-10.32a19.559 19.559 0 0 0-3.453-3.278c-2.745-2.01-6.235-2.91-9.605-2.28-2.084.39-4.574 1.522-5.416 3.607-.452 1.133-.316 2.483.105 3.6.384 1.013 1.076 1.883 1.918 2.55 1.7 1.358 3.904 1.996 6.025 2.326.873.135 1.76.217 2.648.24 1.204.03 2.422-.143 3.61-.323 1.295-.195 2.603-.57 3.762-1.207.15.45.263.9.316 1.35.022.195.037.39.045.585-1.595-.473-3.317-.555-4.95-.323-2.316.323-5.355 1.32-6.123 3.788-.481 1.553.249 3.248 1.392 4.32 1.106 1.036 2.573 1.366 4.047 1.276 2.926-.18 5.732-1.673 7.47-4.028.24.322.413.645.548.96a7.424 7.424 0 0 0-.015 2.273c.046.307.106.615.181.922a3.795 3.795 0 0 1-.278.645c-1.708-.877-3.746-1.087-5.56-.397-2.52.96-5.084 3.675-4.144 6.548.248.765.782 1.41 1.422 1.89.549.413 1.226.548 1.903.518 1.452-.068 2.836-.84 4.01-1.643.631-.435 1.225-.93 1.79-1.455-.437 1.365-.512 2.828-.226 4.305.135.69.39 1.35.67 2.003-1.046 2.79-3.017 4.755-4.484 6.12a104.328 104.328 0 0 1-6.243-5.107c-3.746-3.316-7.018-6.706-9.719-10.066C8.736 32.17 6.291 28.09 4.772 24.16c-.557-1.44-.918-2.798-1.069-4.013l-.007-.038c-.512-3.675.353-7.5 2.362-10.486 2.226-3.293 5.025-5.265 8.32-5.858.76-.135 1.541-.202 2.339-.202 1.038 0 2.068.12 3.076.345a14.126 14.126 0 0 1 4.935 2.19c3.618 2.708 5.544 5.73 5.882 9.256 0 .045.03.547-.203 1.222zm-4.679-2.243c-2.482-1.598-5.288-2.22-7.717-1.703-.61.09-1.618.375-2.475.863-1.655.937-2.001 2.152-2.001 3 0 1.05.429 1.98 1.271 2.775 1.106 1.043 2.904 1.815 5.356 2.31 1.798.36 3.565.465 4.25.435l.045-.007.406-.045c1.256-.128 2.67-.27 4.1-1.125.173-.098.33-.195.489-.3.12.217.225.435.323.652a9.22 9.22 0 0 1-2.083.855c-.94.27-1.919.398-2.889.503-.564.06-1.12.135-1.685.142a19.26 19.26 0 0 1-2.377-.142c-2.084-.255-4.25-.81-5.995-2.018-.873-.6-1.58-1.41-2-2.378-.46-1.05-.595-2.422-.091-3.472.519-1.095 1.595-1.808 2.663-2.31a9.45 9.45 0 0 1 2.926-.818c1.858-.21 3.7.015 5.438.682 1.565.6 2.972 1.53 4.213 2.64.812.72 1.557 1.523 2.241 2.37-.098.173-.21.36-.346.54a15.932 15.932 0 0 0-4.062-3.45zm2.723 4.695a9.248 9.248 0 0 1-.398.248l-.015.007c-1.084.653-2.19.765-3.363.885-.128.015-.263.03-.39.038-.467.022-2.017-.053-3.777-.398-2.084-.412-3.626-1.057-4.468-1.845-.474-.443-.7-.923-.7-1.463 0-1.372 2.332-1.995 2.956-2.085l.06-.015a6.42 6.42 0 0 1 1.392-.15c2.234 0 4.175 1.073 4.995 1.605l.03.015c1.482.878 2.738 1.973 3.678 3.158zm3.445 6.96c.076-.254.136-.51.181-.772.286.18.564.375.827.585-.015.053-.022.105-.037.158-.06.225-.128.442-.21.66a6.155 6.155 0 0 0-.249-.21 3.9 3.9 0 0 0-.512-.42zm-5.085 8.837l-.052.03c-2.25 1.395-2.437 2.94-2.415 3.532.03.795.46 1.485 1.144 1.846.94.487 2.189.315 3.43-.473.932-.593 2.076-1.508 3.091-2.498.128.18.249.383.354.6-.384.383-.782.75-1.174 1.103-1.045.937-2.279 1.763-3.61 2.235-.625.225-1.324.368-1.986.255-.775-.135-1.392-.742-1.783-1.402-.368-.623-.459-1.373-.346-2.078.12-.803.49-1.463.993-2.093.79-.99 1.993-1.808 3.204-2.19 1.565-.495 3.22-.263 4.65.457-.121.18-.257.368-.415.563-.037-.022-.082-.045-.12-.067-1.46-.788-3.257-.72-4.965.18zm3.792 1.267c-.835.803-1.79 1.59-2.67 2.145-.79.503-1.37.525-1.618.398-.068-.038-.165-.113-.173-.308-.015-.427.376-1.185 1.542-1.92.64-.33 1.798-.765 2.919-.315zm2.174 2.843c.218.705.368 1.53.443 2.46 0 1.088-.15 2.085-.406 3a8.927 8.927 0 0 1-.459-1.92c-.135-1.192-.007-2.415.422-3.54zm.744 8.566c.068.135.143.262.218.397.113.203.226.398.346.593a30.97 30.97 0 0 1-1.97 2.565 40.166 40.166 0 0 1-1.866 2.063c-.248-.173-.496-.36-.752-.548 1.249-1.177 2.866-2.835 4.024-5.07zm.978-11.124c.12.173.24.345.369.51-.203.33-.376.69-.52 1.065a9.327 9.327 0 0 0-.375-.892c.18-.218.36-.45.526-.683zm-.293-1.875c.173-.315.323-.645.436-.998.09.255.196.503.316.765a8.67 8.67 0 0 1-.369.75 6.92 6.92 0 0 0-.24-.232 5.04 5.04 0 0 1-.143-.285zm.94 12.279c-.053.09-.105.187-.158.277-.158.278-.323.555-.496.825-.158-.27-.316-.54-.467-.817l-.15-.285c.24-.533.451-1.095.624-1.688.075.24.166.495.263.75.12.308.249.623.384.938zm-1.452-10.599l-.135.158c-.098-.15-.203-.3-.316-.435.196-.248.376-.488.542-.728.097.195.203.383.315.57a7.33 7.33 0 0 0-.406.435zm.467 13.336c.105-.142.21-.285.308-.435.64.975 1.362 1.906 2.129 2.79.459.533.94 1.05 1.429 1.56-1.715 1.26-2.979 2.116-3.558 2.483-.602-.345-1.91-1.177-3.663-2.415a35.921 35.921 0 0 0 3.355-3.983zm.714-1.027c.218-.323.421-.653.617-.99.91 1.8 2.159 3.488 3.739 5.04-.226.173-.452.338-.662.503-1.37-1.41-2.633-2.903-3.694-4.553zm10.02-11.116c.812-.638 1.715-1.493 1.429-2.475-.301-1.05-1.64-1.2-2.625-1.313l-.173-.023-.06-.007c-2.58-.12-4.672.247-6.244 1.11-.068-.112-.135-.218-.195-.33.248-.135.496-.263.744-.383.91-.435 1.888-.75 2.881-.922.903-.158 1.88-.143 2.791-.083 1.106.075 2.324.285 3.25.93.353.24.601.585.677 1.006.097.525-.211 1.08-.482 1.5-1.76 2.707-6.04 4.425-8.951 2.535a8.751 8.751 0 0 1-1.475-1.215c.136-.21.271-.368.384-.495 2.437 2.197 5.439 2.257 8.049.165zm-6.537-1.245c1.249-.6 2.919-.855 5.002-.758.045.008.098.008.143.015.203.023.534.06.805.113-.12.12-.293.27-.534.465l-.008.007c-1.068.848-3.144 1.958-5.408.158zm3.64-3.848c-.887-.03-1.782.142-2.625.39-.91.262-1.812.63-2.655 1.095a7.404 7.404 0 0 1-.534-1.365c.21-1.02.301-2.04.068-3.045.173-.473.429-.938.775-1.38.917 1.034 2.023 1.905 3.181 2.647 1.272.818 2.663 1.448 4.13 1.785-.775-.097-1.55-.097-2.34-.127zm-5.596-6.286a4.439 4.439 0 0 1-.233-.51 7.75 7.75 0 0 1 .715-.6c.067.203.15.405.24.593-.255.15-.496.322-.722.517zm.128 16.734a7.528 7.528 0 0 1-.338 1.695c-.474-1.537-.527-2.67-.527-3.075v-.18c-.015-1.132.15-1.965.376-2.588.459 1.32.602 2.746.49 4.148zm-1.053-6.66a8.894 8.894 0 0 0-.323-.42c.12-.105.24-.203.368-.3.083.135.158.27.248.405a6.042 6.042 0 0 0-.293.315zm1.06 9.338c.008-.007.008-.015.016-.03.594-1.44.767-2.985.647-4.538a9.699 9.699 0 0 0-.346-1.92c.248.202.511.39.767.562 1.264.84 2.888 1.013 4.355.773 1.805-.292 3.528-1.305 4.762-2.625.774-.833 1.655-2.078 1.18-3.27-.398-.983-1.481-1.463-2.437-1.74a1.727 1.727 0 0 0-.21-.053l.158.022c1.557.188 3.227-.007 4.558-.885a4.764 4.764 0 0 0 1.828-2.287c.489-1.268.09-2.738-.91-3.646-1.03-.93-2.28-1.44-3.588-1.822 1.625-.12 3.204-.413 4.716-1.066a11.07 11.07 0 0 0 3.536-2.377c.782-.795 1.429-1.733 1.828-2.776.157-.405.248-.832.285-1.267.053-.683-.579-1.41-1.023-1.883-1.15-1.245-2.835-2.04-4.46-2.468-1.88-.495-3.867-.412-5.74.06-1.858.473-3.603 1.35-5.19 2.4-.94.623-1.85 1.328-2.678 2.108-.293-.997-.218-1.8-.218-1.807v-.023c.406-4.26 4.227-7.553 5.867-8.776a13.8 13.8 0 0 1 4.935-2.19 13.72 13.72 0 0 1 3.076-.345c.798 0 1.58.068 2.347.21 3.295.593 6.093 2.558 8.312 5.85 2.016 2.993 2.874 6.811 2.362 10.494l.015.053c-.143 1.095-.481 2.377-1.083 4.035-2.88 7.943-10.599 16.022-16.564 21.407a128.977 128.977 0 0 1-6.965 5.843c-2.212-2.123-3.445-4.26-4.137-6.023zm2.505-24.167a5.7 5.7 0 0 1 .301-.488c.858.653 1.994 1.215 3.49 1.575 1.73.405 3.416.42 5.823.045l.037-.007.038-.008c2.482-.615 4.07-1.62 4.965-2.355 1.233-1.012 1.94-2.168 1.94-3.173v-.172l-.067-.158c-.527-1.312-1.715-1.942-2.422-2.325l-.038-.015c-2.768-1.328-5.912-1.042-9.606.885-1.015.525-2.783 1.65-4.25 3.06a5.291 5.291 0 0 1-.406-.727c.06-.053.113-.113.173-.165a20.303 20.303 0 0 1 3.964-2.888c3.415-1.913 7.703-2.67 11.276-.69.677.375 1.324.81 1.873 1.365.286.293.526.615.722.968.15.262.196.42.15.712-.143.968-.647 1.86-1.233 2.626-1.896 2.497-5.018 3.682-8.049 3.967-.888.083-1.775.12-2.663.053-.993-.075-1.956-.338-2.903-.623-1.099-.337-2.167-.802-3.115-1.462zm1.986 1.762c-.158.008-.316.008-.474.015a8.97 8.97 0 0 0-2.106.36c0-.457.098-.96.316-1.53.707.473 1.475.848 2.264 1.155zm-.504-3.607a17.649 17.649 0 0 1 3.822-2.753c1.512-.788 2.866-1.26 4.13-1.425 1.398-.188 2.655-.008 3.836.555.624.33 1.203.682 1.496 1.215-.195.817-1.812 2.708-5.476 3.615-2.136.33-3.618.323-5.085-.022-1.083-.263-1.993-.66-2.723-1.185zm2.829 11.146c2.46.712 4.445.622 5.574-.248 1.12-.862 1.376-2.37.586-3.428-.76-1.005-2.4-1.365-4.295-1.785l-.248-.052c-2.505-.555-4.543-.63-6.16-.233a3.434 3.434 0 0 1-.287-.772c1.377-.466 2.95-.428 4.363-.308 1.76.15 3.55.593 5.213 1.178 1.565.547 3.603 1.815 3.257 3.765-.143.795-.602 1.523-1.18 2.078-1.061 1.012-2.58 1.305-3.995 1.267-1.948-.052-3.829-.825-5.461-1.83-1.196-.735-2.34-1.635-3.265-2.7.196-.18.407-.338.647-.48.045.052.083.105.128.157l.03.038.03.03c1.866 1.86 3.333 2.828 5.063 3.323zm-3.31-4.14c1.211-.143 2.715-.016 4.536.39l.248.052c1.219.27 2.889.637 3.242 1.11.226.3.045.697-.24.915-.497.383-1.798.57-3.965-.06-1.301-.375-2.407-1.065-3.821-2.408zm-2.392-6.361a7.41 7.41 0 0 1-.489-.6c.135-.21.27-.42.421-.615.136.217.279.435.452.66-.136.18-.264.367-.384.555zm-1.97 5.94c.074.165.15.323.24.48-.03.03-.06.068-.09.098l-.008.007a7.92 7.92 0 0 0-.542.728c-.112-.15-.225-.3-.346-.443.241-.292.482-.585.745-.87zm-1.167 1.418c.136.172.271.352.391.532a6.586 6.586 0 0 0-.466 1.125 7.18 7.18 0 0 0-.444-.862c.15-.278.331-.54.52-.795zm-1.053-1.118c.203.195.406.39.602.6a9.193 9.193 0 0 0-.49.713 8.264 8.264 0 0 0-.398-.473c.106-.277.203-.555.286-.84zm-.654-4.47c.33 1.035.398 2.16.24 3.24a10.9 10.9 0 0 0-.88-.562c.038-.51.03-1.028-.037-1.546a9.074 9.074 0 0 0-.587-2.22c.195-.18.376-.375.542-.577.285.54.541 1.095.722 1.665zm-6.793 31.473a581.302 581.302 0 0 1-3.437-2.55c-1.189-.886-2.25-1.816-3.37-2.836-5.01-4.598-9.644-9.766-13.345-15.474-1.978-3.052-3.76-6.353-4.663-9.886-.963-3.765-.67-7.785.774-11.386C3.267 7.922 5.63 4.966 8.548 3.04 11.564 1.05 15.22.369 18.785.789c3.709.442 7.079 2.175 9.75 4.74 2.474 2.385 4.264 5.468 4.625 8.926a7.16 7.16 0 0 1-1.015 4.5c-.158-.247-.316-.495-.482-.735.865-1.538.768-2.918.752-3.008v-.007c-.383-4.066-2.55-7.516-6.611-10.546l-.016-.015a15.777 15.777 0 0 0-5.588-2.49 15.543 15.543 0 0 0-6.146-.158c-3.791.683-6.988 2.91-9.5 6.623-2.257 3.353-3.228 7.636-2.656 11.739v.015c.173 1.365.572 2.857 1.181 4.433 1.617 4.185 4.235 8.52 7.778 12.878 2.836 3.496 6.258 7.006 10.177 10.426a107.966 107.966 0 0 0 5.627 4.59l-.647.586zm1.482 1.095l.64-.57c.278.202.541.397.797.585-.21.195-.429.382-.647.57-.256-.195-.527-.39-.79-.585zm10.508 2.468c-.737.547-1.474 1.087-2.219 1.62-.42.3-.835.615-1.286.862a4.513 4.513 0 0 1-.406-.247c-.594-.383-1.174-.795-1.753-1.2-1.173-.825-2.332-1.673-3.498-2.52.219-.188.437-.383.655-.578.165.12.33.232.489.345a65.925 65.925 0 0 0 2.873 1.913c1.28.795 1.407.795 1.648.795.27 0 .466-.105.827-.323.226-.135.534-.337.888-.577a78.318 78.318 0 0 0 2.986-2.116c.045-.03.083-.067.128-.097.218.21.444.42.662.63l-1.994 1.493zm2.513-1.89c-.218-.21-.444-.42-.662-.63.233-.18.481-.368.737-.563l.715.6c-.264.195-.527.397-.79.592zM68.31 19.09c-.21 3.788-1.707 7.336-3.565 10.599-1.768 3.112-3.912 6.008-6.206 8.753a95.192 95.192 0 0 1-6.943 7.41c-1.565 1.508-3.16 3.038-4.874 4.366-.392.3-.76.585-1.196.923-.73.562-1.46 1.117-2.19 1.672-.187.143-.368.285-.556.428l-.715-.6a130.085 130.085 0 0 0 6.334-5.303c3.994-3.57 7.432-7.103 10.223-10.516 3.482-4.26 5.935-8.311 7.289-12.031.654-1.808 1.015-3.166 1.173-4.418v-.015c.572-4.11-.399-8.394-2.655-11.746-2.505-3.713-5.702-5.941-9.493-6.624a14.897 14.897 0 0 0-2.663-.232c-1.174 0-2.34.135-3.483.39-2.008.465-3.941 1.32-5.589 2.498l-.015.015c-2.121 1.582-3.776 3.36-4.927 5.28-1.188 1.988-1.564 3.69-1.662 4.77-.015.166-.143 1.606.526 3.218.038.083.076.173.113.263a10.5 10.5 0 0 0-.474.66 7.144 7.144 0 0 1-.97-3.18c-.068-1.14.158-2.31.459-3.406.459-1.642 1.264-3.157 2.264-4.53 2.099-2.873 5.092-5.093 8.462-6.218C50.484.346 54.41.338 57.87 1.688c3.175 1.238 5.74 3.683 7.59 6.489 2.106 3.21 3.062 7.095 2.851 10.913z"/>
    </g>
</svg>
