<?xml version="1.0" encoding="UTF-8"?>
<svg width="64px" height="64px" viewBox="0 0 64 64" version="1.1" xmlns="http://www.w3.org/2000/svg" xmlns:xlink="http://www.w3.org/1999/xlink">
    <!-- Generator: Sketch 58 (84663) - https://sketch.com -->
    <title>phone</title>
    <desc>Created with Sketch.</desc>
    <g id="phone" stroke="none" stroke-width="1" fill="none" fill-rule="evenodd">
        <circle id="Oval" fill="#20C0C6" cx="32" cy="32" r="32"></circle>
        <path d="M45.9101784,18.4420094 L39.8165524,17.0357891 C39.1544565,16.8834486 38.4747828,17.2291444 38.205257,17.850225 L35.3928143,24.4125864 C35.1467255,24.9867931 35.3107847,25.660607 35.7971029,26.0531768 L39.3478119,28.9593654 C37.2384798,33.4534111 33.5530079,37.1916134 28.9652106,39.3419586 L26.0590198,35.7912524 C25.6605904,35.3049345 24.9926352,35.1408755 24.4184281,35.386964 L17.8560616,38.1994046 C17.2291213,38.4747894 16.8834252,39.1544626 17.0357658,39.816558 L18.4419872,45.9101793 C18.5884686,46.5429784 19.1509572,47 19.8130531,47 C34.8186072,47 47,34.8420537 47,19.8130742 C47,19.1568381 46.5488373,18.5884907 45.9101784,18.4420094 Z" id="Path" fill="#FFFFFF" fill-rule="nonzero"></path>
    </g>
</svg>