<?xml version="1.0" encoding="UTF-8"?>
<svg width="64px" height="64px" viewBox="0 0 64 64" version="1.1" xmlns="http://www.w3.org/2000/svg" xmlns:xlink="http://www.w3.org/1999/xlink">
    <!-- Generator: Sketch 58 (84663) - https://sketch.com -->
    <title>headquarters</title>
    <desc>Created with Sketch.</desc>
    <g id="headquarters" stroke="none" stroke-width="1" fill="none" fill-rule="evenodd">
        <circle id="Oval" fill="#20C0C6" cx="32" cy="32" r="32"></circle>
        <path d="M31.2540476,46.3947194 C22.6053571,34.0525935 21,32.7859141 21,28.2499973 C21,22.0367761 26.1167262,17 32.4285714,17 C38.7404167,17 43.8571429,22.0367761 43.8571429,28.2499973 C43.8571429,32.7859141 42.2517857,34.0525935 33.6030952,46.3947194 C33.0355357,47.2017895 31.8215476,47.2017309 31.2540476,46.3947194 Z M32.7857143,32.7142857 C35.3499063,32.7142857 37.4285714,30.6356205 37.4285714,28.0714286 C37.4285714,25.5072366 35.3499063,23.4285714 32.7857143,23.4285714 C30.2215223,23.4285714 28.1428571,25.5072366 28.1428571,28.0714286 C28.1428571,30.6356205 30.2215223,32.7142857 32.7857143,32.7142857 Z" id="Shape" fill="#FFFFFF" fill-rule="nonzero" transform="translate(32.428571, 32.000000) scale(-1, 1) translate(-32.428571, -32.000000) "></path>
    </g>
</svg>