<?xml version="1.0" encoding="UTF-8"?>
<svg width="64px" height="64px" viewBox="0 0 64 64" version="1.1" xmlns="http://www.w3.org/2000/svg" xmlns:xlink="http://www.w3.org/1999/xlink">
    <!-- Generator: Sketch 58 (84663) - https://sketch.com -->
    <title>mail</title>
    <desc>Created with Sketch.</desc>
    <g id="mail" stroke="none" stroke-width="1" fill="none" fill-rule="evenodd">
        <circle id="Oval" fill="#20C0C6" cx="32" cy="32" r="32"></circle>
        <path d="M46.4316406,29.0619572 C46.6601562,28.88206 47,29.0503509 47,29.3347044 L47,41.2021121 C47,42.7399424 45.7402344,43.9876161 44.1875,43.9876161 L19.8125,43.9876161 C18.2597656,43.9876161 17,42.7399424 17,41.2021121 L17,29.3405076 C17,29.0503509 17.3339844,28.8878632 17.5683594,29.0677603 C18.8808594,30.0775055 20.6210938,31.359998 26.5976562,35.6601198 C27.8339844,36.5538023 29.9199219,38.4340175 32,38.4224112 C34.0917969,38.4398206 36.21875,36.5189835 37.4082031,35.6601198 C43.3847656,31.359998 45.1191406,30.0717024 46.4316406,29.0619572 Z M32,35.9997648 C33.359375,36.0232019 35.3164062,34.2888541 36.3007812,33.5740216 C44.0761719,27.9315319 44.6679688,27.4393522 46.4609375,26.0331242 C46.8007812,25.7694565 47,25.3593066 47,24.9257197 L47,23.8124559 C47,22.2597459 45.7402344,21 44.1875,21 L19.8125,21 C18.2597656,21 17,22.2597459 17,23.8124559 L17,24.9257197 C17,25.3593066 17.1992188,25.7635972 17.5390625,26.0331242 C19.3320312,27.4334929 19.9238281,27.9315319 27.6992188,33.5740216 C28.6835938,34.2888541 30.640625,36.0232019 32,35.9997648 Z" id="Shape" fill="#FFFFFF" fill-rule="nonzero"></path>
    </g>
</svg>