<?xml version="1.0" encoding="UTF-8"?>
<svg width="73px" height="60px" viewBox="0 0 73 60" version="1.1" xmlns="http://www.w3.org/2000/svg" xmlns:xlink="http://www.w3.org/1999/xlink">
    <!-- Generator: Sketch 58 (84663) - https://sketch.com -->
    <title>espectacles OUTLINED</title>
    <desc>Created with Sketch.</desc>
    <g id="espectacles-OUTLINED" stroke="none" stroke-width="1" fill="none" fill-rule="evenodd">
        <path d="M27.9081946,11.8041364 L27.4982456,13.2299239 C27.4127879,13.7130113 27.26912,14.1849791 27.2294874,14.6754796 C27.161369,15.1622736 27.1266905,15.6490676 27.1489838,16.1370971 C27.1365987,16.3817296 27.1824238,16.6214201 27.2146252,16.8611105 C27.2393956,17.103272 27.2827436,17.3404914 27.3657243,17.5665911 C27.4326042,17.797633 27.497007,18.0299103 27.6196202,18.2362418 C27.7224171,18.4524574 27.827691,18.6662019 27.9862211,18.8465875 C28.1199809,19.0442704 28.273557,19.2246559 28.4593345,19.3766246 C28.6228187,19.5495971 28.8185044,19.6855041 29.0216211,19.8127624 C29.8254185,20.3304443 30.7840304,20.5824899 31.7438809,20.6986286 C33.680921,20.9148442 35.6588322,20.6665051 37.5797716,20.2736105 C39.5019496,19.8708317 41.4080268,19.3136132 43.237316,18.6254298 L43.2719945,18.6130747 L43.3004804,18.6081326 C43.603917,18.5599474 43.9123076,18.5228819 44.2454686,18.5364726 C44.423815,18.5723026 44.5897763,18.568596 44.7817463,18.668673 C44.9588542,18.7353909 45.1656865,18.9009503 45.2585753,19.1048107 C45.3712803,19.3074356 45.3811884,19.5211802 45.3749959,19.7052723 C45.3626107,19.8893645 45.3229782,20.0561594 45.274676,20.2130701 C45.1706406,20.5293627 45.0381193,20.7962345 44.8622499,21.0754615 L44.8461492,21.1026429 L44.8275715,21.1211757 C44.0076734,21.9193201 43.234839,22.7755339 42.3369143,23.4847211 C41.4835763,24.248271 40.5633584,24.9240992 39.644379,25.5999274 C38.7241611,26.2745201 37.758118,26.8799238 36.8044602,27.5026248 C35.8210779,28.0746695 34.8637045,28.6961349 33.8518363,29.2187589 C31.866494,30.3344314 29.8056022,31.3055483 27.7298482,32.2371287 C25.6379934,33.1316436 23.5287995,33.9977415 21.3527256,34.6883959 C20.2739775,35.0578157 19.1716977,35.3654596 18.0619867,35.6558063 C16.9485602,35.9362688 15.826464,36.1870789 14.6560657,36.3168083 L13.7717648,36.399588 L12.8292535,36.3575804 C12.4415978,36.33287 12.2471507,36.2426772 11.9461911,36.1883144 C11.6712404,36.1277741 11.3987667,36.0734113 11.0990457,35.9498595 C9.89273041,35.5965014 8.86104598,34.8860787 8.00770797,33.9792087 C7.1283611,33.061219 6.72708168,31.8343499 6.47194724,30.653195 C6.40630585,30.0292585 6.37162738,29.5091056 6.36667331,28.7949763 C6.45584652,28.2303447 6.47566279,27.6879524 6.62304628,27.104788 C6.97850057,25.8779189 7.47886133,24.7733661 8.19720102,23.8232529 C8.89077039,22.8422519 9.68589812,21.9946867 10.675473,21.2434919 L10.6890967,21.2323723 L10.71139,21.2187816 C14.2981344,19.0936911 18.3059745,17.8705285 22.3447775,17.2045844 C24.3685138,16.8697591 26.4083508,16.6597211 28.4531419,16.5596442 C29.4773953,16.5126945 30.497933,16.4855131 31.530856,16.5065169 L31.9234658,16.5164011 L32.3383689,16.5534666 L33.0938641,16.6275977 C33.5979404,16.6794894 34.0933471,16.7066708 34.6283863,16.8376357 C35.6848411,17.0303764 36.717764,17.3083679 37.6949537,17.8038105 C38.6770974,18.251068 39.6196087,19.0232665 40.1509323,20.1154642 C40.2252433,20.2451936 40.2549677,20.4058109 40.3057469,20.5503665 L40.3726268,20.7727597 L40.3812965,20.8011766 C40.3887276,20.8481262 40.3763424,20.7356941 40.3998742,20.9136087 L40.4023512,20.9605584 L40.4073053,21.0556932 C40.4456993,21.2286657 40.3751039,21.7562318 40.2462981,22.0453429 C40.0097414,22.6593952 39.6109391,23.062174 39.2356685,23.4736014 C38.4442563,24.2346804 37.568625,24.8227868 36.6682233,25.3417042 C34.8599889,26.3659484 32.9650583,27.1640929 31.0391648,27.8510408 C30.087984,28.1969857 29.088501,28.5182203 28.1236965,28.7974473 C27.1626075,29.0964426 26.1792252,29.367021 25.1673571,29.5968273 C23.1782992,30.0144323 21.0443349,30.4740449 18.9091321,29.7438539 C18.637897,29.6783715 18.3951477,29.5449356 18.1623065,29.3830827 C17.9319424,29.2274075 17.6755695,29.1001492 17.4712142,28.9172926 L16.897781,28.3254796 L16.7553515,28.1772174 C16.7219116,28.1364454 16.7305812,28.1623912 16.6624628,28.0684919 L16.6092066,27.9844767 L16.4048513,27.6657131 C16.1100843,27.1233208 15.9874712,26.4944423 16.0654977,25.9149845 C16.1422858,25.3281135 16.3887506,24.8104316 16.6760865,24.348348 C17.2817211,23.443949 18.0248312,22.6692794 18.9698194,22.1417133 C19.3797685,21.8600153 19.8739366,21.6524483 20.3742974,21.4535299 C20.8684656,21.2286657 21.3589182,21.0865812 21.8493708,20.935848 C23.8124198,20.3329153 25.8089088,19.9276655 27.8115903,19.5891337 C31.8181919,18.91207 35.8508023,18.4685191 39.8908438,18.1374003 C41.9121031,17.9792541 43.9346009,17.8433471 45.9657683,17.7939264 C46.9739209,17.802575 48.014275,17.7049691 49.0620601,17.9841961 C49.3159561,18.0743889 49.6528326,18.1719948 49.8064087,18.5723026 C49.9166367,18.9824945 49.6837955,19.2678991 49.5240269,19.4779371 C49.1561874,19.9004841 48.7338532,20.1945374 48.2842716,20.4749999 L48.3300967,20.4391699 C47.2538257,21.4374682 46.1020052,22.2825623 44.9377995,23.128892 C43.7748323,23.9715151 42.5945258,24.7881923 41.4005957,25.5851012 C39.011497,27.1776836 36.5641879,28.6800732 34.0586686,30.0873279 C32.8003356,30.7816888 31.5345715,31.4612236 30.2440371,32.0962797 C29.6074395,32.431105 28.9473101,32.7189806 28.2958503,33.0241535 C27.645629,33.3317974 26.9892152,33.6270862 26.3191776,33.8927225 C25.6491401,34.1583588 24.9964418,34.4647672 24.3103035,34.6896314 C23.6278808,34.9243798 22.9553662,35.1875451 22.2642739,35.3975831 L20.1761347,35.9893961 L18.0421704,36.4218273 L18.3146441,36.0524075 L19.3289893,42.4548604 L20.4089759,48.8251898 L20.6814495,50.4165366 L20.8176864,51.2122101 L20.8858048,51.6100468 C20.8932359,51.6495833 20.9167677,51.8027875 20.9118136,51.7484248 L20.9960328,51.9325169 C21.2214428,52.2834039 21.5546038,52.6318199 21.9880847,52.9308152 C22.1850088,53.090197 22.4054648,53.2248685 22.6308749,53.3521268 C22.8500923,53.4880337 23.0755024,53.6140565 23.3170131,53.7141335 C24.2483777,54.1774526 25.272631,54.4529731 26.3018384,54.6568335 C27.3384769,54.8347481 28.3936931,54.9298829 29.4526249,54.9076436 C30.5115567,54.9113502 31.5680115,54.7828563 32.6195122,54.6358297 L34.1862358,54.3331279 C34.7064129,54.2219313 35.2166817,54.0588429 35.7319047,53.925407 C36.7697817,53.68201 37.755641,53.2458723 38.7687477,52.9147535 C39.7459374,52.4897354 40.7503744,52.0844856 41.6990782,51.6310506 C42.6366354,51.1516697 43.5469452,50.6006288 44.4002832,49.985341 C45.2461901,49.3638755 46.0673267,48.699167 46.7497494,47.9244974 C47.4284566,47.1535343 48.0204676,46.3096757 48.3709678,45.3830374 C48.7016518,44.451457 48.7623391,43.472927 48.5864697,42.5166363 L48.6521111,42.6846667 L47.1435977,39.7218951 C46.6642918,38.7248323 46.0859045,37.7673061 45.6883406,36.7356488 L43.1642435,30.5988322 L43.239793,30.7483298 C42.6465435,29.7784484 42.3492995,28.7097256 42.5189763,27.5409258 C42.7183775,26.3807747 43.5023586,25.4047156 44.3866595,24.8277289 C44.6232162,24.6844088 44.8077552,24.5472663 45.08766,24.4027108 L45.7341657,24.0950668 C46.199848,23.9134457 46.7101169,23.7046432 47.1696066,23.5749139 C48.1096408,23.269741 49.049675,23.0485833 49.9897091,22.8224836 L55.5828506,21.5832593 C57.4121398,21.1384729 59.2649608,20.6702117 60.8601704,19.8757738 L61.4323651,19.5582457 C61.6107115,19.4433426 61.7630491,19.3111422 61.9327259,19.191297 C62.2188232,18.9713748 62.6312493,18.5463567 62.8455127,18.2745428 C63.3954141,17.6184829 63.6654107,16.9142378 63.8499497,15.9900705 C64.0431583,13.6203475 67.1208724,12.0883055 69.2498826,13.2484567 C70.3249151,13.79332 70.9937142,14.7496107 71.4668275,15.6799556 C71.8866847,16.6350108 72.1814517,17.6135408 72.3536055,18.5920709 C72.7400227,20.554073 72.7511694,22.5049555 72.75,24.4447184 C72.6013089,28.357603 71.8532448,32.185237 70.6134895,35.8707864 C69.3712573,39.5513937 67.575408,43.0602641 65.2209877,46.1762398 C62.8529438,49.2786248 59.943668,51.9807021 56.6207277,54.0341326 C53.3151265,56.1135089 49.6676948,57.6121919 45.905081,58.5697182 C44.9613313,58.7945824 44.0089119,58.9811456 43.0614466,59.1887126 C42.1077888,59.361685 41.1466998,59.4827658 40.1905649,59.6310279 C39.2331915,59.7755835 38.2659099,59.8175911 37.3035824,59.915197 L36.5815272,59.9782084 L36.4007037,59.9942701 C36.2681824,60.0041543 36.2632284,59.9979767 36.1839633,59.9992122 L35.8074542,59.9930346 C35.3157631,59.9806794 34.8302645,59.9522625 34.344766,59.915197 C30.4706857,59.6100241 26.6535772,58.7884048 23.009861,57.4589877 C19.3686218,56.1382193 15.9106831,54.2552902 12.899849,51.8040231 C9.86424453,49.3799373 7.36987186,46.3158533 5.45140946,42.9614226 C3.57629515,39.5723975 2.3353014,35.8707864 1.61200764,32.0962797 C1.23054449,30.2108796 1.01751961,28.2970627 0.877567222,26.3844812 C0.837934687,25.4220129 0.751238517,24.4793129 0.75,23.5007828 C0.777247368,22.5284304 0.847842821,21.5733752 0.964263392,20.6183199 C1.43366123,16.8067477 2.40837389,13.0544804 3.93670351,9.53696139 C5.47989535,6.03056206 7.5729886,2.75273351 10.2382766,0 L10.342312,0.0988414187 C7.75009649,2.89358253 5.74741496,6.18747281 4.29463485,9.68769455 C2.85795545,13.1978004 1.97613155,16.9253574 1.5946684,20.6850379 C1.5054952,21.6240314 1.43737678,22.5716735 1.42499161,23.5057249 C1.43613826,24.4323632 1.53398108,25.3911249 1.58352175,26.3313539 C1.74329041,28.2155185 1.97365452,30.0984475 2.37121838,31.9455465 C3.12423655,35.6434511 4.38133102,39.2449853 6.23910609,42.5166363 C8.14146777,45.7536927 10.5862998,48.6868118 13.5488318,50.99723 C16.4878319,53.333594 19.8553589,55.1189171 23.4049478,56.361848 C26.9520597,57.6121919 30.6861876,58.3695643 34.4327007,58.6216099 C34.8996215,58.6512623 35.3690193,58.6735017 35.8322245,58.6796793 L36.1715781,58.6821503 C36.2112107,58.6809148 36.3251542,58.6833858 36.312769,58.6784437 L36.4886384,58.6611465 L37.1933544,58.590722 C38.1309116,58.4844675 39.0758998,58.4338112 40.0072644,58.2818425 C40.9361519,58.1261673 41.8712321,57.998909 42.7951655,57.8197589 L45.5446726,57.1884093 C49.1797192,56.2432383 52.6822445,54.8013891 55.8392236,52.8047924 C59.0147805,50.8353772 61.7803883,48.2543806 64.0369658,45.286667 C66.2799195,42.3053627 67.9977422,38.9385769 69.1867183,35.392641 C70.3744558,31.8528827 71.091557,28.1154416 71.2228398,24.4088884 C71.2216012,22.5432566 71.2240783,20.659092 70.873578,18.8700623 C70.722479,17.9706054 70.4599135,17.1143916 70.1205599,16.3199537 C69.7390967,15.5638169 69.238736,14.8941663 68.5909917,14.5667541 C67.9742104,14.2220446 67.1183954,14.2430484 66.5090451,14.5828158 C65.7126789,14.9831236 65.4488748,15.3686051 65.2606203,16.3075986 C65.0835124,17.2478276 64.6574626,18.3857394 63.9502696,19.1838839 C63.5564213,19.644732 63.3000483,19.9103683 62.8430356,20.2847302 C62.4145089,20.6368527 61.9636888,20.9012535 61.5054376,21.1360019 C59.6674788,22.0329877 57.7737867,22.4814807 55.8986724,22.9324447 L50.2943843,24.1444876 C49.3754049,24.3607032 48.4527099,24.5732122 47.5746015,24.8549103 C47.1138733,24.9846396 46.7386028,25.1415504 46.3137915,25.2984611 L45.6660473,25.603634 C45.5236179,25.6765295 45.3167856,25.8186141 45.1446317,25.9211621 C44.4349617,26.3857167 43.9568942,27.030657 43.8169418,27.7645545 C43.6868976,28.4898034 43.9234543,29.3744341 44.3185411,30.0230809 L44.3631277,30.0959765 L44.3940906,30.1738141 L46.8203449,36.2364996 C47.2005695,37.2595083 47.7566635,38.1960307 48.2149147,39.1807384 L49.6602637,42.1015023 L49.715997,42.2126989 L49.7259051,42.2695327 C49.9401685,43.4469811 49.8410871,44.6726147 49.4286611,45.7796386 C48.9988958,46.8792494 48.313996,47.8207139 47.5585008,48.6596304 C46.796813,49.501018 45.9174662,50.1966145 45.0145875,50.8440258 C44.1055162,51.4852595 43.1518583,52.0474201 42.1560909,52.5428627 C41.1466998,53.0123594 40.1360701,53.4064896 39.1229635,53.8327432 C38.0751783,54.1638619 37.0633102,54.5962931 35.9870391,54.8384546 C35.4532384,54.9718905 34.9268688,55.1325078 34.3868755,55.2412334 L32.7594646,55.5365221 C31.6658543,55.6786067 30.5648129,55.7984519 29.4563405,55.7836257 C28.3491065,55.7947453 27.2393956,55.6835487 26.1445468,55.4821594 C25.0558906,55.2535886 23.9721885,54.9496512 22.9652744,54.4381469 C22.7076629,54.3257148 22.4611981,54.1873368 22.2221643,54.0353681 C21.976938,53.8945191 21.7379043,53.7425504 21.5137328,53.5596938 C21.0641512,53.2409302 20.6059,52.8072635 20.2826472,52.2352188 L20.1996665,52.0498911 C20.1278326,51.8756831 20.1612725,51.8868028 20.1365022,51.7953744 L20.0708608,51.3938312 L19.939578,50.5907446 L19.6770125,48.9845716 L18.637897,42.5623504 L17.6730924,36.1500134 L17.6272673,35.8423695 L17.9468046,35.7805936 L20.0299897,35.3753438 L22.0834505,34.8107122 C22.7646347,34.6093228 23.4309567,34.3535706 24.1047097,34.1287064 C24.7834169,33.9124908 25.4323997,33.6134955 26.0974831,33.3565078 C26.7625666,33.0995201 27.4152649,32.8116445 28.0630092,32.5114136 C28.7119919,32.2148894 29.3684058,31.9331913 30.0025264,31.6057792 C31.2893452,30.9855492 32.5526323,30.3196052 33.8084882,29.6388349 C36.310292,28.2587616 38.7600781,26.7798469 41.1516538,25.2132104 C42.348061,24.4298922 43.532083,23.6280411 44.6789495,22.7767694 C45.8258159,21.9341463 46.9825906,21.0692839 48.0018898,20.1142287 L48.0241831,20.0932249 L48.0489535,20.0783987 C48.4539484,19.8251176 48.867613,19.5248867 49.1599029,19.1801773 C49.4806788,18.7897537 49.4224685,18.5933064 48.9233463,18.4499863 C48.0043668,18.2078248 46.9863061,18.2967821 45.9806305,18.2980176 C43.9655638,18.358558 41.9492586,18.5055846 39.9366689,18.6748505 C35.9114896,19.0207955 31.8925029,19.4927633 27.9280109,20.2353094 C25.9463841,20.5985517 23.973427,21.0322184 22.0760194,21.6437997 C20.2120517,22.2158444 18.3567537,23.1363051 17.382041,24.7881923 C17.1442458,25.1823225 16.9572298,25.603634 16.9114046,26.0249455 C16.8655795,26.4524347 16.9634224,26.8465648 17.1392917,27.1949808 L17.3486011,27.5112734 L17.4006188,27.5903465 C17.3696558,27.5458679 17.4278661,27.6125858 17.4365357,27.6187634 L17.5591489,27.7410797 L18.045886,28.2328157 C18.2168013,28.3835489 18.4285876,28.4749772 18.6156037,28.601 C18.8013812,28.7319649 18.9995438,28.8406905 19.2286694,28.8864046 C20.977455,29.4757466 23.0210076,29.0680257 24.9258463,28.6244749 C25.8856968,28.393433 26.8492628,28.114206 27.8165443,27.7979135 C28.7900185,27.5001537 29.713952,27.1888033 30.6601787,26.8305031 C32.5340545,26.1336711 34.3707748,25.324407 36.0700198,24.3298152 C36.9109726,23.8269595 37.7259166,23.2746831 38.3885231,22.6272718 C38.6882441,22.2986241 39.0077814,21.9489725 39.124202,21.6042631 C39.1663116,21.4263485 39.2307144,21.4485879 39.1997515,21.1187046 C39.2059441,21.0272763 39.1093398,20.7727597 39.0474139,20.6109068 C38.6857671,19.8906 37.9946747,19.2641925 37.1388597,18.8910662 C36.312769,18.4734612 35.3677808,18.2214155 34.4376547,18.0558562 C33.9880732,17.938482 33.4691346,17.9100651 32.9675354,17.8606444 L32.2120402,17.7902199 L31.8714481,17.7593319 L31.5048471,17.7519188 C30.5140338,17.7358571 29.5108352,17.7679805 28.5125907,17.8174012 C26.5161018,17.9248913 24.5233284,18.1386359 22.5553253,18.4734612 C18.6242733,19.124579 14.7477159,20.2785526 11.3504646,22.2726782 L11.3863816,22.2492034 C10.5726761,22.8595491 9.78745649,23.6700487 9.18182181,24.5324401 C8.5216924,25.3824763 8.10307375,26.3733615 7.80087567,27.3012354 C7.66340032,27.8053266 7.63119888,28.4045527 7.54202568,28.9506515 C7.5655575,29.3596079 7.57794266,29.9748957 7.6324374,30.4666318 C7.85289338,31.4686367 8.16499959,32.4780547 8.87590819,33.2156588 C9.5508998,33.9433787 10.4451089,34.5734927 11.418583,34.8576618 C11.8570179,35.0368119 12.5431562,35.1702478 12.9778756,35.2382013 L13.7308937,35.2752668 L14.5371681,35.2023713 C15.6146776,35.0899392 16.7095264,34.8539553 17.789513,34.5870834 C18.8694996,34.3103275 19.9507247,34.0162742 21.013372,33.6579741 C23.1522904,32.9833814 25.2503377,32.1728818 27.3260917,31.3129614 C29.3882221,30.4209176 31.4367287,29.4893373 33.4109244,28.4156724 C34.4165999,27.9128166 35.3665423,27.3135905 36.3449705,26.7625496 C37.2911972,26.162088 38.2522862,25.5789236 39.1638345,24.9290413 C40.0753828,24.2779235 40.9881696,23.6280411 41.830361,22.8929081 C42.7208545,22.2096668 43.4763497,21.391754 44.2863397,20.625733 L44.2528997,20.6702117 C44.3841825,20.4663513 44.5129882,20.2192477 44.5885377,19.9906769 C44.6702798,19.7621062 44.6863806,19.5261223 44.6281703,19.4285164 C44.605877,19.3741536 44.56996,19.3370881 44.4845023,19.3037291 C44.423815,19.2567794 44.2912937,19.2555439 44.1909739,19.229598 C43.9482246,19.2172428 43.6881361,19.2431887 43.421855,19.2802542 L43.4837808,19.262957 C41.5838962,19.9301366 39.6567642,20.4441119 37.6875226,20.8110607 C35.7232351,21.1656543 33.7007373,21.3781633 31.6906246,21.107585 C31.1902639,21.0396315 30.6911417,20.9296704 30.2081201,20.7665821 C29.7263371,20.6047292 29.2507467,20.3959268 28.8308895,20.0994025 C28.6153876,19.957318 28.4085553,19.8053493 28.232686,19.613844 C28.0370003,19.4433426 27.8735161,19.2456597 27.7323252,19.0282086 C27.5676025,18.8280547 27.4573745,18.5945419 27.3521006,18.361029 C27.2257719,18.1349293 27.1626075,17.8878258 27.0969661,17.6407222 C27.015224,17.3973252 26.9755915,17.1477506 26.9545367,16.895705 C26.9260508,16.6448949 26.8851798,16.3940848 26.9037575,16.1420392 C26.8926109,15.637948 26.9396745,15.1400343 27.0201781,14.6458272 C27.0721958,14.1479136 27.2282489,13.6685327 27.3273302,13.1805032 L27.7707192,11.7621288 L27.9081946,11.8041364 Z" id="Path" fill="#FFFFFF" fill-rule="nonzero"></path>
    </g>
</svg>