<svg xmlns="http://www.w3.org/2000/svg" width="69" height="60" viewBox="0 0 69 60">
    <path fill="#FFF" fill-rule="nonzero" d="M68.883 15.91C68.123 8.987 63.233 2.28 56.298.496c-3.625-.93-7.522-.51-10.952.945-3.174 1.35-5.942 3.75-7.853 6.608a14.18 14.18 0 0 0-2.024 4.635c-.24 1.013-.398 2.086-.315 3.136a7.837 7.837 0 0 0 1.233 3.645 9.944 9.944 0 0 0-1.068 2.85c-.21 1.028-.18 2.04.113 2.993l-.339.36c-.203.225-.398.45-.594.683-.27-.293-.564-.563-.85-.818.316-1.747.045-3.6-.745-5.22-.12-.248-.248-.488-.376-.72.595-.87 1-1.876 1.204-2.888.33-1.62.03-3.353-.444-4.92-.489-1.613-1.301-3.12-2.302-4.471-2.09-2.813-4.964-5.018-8.252-6.24C19.274-.21 15.34-.375 11.82.75 8.608 1.778 5.93 3.93 3.892 6.564 1.582 9.549.266 13.172.032 16.93c-.24 3.885.873 7.59 2.558 11.056 1.565 3.21 3.573 6.203 5.747 9.038 2.129 2.775 4.446 5.408 6.89 7.913a87.877 87.877 0 0 0 3.288 3.196c.925.855 1.85 1.755 2.858 2.505.85.638 1.708 1.275 2.558 1.905a529.829 529.829 0 0 0 5.28 3.886c1.452 1.057 2.896 2.13 4.4 3.112.264.173.662.518 1.001.45.361-.075.745-.427 1.038-.63 1.565-1.08 3.084-2.235 4.604-3.383 1.7-1.282 3.392-2.572 5.077-3.862.918-.705 1.843-1.395 2.723-2.146 4.874-4.147 9.373-8.828 13.247-13.92 2.12-2.784 4.054-5.746 5.528-8.927.813-1.762 1.482-3.6 1.843-5.513.346-1.875.421-3.803.21-5.7zm-32.714 5.708a8.703 8.703 0 0 1 .64-1.56c.157.202.33.397.51.592-.6 1.283-.796 2.445-.6 3.548l-.069.045c-.24.165-.466.345-.684.54-.226-1.028-.12-2.093.203-3.165zm-5.017 6.09l.015.015.037.038.038.03c.196.157.369.315.527.48-.467.66-1.03 1.253-1.64 1.785-1.151.998-2.656 1.605-4.13 1.928-1.391.307-2.903.33-4.167-.405-1.407-.818-2.34-2.566-1.888-4.17.338-1.2 1.437-1.936 2.512-2.446 2.4-1.132 5.379-1.313 7.906-.517-.023.27-.068.532-.128.787a9.44 9.44 0 0 0-2.211-.33c-1.648-.052-3.408.255-4.724.833-2.061.907-2.317 2.13-2.287 2.775l.007.067c.136 1.11.91 1.95 2.302 2.498.888.36 2.069.39 3.333.09 1.218-.292 2.324-.862 3.023-1.56.587-.6 1.084-1.238 1.475-1.898zm-.301-8.37c.15-.173.293-.345.414-.518.158.233.316.473.458.72-.15.195-.308.375-.481.54a8.824 8.824 0 0 0-.391-.742zm-1.324 7.56c-.3.495-.677.968-1.136 1.425-.97.968-3.272 1.53-4.4 1.073l-.015-.007c-1.016-.398-1.136-.803-1.166-.99.007-.248.383-.653 1.21-1.02 1.528-.668 3.83-.893 5.507-.48zm.88-10.32a19.559 19.559 0 0 0-3.453-3.278c-2.745-2.01-6.235-2.91-9.605-2.28-2.084.39-4.574 1.522-5.416 3.607-.452 1.133-.316 2.483.105 3.6.384 1.013 1.076 1.883 1.918 2.55 1.7 1.358 3.904 1.996 6.025 2.326.873.135 1.76.217 2.648.24 1.204.03 2.422-.143 3.61-.323 1.295-.195 2.603-.57 3.762-1.207.15.45.263.9.316 1.35.022.195.037.39.045.585-1.595-.473-3.317-.555-4.95-.323-2.316.323-5.355 1.32-6.123 3.788-.481 1.553.249 3.248 1.392 4.32 1.106 1.036 2.573 1.366 4.047 1.276 2.926-.18 5.732-1.673 7.47-4.028.24.322.413.645.548.96a7.424 7.424 0 0 0-.015 2.273c.046.307.106.615.181.922a3.795 3.795 0 0 1-.278.645c-1.708-.877-3.746-1.087-5.56-.397-2.52.96-5.084 3.675-4.144 6.548.248.765.782 1.41 1.422 1.89.549.413 1.226.548 1.903.518 1.452-.068 2.836-.84 4.01-1.643.631-.435 1.225-.93 1.79-1.455-.437 1.365-.512 2.828-.226 4.305.135.69.39 1.35.67 2.003-1.046 2.79-3.017 4.755-4.484 6.12a104.328 104.328 0 0 1-6.243-5.107c-3.746-3.316-7.018-6.706-9.719-10.066C8.736 32.17 6.291 28.09 4.772 24.16c-.557-1.44-.918-2.798-1.069-4.013l-.007-.038c-.512-3.675.353-7.5 2.362-10.486 2.226-3.293 5.025-5.265 8.32-5.858.76-.135 1.541-.202 2.339-.202 1.038 0 2.068.12 3.076.345a14.126 14.126 0 0 1 4.935 2.19c3.618 2.708 5.544 5.73 5.882 9.256 0 .045.03.547-.203 1.222zm-4.679-2.243c-2.482-1.598-5.288-2.22-7.717-1.703-.61.09-1.618.375-2.475.863-1.655.937-2.001 2.152-2.001 3 0 1.05.429 1.98 1.271 2.775 1.106 1.043 2.904 1.815 5.356 2.31 1.798.36 3.565.465 4.25.435l.045-.007.406-.045c1.256-.128 2.67-.27 4.1-1.125.173-.098.33-.195.489-.3.12.217.225.435.323.652a9.22 9.22 0 0 1-2.083.855c-.94.27-1.919.398-2.889.503-.564.06-1.12.135-1.685.142a19.26 19.26 0 0 1-2.377-.142c-2.084-.255-4.25-.81-5.995-2.018-.873-.6-1.58-1.41-2-2.378-.46-1.05-.595-2.422-.091-3.472.519-1.095 1.595-1.808 2.663-2.31a9.45 9.45 0 0 1 2.926-.818c1.858-.21 3.7.015 5.438.682 1.565.6 2.972 1.53 4.213 2.64.812.72 1.557 1.523 2.241 2.37-.098.173-.21.36-.346.54a15.932 15.932 0 0 0-4.062-3.45zm2.723 4.695a9.248 9.248 0 0 1-.398.248l-.015.007c-1.084.653-2.19.765-3.363.885-.128.015-.263.03-.39.038-.467.022-2.017-.053-3.777-.398-2.084-.412-3.626-1.057-4.468-1.845-.474-.443-.7-.923-.7-1.463 0-1.372 2.332-1.995 2.956-2.085l.06-.015a6.42 6.42 0 0 1 1.392-.15c2.234 0 4.175 1.073 4.995 1.605l.03.015c1.482.878 2.738 1.973 3.678 3.158zm3.445 6.96c.076-.254.136-.51.181-.772.286.18.564.375.827.585-.015.053-.022.105-.037.158-.06.225-.128.442-.21.66a6.155 6.155 0 0 0-.249-.21 3.9 3.9 0 0 0-.512-.42zm-5.085 8.837l-.052.03c-2.25 1.395-2.437 2.94-2.415 3.532.03.795.46 1.485 1.144 1.846.94.487 2.189.315 3.43-.473.932-.593 2.076-1.508 3.091-2.498.128.18.249.383.354.6-.384.383-.782.75-1.174 1.103-1.045.937-2.279 1.763-3.61 2.235-.625.225-1.324.368-1.986.255-.775-.135-1.392-.742-1.783-1.402-.368-.623-.459-1.373-.346-2.078.12-.803.49-1.463.993-2.093.79-.99 1.993-1.808 3.204-2.19 1.565-.495 3.22-.263 4.65.457-.121.18-.257.368-.415.563-.037-.022-.082-.045-.12-.067-1.46-.788-3.257-.72-4.965.18zm3.792 1.267c-.835.803-1.79 1.59-2.67 2.145-.79.503-1.37.525-1.618.398-.068-.038-.165-.113-.173-.308-.015-.427.376-1.185 1.542-1.92.64-.33 1.798-.765 2.919-.315zm2.174 2.843c.218.705.368 1.53.443 2.46 0 1.088-.15 2.085-.406 3a8.927 8.927 0 0 1-.459-1.92c-.135-1.192-.007-2.415.422-3.54zm.744 8.566c.068.135.143.262.218.397.113.203.226.398.346.593a30.97 30.97 0 0 1-1.97 2.565 40.166 40.166 0 0 1-1.866 2.063c-.248-.173-.496-.36-.752-.548 1.249-1.177 2.866-2.835 4.024-5.07zm.978-11.124c.12.173.24.345.369.51-.203.33-.376.69-.52 1.065a9.327 9.327 0 0 0-.375-.892c.18-.218.36-.45.526-.683zm-.293-1.875c.173-.315.323-.645.436-.998.09.255.196.503.316.765a8.67 8.67 0 0 1-.369.75 6.92 6.92 0 0 0-.24-.232 5.04 5.04 0 0 1-.143-.285zm.94 12.279c-.053.09-.105.187-.158.277-.158.278-.323.555-.496.825-.158-.27-.316-.54-.467-.817l-.15-.285c.24-.533.451-1.095.624-1.688.075.24.166.495.263.75.12.308.249.623.384.938zm-1.452-10.599l-.135.158c-.098-.15-.203-.3-.316-.435.196-.248.376-.488.542-.728.097.195.203.383.315.57a7.33 7.33 0 0 0-.406.435zm.467 13.336c.105-.142.21-.285.308-.435.64.975 1.362 1.906 2.129 2.79.459.533.94 1.05 1.429 1.56-1.715 1.26-2.979 2.116-3.558 2.483-.602-.345-1.91-1.177-3.663-2.415a35.921 35.921 0 0 0 3.355-3.983zm.714-1.027c.218-.323.421-.653.617-.99.91 1.8 2.159 3.488 3.739 5.04-.226.173-.452.338-.662.503-1.37-1.41-2.633-2.903-3.694-4.553zm10.02-11.116c.812-.638 1.715-1.493 1.429-2.475-.301-1.05-1.64-1.2-2.625-1.313l-.173-.023-.06-.007c-2.58-.12-4.672.247-6.244 1.11-.068-.112-.135-.218-.195-.33.248-.135.496-.263.744-.383.91-.435 1.888-.75 2.881-.922.903-.158 1.88-.143 2.791-.083 1.106.075 2.324.285 3.25.93.353.24.601.585.677 1.006.097.525-.211 1.08-.482 1.5-1.76 2.707-6.04 4.425-8.951 2.535a8.751 8.751 0 0 1-1.475-1.215c.136-.21.271-.368.384-.495 2.437 2.197 5.439 2.257 8.049.165zm-6.537-1.245c1.249-.6 2.919-.855 5.002-.758.045.008.098.008.143.015.203.023.534.06.805.113-.12.12-.293.27-.534.465l-.008.007c-1.068.848-3.144 1.958-5.408.158zm3.64-3.848c-.887-.03-1.782.142-2.625.39-.91.262-1.812.63-2.655 1.095a7.404 7.404 0 0 1-.534-1.365c.21-1.02.301-2.04.068-3.045.173-.473.429-.938.775-1.38.917 1.034 2.023 1.905 3.181 2.647 1.272.818 2.663 1.448 4.13 1.785-.775-.097-1.55-.097-2.34-.127zm-5.596-6.286a4.439 4.439 0 0 1-.233-.51 7.75 7.75 0 0 1 .715-.6c.067.203.15.405.24.593-.255.15-.496.322-.722.517zm.128 16.734a7.528 7.528 0 0 1-.338 1.695c-.474-1.537-.527-2.67-.527-3.075v-.18c-.015-1.132.15-1.965.376-2.588.459 1.32.602 2.746.49 4.148zm-1.053-6.66a8.894 8.894 0 0 0-.323-.42c.12-.105.24-.203.368-.3.083.135.158.27.248.405a6.042 6.042 0 0 0-.293.315zm1.06 9.338c.008-.007.008-.015.016-.03.594-1.44.767-2.985.647-4.538a9.699 9.699 0 0 0-.346-1.92c.248.202.511.39.767.562 1.264.84 2.888 1.013 4.355.773 1.805-.292 3.528-1.305 4.762-2.625.774-.833 1.655-2.078 1.18-3.27-.398-.983-1.481-1.463-2.437-1.74a1.727 1.727 0 0 0-.21-.053l.158.022c1.557.188 3.227-.007 4.558-.885a4.764 4.764 0 0 0 1.828-2.287c.489-1.268.09-2.738-.91-3.646-1.03-.93-2.28-1.44-3.588-1.822 1.625-.12 3.204-.413 4.716-1.066a11.07 11.07 0 0 0 3.536-2.377c.782-.795 1.429-1.733 1.828-2.776.157-.405.248-.832.285-1.267.053-.683-.579-1.41-1.023-1.883-1.15-1.245-2.835-2.04-4.46-2.468-1.88-.495-3.867-.412-5.74.06-1.858.473-3.603 1.35-5.19 2.4-.94.623-1.85 1.328-2.678 2.108-.293-.997-.218-1.8-.218-1.807v-.023c.406-4.26 4.227-7.553 5.867-8.776a13.8 13.8 0 0 1 4.935-2.19 13.72 13.72 0 0 1 3.076-.345c.798 0 1.58.068 2.347.21 3.295.593 6.093 2.558 8.312 5.85 2.016 2.993 2.874 6.811 2.362 10.494l.015.053c-.143 1.095-.481 2.377-1.083 4.035-2.88 7.943-10.599 16.022-16.564 21.407a128.977 128.977 0 0 1-6.965 5.843c-2.212-2.123-3.445-4.26-4.137-6.023zm2.505-24.167a5.7 5.7 0 0 1 .301-.488c.858.653 1.994 1.215 3.49 1.575 1.73.405 3.416.42 5.823.045l.037-.007.038-.008c2.482-.615 4.07-1.62 4.965-2.355 1.233-1.012 1.94-2.168 1.94-3.173v-.172l-.067-.158c-.527-1.312-1.715-1.942-2.422-2.325l-.038-.015c-2.768-1.328-5.912-1.042-9.606.885-1.015.525-2.783 1.65-4.25 3.06a5.291 5.291 0 0 1-.406-.727c.06-.053.113-.113.173-.165a20.303 20.303 0 0 1 3.964-2.888c3.415-1.913 7.703-2.67 11.276-.69.677.375 1.324.81 1.873 1.365.286.293.526.615.722.968.15.262.196.42.15.712-.143.968-.647 1.86-1.233 2.626-1.896 2.497-5.018 3.682-8.049 3.967-.888.083-1.775.12-2.663.053-.993-.075-1.956-.338-2.903-.623-1.099-.337-2.167-.802-3.115-1.462zm1.986 1.762c-.158.008-.316.008-.474.015a8.97 8.97 0 0 0-2.106.36c0-.457.098-.96.316-1.53.707.473 1.475.848 2.264 1.155zm-.504-3.607a17.649 17.649 0 0 1 3.822-2.753c1.512-.788 2.866-1.26 4.13-1.425 1.398-.188 2.655-.008 3.836.555.624.33 1.203.682 1.496 1.215-.195.817-1.812 2.708-5.476 3.615-2.136.33-3.618.323-5.085-.022-1.083-.263-1.993-.66-2.723-1.185zm2.829 11.146c2.46.712 4.445.622 5.574-.248 1.12-.862 1.376-2.37.586-3.428-.76-1.005-2.4-1.365-4.295-1.785l-.248-.052c-2.505-.555-4.543-.63-6.16-.233a3.434 3.434 0 0 1-.287-.772c1.377-.466 2.95-.428 4.363-.308 1.76.15 3.55.593 5.213 1.178 1.565.547 3.603 1.815 3.257 3.765-.143.795-.602 1.523-1.18 2.078-1.061 1.012-2.58 1.305-3.995 1.267-1.948-.052-3.829-.825-5.461-1.83-1.196-.735-2.34-1.635-3.265-2.7.196-.18.407-.338.647-.48.045.052.083.105.128.157l.03.038.03.03c1.866 1.86 3.333 2.828 5.063 3.323zm-3.31-4.14c1.211-.143 2.715-.016 4.536.39l.248.052c1.219.27 2.889.637 3.242 1.11.226.3.045.697-.24.915-.497.383-1.798.57-3.965-.06-1.301-.375-2.407-1.065-3.821-2.408zm-2.392-6.361a7.41 7.41 0 0 1-.489-.6c.135-.21.27-.42.421-.615.136.217.279.435.452.66-.136.18-.264.367-.384.555zm-1.97 5.94c.074.165.15.323.24.48-.03.03-.06.068-.09.098l-.008.007a7.92 7.92 0 0 0-.542.728c-.112-.15-.225-.3-.346-.443.241-.292.482-.585.745-.87zm-1.167 1.418c.136.172.271.352.391.532a6.586 6.586 0 0 0-.466 1.125 7.18 7.18 0 0 0-.444-.862c.15-.278.331-.54.52-.795zm-1.053-1.118c.203.195.406.39.602.6a9.193 9.193 0 0 0-.49.713 8.264 8.264 0 0 0-.398-.473c.106-.277.203-.555.286-.84zm-.654-4.47c.33 1.035.398 2.16.24 3.24a10.9 10.9 0 0 0-.88-.562c.038-.51.03-1.028-.037-1.546a9.074 9.074 0 0 0-.587-2.22c.195-.18.376-.375.542-.577.285.54.541 1.095.722 1.665zm-6.793 31.473a581.302 581.302 0 0 1-3.437-2.55c-1.189-.886-2.25-1.816-3.37-2.836-5.01-4.598-9.644-9.766-13.345-15.474-1.978-3.052-3.76-6.353-4.663-9.886-.963-3.765-.67-7.785.774-11.386C3.267 7.922 5.63 4.966 8.548 3.04 11.564 1.05 15.22.369 18.785.789c3.709.442 7.079 2.175 9.75 4.74 2.474 2.385 4.264 5.468 4.625 8.926a7.16 7.16 0 0 1-1.015 4.5c-.158-.247-.316-.495-.482-.735.865-1.538.768-2.918.752-3.008v-.007c-.383-4.066-2.55-7.516-6.611-10.546l-.016-.015a15.777 15.777 0 0 0-5.588-2.49 15.543 15.543 0 0 0-6.146-.158c-3.791.683-6.988 2.91-9.5 6.623-2.257 3.353-3.228 7.636-2.656 11.739v.015c.173 1.365.572 2.857 1.181 4.433 1.617 4.185 4.235 8.52 7.778 12.878 2.836 3.496 6.258 7.006 10.177 10.426a107.966 107.966 0 0 0 5.627 4.59l-.647.586zm1.482 1.095l.64-.57c.278.202.541.397.797.585-.21.195-.429.382-.647.57-.256-.195-.527-.39-.79-.585zm10.508 2.468c-.737.547-1.474 1.087-2.219 1.62-.42.3-.835.615-1.286.862a4.513 4.513 0 0 1-.406-.247c-.594-.383-1.174-.795-1.753-1.2-1.173-.825-2.332-1.673-3.498-2.52.219-.188.437-.383.655-.578.165.12.33.232.489.345a65.925 65.925 0 0 0 2.873 1.913c1.28.795 1.407.795 1.648.795.27 0 .466-.105.827-.323.226-.135.534-.337.888-.577a78.318 78.318 0 0 0 2.986-2.116c.045-.03.083-.067.128-.097.218.21.444.42.662.63l-1.994 1.493zm2.513-1.89c-.218-.21-.444-.42-.662-.63.233-.18.481-.368.737-.563l.715.6c-.264.195-.527.397-.79.592zM68.31 19.09c-.21 3.788-1.707 7.336-3.565 10.599-1.768 3.112-3.912 6.008-6.206 8.753a95.192 95.192 0 0 1-6.943 7.41c-1.565 1.508-3.16 3.038-4.874 4.366-.392.3-.76.585-1.196.923-.73.562-1.46 1.117-2.19 1.672-.187.143-.368.285-.556.428l-.715-.6a130.085 130.085 0 0 0 6.334-5.303c3.994-3.57 7.432-7.103 10.223-10.516 3.482-4.26 5.935-8.311 7.289-12.031.654-1.808 1.015-3.166 1.173-4.418v-.015c.572-4.11-.399-8.394-2.655-11.746-2.505-3.713-5.702-5.941-9.493-6.624a14.897 14.897 0 0 0-2.663-.232c-1.174 0-2.34.135-3.483.39-2.008.465-3.941 1.32-5.589 2.498l-.015.015c-2.121 1.582-3.776 3.36-4.927 5.28-1.188 1.988-1.564 3.69-1.662 4.77-.015.166-.143 1.606.526 3.218.038.083.076.173.113.263a10.5 10.5 0 0 0-.474.66 7.144 7.144 0 0 1-.97-3.18c-.068-1.14.158-2.31.459-3.406.459-1.642 1.264-3.157 2.264-4.53 2.099-2.873 5.092-5.093 8.462-6.218C50.484.346 54.41.338 57.87 1.688c3.175 1.238 5.74 3.683 7.59 6.489 2.106 3.21 3.062 7.095 2.851 10.913z"/>
</svg>
