<?xml version="1.0" encoding="UTF-8"?>
<svg width="304px" height="126px" viewBox="0 0 304 126" version="1.1" xmlns="http://www.w3.org/2000/svg" xmlns:xlink="http://www.w3.org/1999/xlink">
    <!-- Generator: Sketch 58 (84663) - https://sketch.com -->
    <title>filipartners--apcc</title>
    <desc>Created with Sketch.</desc>
    <g id="filipartners--apcc" stroke="none" stroke-width="1" fill="none" fill-rule="evenodd">
        <g id="Group-8" transform="translate(27.000000, 19.000000)" fill="#FF665C" fill-rule="nonzero">
            <path d="M123.973473,25.2005456 L118.907958,39.1638348 L129.038195,39.1638348 L123.973473,25.2005456 Z M116.765191,45.1908824 L114.311223,52 L107,52 L119.637259,18 L128.361157,18 L141,52 L133.687985,52 L131.232434,45.1908824 L116.765191,45.1908824 L116.765191,45.1908824 Z" id="Shape"></path>
            <path d="M154.093301,24.0233961 L154.093301,33.9203791 L162.637856,33.9203791 C165.916012,33.9203791 167.902625,32.401757 167.902625,28.9730667 C167.902625,25.5428043 165.916012,24.0233961 162.637856,24.0233961 L154.093301,24.0233961 Z M162.852977,39.8494509 L154.092486,39.8494509 L154.092486,52 L147,52 L147,18 L162.694081,18 C170.482452,18 175,22.3082649 175,28.9730667 C175,35.2943706 170.21518,39.8494509 162.852977,39.8494509" id="Shape"></path>
            <path d="M196.521429,53 C186.66607,53 179,45.0984754 179,35.0039887 C179,24.9071087 186.66607,17 196.521429,17 C204.707741,17 210.755366,21.4250133 213,28.484134 L205.54266,28.484134 C203.925005,25.3530402 200.693649,23.0140932 196.521429,23.0140932 C190.574216,23.0140932 185.884124,28.484134 185.884124,35.0031909 C185.884124,41.5645276 190.575006,47.0353661 196.521429,47.0353661 C200.639886,47.0353661 203.925005,44.6014891 205.54266,41.4648112 L212.947027,41.4648112 C210.653373,48.4776635 204.552775,53 196.521429,53" id="Path"></path>
            <path d="M234.521429,53 C224.66686,53 217,45.0984754 217,35.0039887 C217,24.9071087 224.66686,17 234.521429,17 C242.708532,17 248.756157,21.4250133 251,28.484134 L243.54266,28.484134 C241.925796,25.3530402 238.69444,23.0140932 234.521429,23.0140932 C228.576588,23.0140932 223.884124,28.484134 223.884124,35.0031909 C223.884124,41.5645276 228.577378,47.0353661 234.521429,47.0353661 C238.640676,47.0353661 241.925796,44.6014891 243.54266,41.4648112 L250.947027,41.4648112 C248.655745,48.4776635 242.552775,53 234.521429,53" id="Path"></path>
            <path d="M36.9882338,17 C36.9882338,17 25.3412623,33.0965125 0,47.6217045 C0,47.6217045 4.3660455,53.4808255 14.6763764,49.7667951 C24.9851385,46.0551455 36.5505311,30.9363436 37,17.6856672 L36.9882338,17 Z" id="Path"></path>
            <path d="M40.2382887,19 C40.2382887,19 46.4795506,26.0220525 44.6712568,40.7750428 C42.8962537,55.2443218 33.4923691,52.5250939 31.8278308,49.9465428 C30.4364282,47.7837349 30.966054,45.9777275 32.18495,43.3811006 C33.4030893,40.7829019 41.7189712,29.3134185 40.35178,20.3061725 L40.2382887,19 Z" id="Path"></path>
            <path d="M44,17 C44,17 50.1813074,19.8924092 55.8726525,21.9018641 C61.5639976,23.9113191 68.2336791,26.3634411 70.5421402,31.4596662 C72.6528692,36.1195708 67.0115527,38.0806337 62.8893576,36.4138889 C60.8453333,35.5888462 58.7671625,34.3052702 53.0766115,27.6858893 C47.3852664,21.0680951 44,17 44,17" id="Path"></path>
            <path d="M50,16 C50,16 72.9818455,17.4156893 79.8889531,17.8942774 C84.4465477,18.2114624 100.898701,18.4917095 103.375344,21.5190201 C105.790806,24.4692426 100.627756,27.3062422 97.6489521,27.6852582 C94.9641348,28.0233213 87.983133,28.9917395 75.2534917,24.2492206 C62.5206721,19.5107167 50,16 50,16" id="Path"></path>
            <path d="M41.1213545,15 L37,0.710473131 L53,0 C53,0 51.6298689,4.63439913 46.3020161,6.9858009 C42.2542572,8.77208893 41.1424936,10.7729181 41.115091,14.7590299" id="Path"></path>
            <path d="M77.4978907,64.432246 L76.2947408,67.5750788 L78.6807912,67.5750788 L77.4978907,64.432246 Z M76.3985188,62 L78.5854505,62 L82,71 L79.9700009,71 L79.1743696,68.8866366 L75.8230993,68.8866366 L75.0299991,71 L73,71 L76.3985188,62 Z" id="Shape"></path>
            <path d="M84.1169294,69.0498439 C84.4804661,69.3056551 84.8094585,69.4894183 85.0981494,69.5906095 C85.3876628,69.6934197 85.6878684,69.7468486 85.9987663,69.7468486 C86.405072,69.7468486 86.7044551,69.6772291 86.8977382,69.536371 C87.0910212,69.4003701 87.188074,69.2392737 87.188074,69.0619868 C87.188074,68.8976524 87.1017135,68.7422227 86.9273475,68.6013646 C86.753804,68.4629351 86.3771076,68.3447438 85.7989034,68.2540766 C84.8415353,68.0962183 84.1638108,67.8290737 83.7673749,67.4534521 C83.370939,67.0762114 83.1735435,66.6277322 83.1735435,66.1055858 C83.1735435,65.5534868 83.4309801,65.0645311 83.9483208,64.6387186 C84.4648389,64.2104776 85.138451,64 85.9724469,64 C86.4503084,64 86.9002056,64.0655719 87.3254284,64.1967156 C87.7506511,64.331907 88.2104181,64.5844802 88.7063742,64.9560541 L87.6379712,65.7874407 C87.124743,65.5032959 86.7710761,65.3292471 86.579438,65.2628657 C86.3836875,65.1981034 86.1887594,65.1681508 85.9938314,65.1681508 C85.6623715,65.1681508 85.3975326,65.2474847 85.1984921,65.4110096 C84.9961618,65.5688678 84.897464,65.7550596 84.897464,65.9550133 C84.897464,66.1387765 84.9788897,66.3023014 85.1433859,66.4431595 C85.3087046,66.5791604 85.7158328,66.7167804 86.3672378,66.8438765 C87.2670322,67.0187348 87.8929404,67.231641 88.2515422,67.4777379 C88.7483208,67.8185498 89,68.2694576 89,68.8336995 C89,69.4335608 88.7417409,69.9443738 88.2244003,70.3677576 C87.7078821,70.7911414 86.9594243,71 85.9790267,71 C85.3638108,71 84.8275531,70.9069041 84.3661412,70.7134266 C83.9055517,70.5199491 83.4507197,70.2066613 83,69.771944 L84.1169294,69.0498439 Z" id="Path"></path>
            <path d="M90.1167763,69.0498439 C90.4810855,69.3056551 90.8092105,69.4894183 91.0986842,69.5906095 C91.3881579,69.6934197 91.6883224,69.7468486 92,69.7468486 C92.4046053,69.7468486 92.7039474,69.6772291 92.8996711,69.536371 C93.0904605,69.4003701 93.1875,69.2392737 93.1875,69.0619868 C93.1875,68.8976524 93.1011513,68.7422227 92.9268092,68.6013646 C92.7532895,68.4629351 92.3782895,68.3447438 91.7985197,68.2540766 C90.8421053,68.0962183 90.1636513,67.8290737 89.7689145,67.4534521 C89.3725329,67.0762114 89.1743421,66.6277322 89.1743421,66.1055858 C89.1743421,65.5534868 89.4325658,65.0645311 89.9481908,64.6387186 C90.4646382,64.2104776 91.1398026,64 91.9728618,64 C92.4498355,64 92.9004934,64.0655719 93.3256579,64.1967156 C93.75,64.331907 94.2088816,64.5844802 94.7064145,64.9560541 L93.6381579,65.7874407 C93.125,65.5032959 92.7722039,65.3292471 92.5789474,65.2628657 C92.3856908,65.1981034 92.1883224,65.1681508 91.9942434,65.1681508 C91.6636513,65.1681508 91.3988487,65.2474847 91.1981908,65.4110096 C90.9983553,65.5688678 90.8980263,65.7550596 90.8980263,65.9550133 C90.8980263,66.1387765 90.9786184,66.3023014 91.1447368,66.4431595 C91.3092105,66.5791604 91.7171053,66.7167804 92.3675987,66.8438765 C93.2672697,67.0187348 93.8947368,67.231641 94.2516447,67.4777379 C94.7491776,67.8185498 95,68.2694576 95,68.8336995 C95,69.4335608 94.7417763,69.9443738 94.2245066,70.3677576 C93.7072368,70.7911414 92.9588816,71 91.9794408,71 C91.3659539,71 90.8289474,70.9069041 90.3675987,70.7134266 C89.90625,70.5199491 89.4523026,70.2066613 89,69.771944 L90.1167763,69.0498439 Z" id="Path"></path>
            <path d="M99.5157029,65.1310926 C99.0707876,65.1310926 98.7209621,65.2806653 98.4662263,65.5846616 C98.1242522,65.9848695 97.9576271,66.6243936 97.9576271,67.508085 C97.9576271,68.3133518 98.1059322,68.8890044 98.4112662,69.2326172 C98.7113659,69.5754216 99.0742772,69.7460152 99.5,69.7460152 C99.7983549,69.7460152 100.070538,69.6627397 100.315678,69.4961885 C100.56169,69.3280203 100.736167,69.0887041 100.845214,68.7806653 C101.001371,68.3440748 101.080758,67.8549319 101.080758,67.3091938 C101.080758,66.9000924 101.015329,66.5176715 100.885344,66.1643567 C100.757104,65.8102333 100.567797,65.5515131 100.320912,65.3841534 C100.077517,65.2135597 99.8079511,65.1310926 99.5157029,65.1310926 M99.3159272,64 C100.462238,64 101.36341,64.2999538 102.020314,64.8982444 C102.672856,65.499769 103,66.3519289 103,67.4571495 C103,68.5680296 102.668495,69.4395934 102.008973,70.0621391 C101.346834,70.6854932 100.519816,71 99.5287886,71 C98.5787637,71 97.7517448,70.7032802 97.0512213,70.1114576 C96.3489531,69.5204435 96,68.6399861 96,67.46766 C96,66.3600139 96.3140578,65.503003 96.9430459,64.9022869 C97.5702891,64.3015708 98.3624128,64 99.3159272,64" id="Shape"></path>
            <path d="M110,69.0698589 C109.821918,69.4843858 109.650282,69.7944714 109.484287,70.0017349 C109.227236,70.3199167 108.913779,70.5668517 108.550363,70.7393014 C108.185334,70.91418 107.755036,71 107.253022,71 C106.178888,71 105.336825,70.6097617 104.726027,69.8203794 C104.240129,69.1913023 104,68.425399 104,67.5275272 C104,66.475827 104.319098,65.6249133 104.962127,64.9739764 C105.603546,64.3238492 106.388396,64 107.317486,64 C107.766317,64 108.157937,64.0761046 108.485093,64.2291233 C108.815471,64.382142 109.103948,64.5958825 109.352135,64.8679158 C109.528606,65.0589868 109.714746,65.3480222 109.915391,65.7309739 L108.383562,66.1187833 C108.214343,65.8507981 108.041902,65.6556789 107.86382,65.5399028 C107.686543,65.4249364 107.484287,65.3642147 107.257051,65.3642147 C106.908944,65.3642147 106.609186,65.5172334 106.358582,65.8192228 C106.107172,66.1212121 105.981467,66.6077955 105.981467,67.272496 C105.981467,67.789845 106.048348,68.2561878 106.184529,68.6699052 C106.274778,68.9670368 106.424658,69.1961601 106.629331,69.3516077 C106.834005,69.5062457 107.063658,69.5855887 107.31668,69.5855887 C107.587429,69.5855887 107.834811,69.4924821 108.058824,69.3038399 C108.284448,69.1160074 108.460919,68.8180662 108.585818,68.4027296 L110,69.0698589 Z" id="Path"></path>
            <path d="M111,71 L113,71 L113,64.6856544 L111,64.6856544 L111,71 Z M111,63.5931208 L113,63.5931208 L113,62 L111,62 L111,63.5931208 Z" id="Shape"></path>
            <path d="M120.207595,69.0937753 L120.207595,67.4009701 C119.173085,67.5844786 118.463158,67.8391269 118.077815,68.1632983 C117.778814,68.4090542 117.629314,68.6831043 117.629314,68.9878739 C117.629314,69.236055 117.713258,69.4405821 117.884344,69.6030719 C118.057029,69.763945 118.274484,69.843169 118.536709,69.843169 C118.762159,69.843169 119.016389,69.7825384 119.292205,69.65481 C119.575217,69.5286985 119.877415,69.3419563 120.207595,69.0937753 M116.200666,65.222312 C116.550833,64.8278092 116.970553,64.5214228 117.459827,64.3152789 C117.948301,64.1042846 118.47435,64 119.031579,64 C119.613591,64 120.123651,64.0994341 120.564157,64.2974939 C120.883944,64.4462409 121.162159,64.6936136 121.3996,65.0379951 C121.634644,65.3848019 121.752165,65.8172999 121.752165,66.3411479 L121.752165,69.4931285 C121.752165,69.69038 121.778548,69.9320938 121.829714,70.2085691 C121.880879,70.4939369 121.937642,70.7146322 122,70.8795473 L120.434644,70.8795473 C120.360293,70.6556184 120.303531,70.4236055 120.265956,70.1859337 C119.94537,70.4551334 119.613591,70.6580437 119.26982,70.7954729 C118.92525,70.9320938 118.567888,71 118.200133,71 C117.56056,71 117.032112,70.8140663 116.617988,70.4438157 C116.203864,70.0743735 116,69.6362167 116,69.1285368 C116,68.7687955 116.094337,68.4308812 116.283811,68.1164107 C116.475683,67.7962813 116.755496,67.5165724 117.122452,67.2805174 C117.490207,67.0420372 117.954697,66.8520614 118.511126,66.7073565 C118.930846,66.5974131 119.49527,66.5092967 120.206795,66.432498 C120.206795,66.1479386 120.180413,65.9409863 120.127648,65.8116411 C120.0501,65.6143897 119.913391,65.458367 119.718321,65.3484236 C119.524051,65.2368634 119.284211,65.1794665 118.9996,65.1794665 C118.31046,65.1794665 117.732445,65.4785772 117.264757,66.0800323 L116.200666,65.222312 Z" id="Shape"></path>
            <path d="M129,69.0698589 C128.821966,69.4843858 128.647959,69.7944714 128.482009,70.0017349 C128.225027,70.3199167 127.914071,70.5668517 127.549946,70.7393014 C127.184211,70.91418 126.753222,71 126.251343,71 C125.179108,71 124.335661,70.6097617 123.727444,69.8203794 C123.24087,69.1913023 123,68.425399 123,67.5275272 C123,66.475827 123.319817,65.6249133 123.961063,64.9739764 C124.603115,64.3238492 125.387755,64 126.317401,64 C126.766917,64 127.156821,64.0761046 127.484694,64.2291233 C127.811762,64.382142 128.102578,64.5958825 128.351504,64.8679158 C128.52551,65.0589868 128.714823,65.3480222 128.912191,65.7309739 L127.38319,66.1187833 C127.213212,65.8507981 127.039205,65.6556789 126.862782,65.5399028 C126.687164,65.4249364 126.484157,65.3642147 126.257787,65.3642147 C125.908969,65.3642147 125.609291,65.5172334 125.358754,65.8192228 C125.107411,66.1212121 124.98174,66.6077955 124.98174,67.272496 C124.98174,67.789845 125.048604,68.2561878 125.183942,68.6699052 C125.274973,68.9670368 125.425618,69.1961601 125.630236,69.3516077 C125.834049,69.5062457 126.063641,69.5855887 126.317401,69.5855887 C126.588077,69.5855887 126.835392,69.4924821 127.06015,69.3038399 C127.284103,69.1160074 127.460526,68.8180662 127.586198,68.4027296 L129,69.0698589 Z" id="Path"></path>
            <path d="M130,71 L132,71 L132,64.6856544 L130,64.6856544 L130,71 Z M130,63.5931208 L132,63.5931208 L132,62 L130,62 L130,63.5931208 Z" id="Shape"></path>
            <path d="M137.925829,62 L140.235602,62 L137.457243,63.8314086 L135.991274,63.8314086 L137.925829,62 Z M137.516579,65.492877 C137.071553,65.492877 136.719895,65.6332294 136.465096,65.918486 C136.123909,66.2940234 135.958115,66.8941246 135.958115,67.7233415 C135.958115,68.4789682 136.104712,69.0191351 136.411867,69.3415662 C136.712042,69.6632386 137.076789,69.8233162 137.5,69.8233162 C137.800175,69.8233162 138.069808,69.7451741 138.316754,69.5888898 C138.562827,69.4310883 138.73822,69.2065245 138.848168,68.9174745 C139.004363,68.5077974 139.081152,68.0488072 139.081152,67.5367108 C139.081152,67.1528281 139.016579,66.7939813 138.888307,66.4624463 C138.757417,66.1301526 138.569808,65.8873809 138.322862,65.730338 C138.078534,65.5702605 137.808028,65.492877 137.516579,65.492877 M137.315881,64.4315097 C138.464223,64.4315097 139.363874,64.7129731 140.02007,65.2743825 C140.67452,65.8388266 141,66.6384557 141,67.6755458 C141,68.7179466 140.672775,69.5357835 140.010471,70.1199528 C139.34555,70.7048807 138.52007,71 137.529668,71 C136.578534,71 135.753927,70.7215713 135.054101,70.1662311 C134.350785,69.6116497 134,68.7854674 134,67.6854084 C134,66.6460423 134.312391,65.8418612 134.942408,65.2781758 C135.569808,64.7144904 136.360384,64.4315097 137.315881,64.4315097" id="Shape"></path>
            <path d="M150.704472,66.1549606 C150.284161,65.8438533 149.869904,65.6105227 149.45997,65.4557316 C149.054361,65.301703 148.653076,65.2246886 148.261305,65.2246886 C147.62046,65.2246886 147.085125,65.4328561 146.65876,65.8476658 C146.234124,66.2617131 146.022239,66.8778277 146.022239,67.6944845 C146.022239,68.5477421 146.239313,69.1874947 146.676921,69.6106922 C147.10934,70.0331272 147.639486,70.2443447 148.269088,70.2443447 C148.653941,70.2443447 149.050037,70.1665678 149.457376,70.0072016 C149.86385,69.8501229 150.280702,69.6145048 150.705337,69.2980598 L150.705337,66.1549606 L150.704472,66.1549606 Z M150.704472,62 L151.724117,62 L151.724117,68.9099382 C151.724117,69.2706092 151.752656,69.642718 151.808006,70.0247395 C151.863356,70.4105736 151.928218,70.6927052 152,70.871897 L150.944033,70.871897 C150.832468,70.5478268 150.775389,70.2557824 150.76847,69.9980513 C150.31443,70.3312717 149.866444,70.5790901 149.422782,70.7476065 C148.98085,70.9138355 148.543242,71 148.114282,71 C147.261552,71 146.529034,70.7125307 145.920188,70.1375921 C145.307882,69.5626536 145,68.7642972 145,67.7455732 C145,66.7047361 145.307018,65.8934169 145.927106,65.3154283 C146.541142,64.7389647 147.272795,64.4522579 148.127255,64.4522579 C148.564863,64.4522579 148.986039,64.5285097 149.396837,64.6802508 C149.811959,64.836567 150.245243,65.0790477 150.704472,65.4160807 L150.704472,62 Z" id="Shape"></path>
            <path d="M158.989663,66.7647881 C158.917845,66.1306474 158.691785,65.6326269 158.302503,65.2723568 C157.918118,64.9129017 157.480686,64.7295063 156.992655,64.7295063 C156.403428,64.7295063 155.926007,64.9463204 155.571817,65.3726129 C155.216812,65.8005356 155.029924,66.2626921 155.006257,66.7647881 L158.989663,66.7647881 Z M159.999184,69.3543316 C159.561752,69.9085934 159.093308,70.3226595 158.600381,70.5940848 C158.103373,70.8622497 157.590044,71 157.061208,71 C156.219804,71 155.502448,70.6878202 154.900163,70.0650908 C154.298694,69.4399162 154,68.5718444 154,67.4576153 C154,66.3882161 154.296246,65.5421518 154.889554,64.9267583 C155.484494,64.3081043 156.180631,64 156.977149,64 C157.505985,64 158.014418,64.1450862 158.508161,64.4409641 C158.997008,64.7335817 159.365071,65.1321612 159.610718,65.6326269 C159.854733,66.1322776 159.982862,66.781905 160,67.5847694 L154.968716,67.5847694 C154.990751,68.1162087 155.075626,68.5555426 155.227421,68.8962506 C155.423286,69.3478109 155.691785,69.6746623 156.028836,69.8825105 C156.364255,70.0887285 156.68988,70.1906148 157.003264,70.1906148 C157.788357,70.1906148 158.524483,69.7366092 159.209195,68.8261528 L159.999184,69.3543316 Z" id="Shape"></path>
            <path d="M167.107238,63.5585179 L167.107238,65.9994037 L168.806844,65.9994037 C169.447287,65.9994037 169.975163,65.8506814 170.401556,65.5532368 C170.682976,65.3554514 170.824539,65.0756388 170.824539,64.7045997 C170.824539,64.3649915 170.674448,64.0890119 170.37512,63.876661 C170.073233,63.6643101 169.570941,63.5592845 168.86398,63.5592845 L167.107238,63.5592845 L167.107238,63.5585179 Z M165,62 L168.351455,62 C169.548769,62 170.440785,62.0812606 171.030914,62.2468484 C171.618484,62.4124361 172.095192,62.6960818 172.459333,63.1062181 C172.819209,63.5163543 173,64.0192504 173,64.60954 C173,65.069506 172.898518,65.4926746 172.689585,65.8821124 C172.526703,66.175724 172.280247,66.4379046 171.95363,66.6640545 C171.619337,66.890971 171.292719,67.0611584 170.956721,67.1746167 C170.395587,67.3701022 169.72956,67.4705281 168.963757,67.4705281 L167.108944,67.4705281 L167.108944,71 L165.000853,71 L165.000853,62 L165,62 Z" id="Shape"></path>
            <path d="M176.759252,65.7678844 C177.152707,65.110067 177.520452,64.6569952 177.868718,64.4094914 C178.213089,64.1562316 178.591741,64.0238459 179,64 L179,65.7678844 L178.84028,65.7678844 C178.411765,65.7678844 178.005843,65.8994479 177.627191,66.1609303 C177.24776,66.4232351 176.957928,66.8014801 176.759252,67.2874427 L176.759252,71 L175,71 L175,64.120874 L176.759252,64.120874 L176.759252,65.7678844 Z" id="Path"></path>
            <path d="M183.514396,65.1310926 C183.068553,65.1310926 182.719556,65.2806653 182.462171,65.5846616 C182.124517,65.9848695 181.955254,66.6243936 181.955254,67.508085 C181.955254,68.3133518 182.101832,68.8890044 182.408949,69.2326172 C182.711704,69.5754216 183.075533,69.7460152 183.499564,69.7460152 C183.797083,69.7460152 184.068428,69.6627397 184.315343,69.4961885 C184.561386,69.3280203 184.737629,69.0887041 184.844946,68.7806653 C185.002867,68.3440748 185.080519,67.8549319 185.080519,67.3091938 C185.080519,66.9000924 185.016827,66.5176715 184.88508,66.1643567 C184.755079,65.8102333 184.566621,65.5515131 184.322323,65.3841534 C184.075408,65.2135597 183.807553,65.1310926 183.514396,65.1310926 M183.315468,64 C184.462794,64 185.363206,64.2999538 186.018447,64.8982444 C186.674561,65.499769 187,66.3519289 187,67.4571495 C187,68.5680296 186.669326,69.4395934 186.009722,70.0621391 C185.344883,70.6854932 184.519506,71 183.526611,71 C182.578213,71 181.753708,70.7032802 181.051352,70.1114576 C180.350742,69.5204435 180,68.6399861 180,67.46766 C180,66.3600139 180.312352,65.503003 180.941418,64.9022869 C181.569612,64.3015708 182.36009,64 183.315468,64" id="Shape"></path>
            <path d="M187.835427,64.6831642 C187.870031,64.0255851 187.946653,63.5446691 188.06035,63.2381512 C188.173223,62.9301233 188.346241,62.684003 188.577755,62.4937505 C188.754068,62.3465313 188.99794,62.228756 189.317611,62.1366496 C189.636457,62.0468082 189.965191,62 190.296395,62 L191,62 L191,63.1241507 L190.692688,63.1241507 C190.330175,63.1241507 190.07312,63.1822834 189.919876,63.2970388 C189.765808,63.4140592 189.69001,63.572603 189.69001,63.773425 L189.69001,64.6831642 L190.794027,64.6831642 L190.794027,65.829209 L189.69001,65.829209 L189.69001,71 L187.835427,71 L187.835427,65.829209 L187,65.829209 L187,64.6831642 L187.835427,64.6831642 L187.835427,64.6831642 Z" id="Path"></path>
            <path d="M197.231423,66.7765318 C197.203447,66.2578035 197.037342,65.8604624 196.733109,65.5845087 C196.432372,65.3061272 196.059073,65.1661272 195.621956,65.1661272 C195.198826,65.1661272 194.842138,65.3036994 194.551018,65.5731792 C194.260772,65.8442775 194.095541,66.2456647 194.059698,66.7757225 L197.231423,66.7757225 L197.231423,66.7765318 Z M198.826901,69.2609249 C198.647683,69.5546821 198.484201,69.7796532 198.33121,69.9390751 C198.094292,70.1810405 197.832896,70.3833526 197.544399,70.5411561 C197.25765,70.697341 196.956913,70.8130636 196.650056,70.8883237 C196.342325,70.9635838 196.018858,71 195.682278,71 C195.030099,71 194.412014,70.8527168 193.820157,70.560578 C193.230923,70.2684393 192.781566,69.8452023 192.467716,69.2900578 C192.15474,68.7324855 192,68.1093642 192,67.4239306 C192,66.3783815 192.334832,65.549711 193.010616,64.9273988 C193.686399,64.3083237 194.549269,64 195.6001,64 C196.627326,64 197.450856,64.2840462 198.06894,64.8480925 C198.688772,65.4145665 199,66.2035838 199,67.2183815 C199,67.3510983 198.990383,67.5436994 198.979018,67.8002312 L194.064069,67.8002312 C194.087673,68.4168786 194.253778,68.8708671 194.555389,69.167052 C194.858749,69.4640462 195.239915,69.6153757 195.699763,69.6153757 C196.046834,69.6153757 196.347571,69.5368786 196.591482,69.3758382 C196.838017,69.2164162 197.050456,68.9825434 197.232297,68.6726012 L198.826901,69.2609249 Z" id="Shape"></path>
            <path d="M201.115437,69.0498439 C201.479846,69.3056551 201.810529,69.4894183 202.097614,69.5906095 C202.387168,69.6934197 202.687414,69.7468486 203.000823,69.7468486 C203.403894,69.7468486 203.703318,69.6772291 203.899918,69.536371 C204.091582,69.4003701 204.188648,69.2392737 204.188648,69.0619868 C204.188648,68.8976524 204.103098,68.7422227 203.930354,68.6013646 C203.754319,68.4629351 203.378393,68.3447438 202.799287,68.2540766 C201.841788,68.0962183 201.166438,67.8290737 200.76748,67.4534521 C200.372635,67.0762114 200.173567,66.6277322 200.173567,66.1055858 C200.173567,65.5534868 200.432684,65.0645311 200.948451,64.6387186 C201.465862,64.2104776 202.140389,64 202.972032,64 C203.449136,64 203.90074,64.0655719 204.326844,64.1967156 C204.751302,64.331907 205.211132,64.5844802 205.706334,64.9560541 L204.635317,65.7874407 C204.122018,65.5032959 203.77077,65.3292471 203.578284,65.2628657 C203.384151,65.1981034 203.190019,65.1681508 202.992597,65.1681508 C202.661091,65.1681508 202.398684,65.2474847 202.197148,65.4110096 C201.996435,65.5688678 201.897724,65.7550596 201.897724,65.9550133 C201.897724,66.1387765 201.978338,66.3023014 202.144502,66.4431595 C202.309844,66.5791604 202.715383,66.7167804 203.367699,66.8438765 C204.266795,67.0187348 204.893611,67.231641 205.249794,67.4777379 C205.749931,67.8185498 206,68.2694576 206,68.8336995 C206,69.4335608 205.741706,69.9443738 205.225939,70.3677576 C204.708528,70.7911414 203.957499,71 202.978613,71 C202.364957,71 201.827804,70.9069041 201.364683,70.7134266 C200.904031,70.5199491 200.450781,70.2066613 200,69.771944 L201.115437,69.0498439 Z" id="Path"></path>
            <path d="M207.118574,69.0498439 C207.482111,69.3056551 207.809459,69.4894183 208.098972,69.5906095 C208.389308,69.6934197 208.688691,69.7468486 208.999589,69.7468486 C209.405894,69.7468486 209.7061,69.6772291 209.900206,69.536371 C210.092666,69.4003701 210.189719,69.2392737 210.189719,69.0619868 C210.189719,68.8976524 210.101714,68.7422227 209.928992,68.6013646 C209.756271,68.4629351 209.380398,68.3447438 208.800548,68.2540766 C207.84318,68.0962183 207.167923,67.8290737 206.771487,67.4534521 C206.375051,67.0762114 206.173544,66.6277322 206.173544,66.1055858 C206.173544,65.5534868 206.431803,65.0645311 206.948321,64.6387186 C207.465661,64.2104776 208.140096,64 208.973269,64 C209.452776,64 209.902673,64.0655719 210.328718,64.1967156 C210.752296,64.331907 211.212063,64.5844802 211.707197,64.9560541 L210.639616,65.7874407 C210.125565,65.5032959 209.770254,65.3292471 209.579438,65.2628657 C209.385332,65.1981034 209.189582,65.1681508 208.996299,65.1681508 C208.664839,65.1681508 208.398355,65.2474847 208.198492,65.4110096 C207.997807,65.5688678 207.897464,65.7550596 207.897464,65.9550133 C207.897464,66.1387765 207.978067,66.3023014 208.144208,66.4431595 C208.308705,66.5791604 208.716655,66.7167804 209.367238,66.8438765 C210.267855,67.0187348 210.897053,67.231641 211.253187,67.4777379 C211.749143,67.8185498 212,68.2694576 212,68.8336995 C212,69.4335608 211.742563,69.9443738 211.225223,70.3677576 C210.707882,70.7911414 209.961069,71 208.979849,71 C208.366278,71 207.830021,70.9069041 207.368609,70.7134266 C206.907197,70.5199491 206.453187,70.2066613 206,69.771944 L207.118574,69.0498439 Z" id="Path"></path>
            <path d="M214,71 L216,71 L216,64.6856544 L214,64.6856544 L214,71 Z M214,63.5931208 L216,63.5931208 L216,62 L214,62 L214,63.5931208 Z" id="Shape"></path>
            <path d="M221.516579,65.1310926 C221.070681,65.1310926 220.719895,65.2806653 220.464223,65.5846616 C220.123909,65.9848695 219.957243,66.6243936 219.957243,67.508085 C219.957243,68.3133518 220.105585,68.8890044 220.411867,69.2326172 C220.712042,69.5754216 221.075916,69.7460152 221.499127,69.7460152 C221.799302,69.7460152 222.068935,69.6627397 222.315881,69.4961885 C222.561955,69.3280203 222.73822,69.0887041 222.847295,68.7806653 C223.00349,68.3440748 223.080279,67.8549319 223.080279,67.3091938 C223.080279,66.9000924 223.016579,66.5176715 222.886562,66.1643567 C222.754799,65.8102333 222.568063,65.5515131 222.32199,65.3841534 C222.077661,65.2135597 221.808028,65.1310926 221.516579,65.1310926 M221.315881,64 C222.463351,64 223.363874,64.2999538 224.021815,64.8982444 C224.67452,65.499769 225,66.3519289 225,67.4571495 C225,68.5680296 224.672775,69.4395934 224.010471,70.0621391 C223.346422,70.6854932 222.52007,71 221.529668,71 C220.578534,71 219.753927,70.7032802 219.053229,70.1114576 C218.350785,69.5204435 218,68.6399861 218,67.46766 C218,66.3600139 218.311518,65.503003 218.941536,64.9022869 C219.569808,64.3015708 220.362129,64 221.315881,64" id="Shape"></path>
            <path d="M227.833084,65.0614282 C228.2113,64.7161146 228.605037,64.4538407 229.008577,64.27214 C229.40885,64.0896171 229.854867,64 230.340095,64 C230.88904,64 231.281961,64.126615 231.522124,64.3814893 C231.839891,64.7161146 232,65.1765328 232,65.7619215 L232,70.9991778 L230.183254,70.9991778 L230.183254,66.2017853 C230.183254,65.9214235 230.122805,65.7199906 230.008441,65.599953 C229.893261,65.4799154 229.729884,65.421541 229.516678,65.421541 C229.292852,65.421541 229.053506,65.4790933 228.801089,65.599953 C228.548673,65.7199906 228.226004,65.9534884 227.833084,66.2971576 L227.833084,71 L226,71 L226,64.1216819 L227.833084,64.1216819 L227.833084,65.0614282 L227.833084,65.0614282 Z" id="Path"></path>
            <path d="M237.207034,69.0937753 L237.207034,67.4009701 C236.171863,67.5844786 235.46283,67.8391269 235.076739,68.1632983 C234.778577,68.4090542 234.629097,68.6831043 234.629097,68.9878739 C234.629097,69.236055 234.71223,69.4405821 234.88729,69.6030719 C235.055955,69.763945 235.274181,69.843169 235.536371,69.843169 C235.761791,69.843169 236.013589,69.7825384 236.294165,69.65481 C236.576339,69.5286985 236.876898,69.3419563 237.207034,69.0937753 M233.200639,65.222312 C233.549161,64.8278092 233.969624,64.5214228 234.459632,64.3152789 C234.95044,64.1042846 235.473221,64 236.031175,64 C236.61311,64 237.123102,64.0994341 237.56195,64.2974939 C237.884093,64.4462409 238.160671,64.6936136 238.398082,65.0379951 C238.633893,65.3848019 238.752998,65.8172999 238.752998,66.3411479 L238.752998,69.4931285 C238.752998,69.69038 238.776179,69.9320938 238.827338,70.2085691 C238.882494,70.4939369 238.938449,70.7146322 239,70.8795473 L237.434852,70.8795473 C237.359712,70.6556184 237.302958,70.4236055 237.266187,70.1859337 C236.944844,70.4551334 236.61311,70.6580437 236.269384,70.7954729 C235.924061,70.9320938 235.570743,71 235.19984,71 C234.56195,71 234.031974,70.8140663 233.619504,70.4438157 C233.206235,70.0743735 233,69.6362167 233,69.1285368 C233,68.7687955 233.094325,68.4308812 233.283773,68.1164107 C233.47482,67.7962813 233.753797,67.5165724 234.122302,67.2805174 C234.490807,67.0420372 234.953637,66.8520614 235.510791,66.7073565 C235.930456,66.5974131 236.496403,66.5092967 237.206235,66.432498 C237.206235,66.1479386 237.179057,65.9409863 237.127098,65.8116411 C237.048761,65.6143897 236.911271,65.458367 236.719424,65.3484236 C236.523581,65.2368634 236.283773,65.1794665 235.998401,65.1794665 C235.310951,65.1794665 234.733813,65.4785772 234.264588,66.0800323 L233.200639,65.222312 Z" id="Shape"></path>
            <rect id="Rectangle" x="241" y="62" width="2" height="9"></rect>
            <path d="M246.116776,69.0498439 C246.479441,69.3056551 246.809211,69.4894183 247.097862,69.5906095 C247.388158,69.6934197 247.6875,69.7468486 247.999178,69.7468486 C248.405428,69.7468486 248.703947,69.6772291 248.898026,69.536371 C249.092105,69.4003701 249.188322,69.2392737 249.188322,69.0619868 C249.188322,68.8976524 249.102796,68.7422227 248.928454,68.6013646 C248.754934,68.4629351 248.377467,68.3447438 247.800164,68.2540766 C246.84375,68.0962183 246.165296,67.8290737 245.768914,67.4534521 C245.374178,67.0762114 245.175164,66.6277322 245.175164,66.1055858 C245.175164,65.5534868 245.433388,65.0645311 245.949836,64.6387186 C246.467105,64.2104776 247.13898,64 247.972039,64 C248.449013,64 248.901316,64.0655719 249.325658,64.1967156 C249.75,64.331907 250.209704,64.5844802 250.707237,64.9560541 L249.637336,65.7874407 C249.124178,65.5032959 248.769737,65.3292471 248.578947,65.2628657 C248.384868,65.1981034 248.186678,65.1681508 247.994243,65.1681508 C247.663651,65.1681508 247.398026,65.2474847 247.198191,65.4110096 C246.996711,65.5688678 246.898849,65.7550596 246.898849,65.9550133 C246.898849,66.1387765 246.977796,66.3023014 247.143914,66.4431595 C247.309211,66.5791604 247.716283,66.7167804 248.369243,66.8438765 C249.26727,67.0187348 249.896382,67.231641 250.250822,67.4777379 C250.748355,67.8185498 251,68.2694576 251,68.8336995 C251,69.4335608 250.741776,69.9443738 250.224507,70.3677576 C249.707237,70.7911414 248.958882,71 247.979441,71 C247.364309,71 246.827303,70.9069041 246.366776,70.7134266 C245.90625,70.5199491 245.450658,70.2066613 245,69.771944 L246.116776,69.0498439 Z" id="Path"></path>
            <path d="M126.706747,80.1560169 C126.284602,79.8433051 125.868512,79.610678 125.461938,79.4558475 C125.055363,79.3017797 124.656574,79.2247458 124.262111,79.2247458 C123.618512,79.2247458 123.086505,79.4314407 122.660035,79.8478814 C122.232699,80.2620339 122.019031,80.8783051 122.019031,81.6944068 C122.019031,82.5478814 122.237024,83.1885593 122.67474,83.6118644 C123.108997,84.0328814 123.639273,84.2464407 124.268166,84.2464407 C124.651384,84.2464407 125.048443,84.1678814 125.455882,84.0084746 C125.862457,83.8521186 126.280277,83.6133898 126.706747,83.2991525 L126.706747,80.1560169 Z M126.706747,76 L127.725779,76 L127.725779,82.9109322 C127.725779,83.2709322 127.754325,83.6416102 127.811419,84.0260169 C127.865052,84.4119492 127.929931,84.6918644 128,84.8733898 L126.945502,84.8733898 C126.833045,84.55 126.773356,84.2571186 126.769031,83.9985593 C126.314879,84.3318644 125.866782,84.5820339 125.423875,84.7498305 C124.982699,84.9168644 124.544983,85 124.115052,85 C123.259516,85 122.530277,84.7139831 121.91782,84.1373729 C121.307958,83.5607627 121,82.7644915 121,81.7447458 C121,80.7036441 121.309689,79.8928814 121.923875,79.3162712 C122.541522,78.739661 123.274221,78.4490678 124.126298,78.4490678 C124.564014,78.4490678 124.986159,78.525339 125.398789,78.6809322 C125.812284,78.8365254 126.24827,79.0798305 126.706747,79.414661 L126.706747,76 Z" id="Shape"></path>
            <path d="M133.992653,80.7647881 C133.92,80.1306474 133.693061,79.6326269 133.30449,79.2699115 C132.92,78.9120866 132.480816,78.7303214 131.994286,78.7303214 C131.404898,78.7303214 130.928163,78.9455054 130.573878,79.3726129 C130.21551,79.8005356 130.030204,80.2635072 130.006531,80.7647881 L133.992653,80.7647881 Z M134.999184,83.3535165 C134.562449,83.9094085 134.094694,84.3218444 133.600816,84.5924546 C133.10449,84.8630647 132.59102,85 132.061224,85 C131.219592,85 130.501224,84.6894504 129.899592,84.0642757 C129.298776,83.4407313 129,82.5726595 129,81.4584304 C129,80.3898463 129.293878,79.5429669 129.889796,78.9251281 C130.484082,78.3089194 131.179592,78 131.973878,78 C132.506939,78 133.01551,78.1467163 133.506939,78.439334 C133.996735,78.7343968 134.364898,79.1321612 134.610612,79.633442 C134.856327,80.1330927 134.98449,80.7827201 135,81.5863996 L129.967347,81.5863996 C129.988571,82.1186539 130.074286,82.5555426 130.225306,82.8978808 C130.423673,83.3469958 130.691429,83.6754774 131.026122,83.8825105 C131.362449,84.0903586 131.687347,84.1930601 132.001633,84.1930601 C132.789388,84.1930601 133.524082,83.7382394 134.209796,82.828598 L134.999184,83.3535165 Z" id="Shape"></path>
            <path d="M148,82.3518564 C147.860752,82.8387017 147.686493,83.2252274 147.474836,83.5121711 C147.134275,83.9783624 146.696638,84.3405459 146.156356,84.6046226 C145.615278,84.8679616 144.988263,85 144.279292,85 C143.519395,85 142.79451,84.8332924 142.106226,84.5006147 C141.418739,84.1657241 140.892779,83.6648635 140.5371,83.0017212 C140.177442,82.3385788 140,81.5544627 140,80.6530612 C140,79.7125645 140.180625,78.8827145 140.544261,78.1627735 C140.909489,77.4406196 141.43704,76.8984509 142.130097,76.5406934 C142.825542,76.1807229 143.555202,76 144.323851,76 C144.8888,76 145.439427,76.109909 145.978118,76.3289894 C146.521583,76.5480698 146.966382,76.8578805 147.322857,77.2562085 C147.568729,77.5350381 147.763676,77.9068109 147.910086,78.3663634 L146.099861,78.8185395 C145.970957,78.3501352 145.741794,77.9945906 145.412373,77.7578067 C145.082156,77.5173346 144.687488,77.4000492 144.225184,77.4000492 C143.537696,77.4000492 143.000597,77.6914187 142.619455,78.2763708 C142.235926,78.8613228 142.040979,79.6247849 142.040979,80.5682321 C142.040979,81.1642488 142.130893,81.6872388 142.306744,82.1364642 C142.484981,82.5856897 142.724488,82.9168921 143.037199,83.130809 C143.348319,83.3439882 143.68331,83.4516843 144.046151,83.4516843 C144.58882,83.4516843 145.072608,83.2805508 145.500696,82.9353332 C145.799085,82.6985493 146.038592,82.354807 146.210463,81.9055815 L148,82.3518564 Z" id="Path"></path>
            <path d="M149,85 L151,85 L151,78.6845947 L149,78.6845947 L149,85 Z M149,77.5933882 L151,77.5933882 L151,76 L149,76 L149,77.5933882 Z" id="Shape"></path>
            <path d="M155.757848,79.7666549 C156.150907,79.1111503 156.519789,78.657972 156.867616,78.4079427 C157.211542,78.1570908 157.590563,78.0222066 158,78 L158,79.7666549 L157.844024,79.7666549 C157.410411,79.7666549 157.007214,79.8982493 156.626633,80.1614381 C156.246832,80.4238045 155.955937,80.8004935 155.758627,81.2873928 L155.758627,85 L154,85 L154,78.1192574 L155.758627,78.1192574 L155.758627,79.7666549 L155.757848,79.7666549 Z" id="Path"></path>
            <path d="M165,83.0677378 C164.821966,83.4828344 164.64957,83.7935499 164.482814,83.9990753 C164.225832,84.3186915 163.914071,84.5646746 163.549946,84.7402612 C163.186627,84.9126113 162.755639,85 162.252954,85 C161.179914,85 160.336466,84.6067507 159.725027,83.8194428 C159.24087,83.1883019 159,82.4260779 159,81.5279158 C159,80.474396 159.319012,79.6239741 159.962675,78.9750318 C160.602309,78.3260895 161.38695,78 162.315789,78 C162.767723,78 163.156821,78.078488 163.484694,78.2306092 C163.814984,78.3835395 164.103383,78.5955381 164.352309,78.8674142 C164.527121,79.0599931 164.712406,79.3480522 164.913802,79.7340192 L163.383996,80.1175587 C163.214017,79.8505375 163.042427,79.6571495 162.862782,79.539822 C162.688776,79.4241128 162.484962,79.3634262 162.256982,79.3634262 C161.908969,79.3634262 161.610902,79.5163565 161.360365,79.8181713 C161.108217,80.1199861 160.983351,80.6087158 160.983351,81.273032 C160.983351,81.7892729 161.048604,82.2561554 161.184748,82.6696336 C161.276584,82.9674026 161.427229,83.193966 161.631042,83.3493238 C161.834855,83.5046815 162.063641,83.5839787 162.316595,83.5839787 C162.590494,83.5839787 162.834586,83.4901167 163.060956,83.3032019 C163.285714,83.1179054 163.462137,82.8160906 163.586198,82.4034216 L165,83.0677378 Z" id="Path"></path>
            <path d="M175.704152,80.1560169 C175.283737,79.8433051 174.871972,79.610678 174.461938,79.4558475 C174.055363,79.3017797 173.654844,79.2247458 173.261246,79.2247458 C172.620242,79.2247458 172.08564,79.4314407 171.65917,79.8478814 C171.231834,80.2620339 171.019031,80.8783051 171.019031,81.6944068 C171.019031,82.5478814 171.236159,83.1885593 171.673875,83.6118644 C172.108997,84.0328814 172.637543,84.2464407 173.266436,84.2464407 C173.653114,84.2464407 174.047578,84.1678814 174.455882,84.0084746 C174.861592,83.8521186 175.280277,83.6133898 175.704152,83.2991525 L175.704152,80.1560169 L175.704152,80.1560169 Z M175.704152,76 L176.723183,76 L176.723183,82.9109322 C176.723183,83.2709322 176.75346,83.6416102 176.808824,84.0260169 C176.864187,84.4119492 176.927336,84.6918644 177,84.8733898 L175.944637,84.8733898 C175.831315,84.55 175.772491,84.2571186 175.768166,83.9985593 C175.314014,84.3318644 174.865917,84.5820339 174.42128,84.7498305 C173.980104,84.9168644 173.542388,85 173.114187,85 C172.259516,85 171.528547,84.7139831 170.91782,84.1373729 C170.306228,83.5607627 170,82.7644915 170,81.7447458 C170,80.7036441 170.307958,79.8928814 170.92128,79.3162712 C171.537197,78.739661 172.272491,78.4490678 173.125433,78.4490678 C173.560554,78.4490678 173.987024,78.525339 174.397924,78.6809322 C174.812284,78.8365254 175.24481,79.0798305 175.704152,79.414661 L175.704152,76 L175.704152,76 Z" id="Shape"></path>
            <path d="M182.993469,80.7647881 C182.92,80.1306474 182.692245,79.6326269 182.303673,79.2699115 C181.918367,78.9120866 181.481633,78.7303214 180.995102,78.7303214 C180.403265,78.7303214 179.926531,78.9455054 179.574694,79.3726129 C179.218776,79.8005356 179.029388,80.2635072 179.005714,80.7647881 L182.993469,80.7647881 Z M183.999184,83.3535165 C183.562449,83.9094085 183.093878,84.3218444 182.6,84.5924546 C182.105306,84.8630647 181.593469,85 181.060408,85 C180.221224,85 179.502857,84.6894504 178.900408,84.0642757 C178.299592,83.4407313 178,82.5726595 178,81.4584304 C178,80.3898463 178.29551,79.5429669 178.889796,78.9251281 C179.485714,78.3089194 180.179592,78 180.977959,78 C181.506122,78 182.017143,78.1467163 182.508571,78.439334 C182.997551,78.7343968 183.366531,79.1321612 183.610612,79.633442 C183.85551,80.1330927 183.986122,80.7827201 184,81.5863996 L178.966531,81.5863996 C178.990204,82.1186539 179.074286,82.5555426 179.226122,82.8978808 C179.422857,83.3469958 179.690612,83.6754774 180.027755,83.8825105 C180.364898,84.0903586 180.68898,84.1930601 181.003265,84.1930601 C181.789388,84.1930601 182.526531,83.7382394 183.211429,82.828598 L183.999184,83.3535165 Z" id="Shape"></path>
            <path d="M197,82.3518564 C196.861548,82.8387017 196.687289,83.2252274 196.475632,83.5121711 C196.135071,83.9783624 195.695842,84.3405459 195.157151,84.6046226 C194.613686,84.8679616 193.989059,85 193.2777,85 C192.520191,85 191.796101,84.8332924 191.106226,84.5006147 C190.417943,84.1657241 189.893575,83.6648635 189.534713,83.0017212 C189.175055,82.3385788 189,81.5544627 189,80.6530612 C189,79.7125645 189.179033,78.8827145 189.545057,78.1627735 C189.910284,77.4406196 190.437836,76.8984509 191.130893,76.5406934 C191.824746,76.1807229 192.554406,76 193.323851,76 C193.887209,76 194.437836,76.109909 194.978914,76.3289894 C195.519992,76.5480698 195.967177,76.8578805 196.321265,77.2562085 C196.567933,77.5350381 196.76288,77.9068109 196.910881,78.3663634 L195.098269,78.8185395 C194.971753,78.3501352 194.74259,77.9945906 194.411577,77.7578067 C194.082952,77.5173346 193.689079,77.4000492 193.225184,77.4000492 C192.538492,77.4000492 192.001392,77.6914187 191.617864,78.2763708 C191.233539,78.8613228 191.040979,79.6247849 191.040979,80.5682321 C191.040979,81.1642488 191.129302,81.6872388 191.307539,82.1364642 C191.48339,82.5856897 191.726875,82.9168921 192.037199,83.130809 C192.348319,83.3439882 192.68331,83.4516843 193.045355,83.4516843 C193.586433,83.4516843 194.069425,83.2805508 194.499901,82.9353332 C194.800676,82.6985493 195.037,82.354807 195.209668,81.9055815 L197,82.3518564 Z" id="Path"></path>
            <path d="M203.208311,83.097158 L203.208311,81.4029575 C202.175013,81.5873383 201.463772,81.8412662 201.080181,82.1647412 C200.780501,82.4113909 200.63106,82.6847274 200.63106,82.9904113 C200.63106,83.2386784 200.714172,83.4432763 200.886787,83.6033965 C201.060202,83.7659427 201.275173,83.8460028 201.538093,83.8460028 C201.761055,83.8460028 202.016782,83.7853512 202.294885,83.6551525 C202.575386,83.5314233 202.879062,83.3446165 203.208311,83.097158 M199.202184,79.2227357 C199.55301,78.8248614 199.973362,78.5232209 200.46244,78.3145795 C200.952318,78.1051294 201.476558,78 202.033564,78 C202.613745,78 203.123601,78.0994686 203.563133,78.2984057 C203.88439,78.4472043 204.163292,78.6946627 204.399041,79.0391636 C204.63399,79.3868993 204.752264,79.8179298 204.752264,80.3387246 L204.752264,83.4926063 C204.752264,83.6931608 204.778636,83.933341 204.830581,84.2107209 C204.883324,84.4945702 204.940863,84.7169593 205,84.8827403 L203.433671,84.8827403 C203.360948,84.6563078 203.305008,84.4258318 203.265051,84.1880776 C202.945392,84.4581793 202.613745,84.6587338 202.270911,84.7978281 C201.927278,84.9344963 201.570059,85 201.201652,85 C200.562334,85 200.034896,84.8140018 199.621737,84.4452403 C199.207778,84.0740527 199,83.6365527 199,83.1254621 C199,82.7704482 199.095898,82.4332255 199.286894,82.1154113 C199.478689,81.795171 199.757592,81.5185998 200.124401,81.280037 C200.49041,81.0430915 200.956313,80.8506238 201.510123,80.7082948 C201.930474,80.5958872 202.495471,80.5077403 203.207512,80.4317237 C203.207512,80.1478743 203.181939,79.941659 203.129196,79.8122689 C203.05008,79.6133318 202.914225,79.4580638 202.720831,79.3472736 C202.52504,79.2340573 202.284497,79.1790665 202.001598,79.1790665 C201.311135,79.1790665 200.73415,79.478281 200.266649,80.0775185 L199.202184,79.2227357 Z" id="Shape"></path>
            <path d="M206.050019,76 L207.788678,76 L207.788678,78.1697575 L209,78.1697575 L209,79.3878388 L207.788678,79.3878388 L207.788678,82.9722718 C207.788678,83.1640514 207.860799,83.3141049 208.007367,83.4208274 C208.151609,83.5299572 208.482745,83.5893367 208.999225,83.601373 L208.999225,84.988766 C208.610702,84.994383 208.405971,85 208.387359,85 C207.845289,85 207.41644,84.9293866 207.096937,84.7913695 C206.780535,84.6509451 206.526173,84.4166369 206.336177,84.0876427 C206.145405,83.7594508 206.050019,83.3887304 206.050019,82.9730742 L206.050019,79.3886412 L205,79.3886412 L205,78.1705599 L206.050019,78.1705599 L206.050019,76 Z" id="Path"></path>
            <path d="M215.209516,83.097158 L215.209516,81.4029575 C214.172331,81.5873383 213.462215,81.8412662 213.076769,82.1647412 C212.776889,82.4113909 212.629748,82.6847274 212.629748,82.9904113 C212.629748,83.2386784 212.712115,83.4432763 212.884846,83.6033965 C213.057577,83.7659427 213.272691,83.8460028 213.535786,83.8460028 C213.761295,83.8460028 214.015594,83.7853512 214.293882,83.6551525 C214.572971,83.5314233 214.879248,83.3446165 215.209516,83.097158 M211.20072,79.2227357 C211.55098,78.8248614 211.971611,78.5232209 212.461815,78.3145795 C212.947221,78.1051294 213.47421,78 214.031587,78 C214.612955,78 215.123151,78.0994686 215.563774,78.2984057 C215.885246,78.4472043 216.164334,78.6946627 216.39944,79.0391636 C216.635346,79.3868993 216.752099,79.8179298 216.752099,80.3387246 L216.752099,83.4926063 C216.752099,83.6931608 216.780088,83.933341 216.831267,84.2107209 C216.882447,84.4945702 216.940024,84.7169593 217,84.8827403 L215.435826,84.8827403 C215.360656,84.6563078 215.303878,84.4258318 215.267093,84.1880776 C214.944822,84.4581793 214.613754,84.6587338 214.269892,84.7978281 C213.92523,84.9344963 213.569372,85 213.19912,85 C212.559376,85 212.033187,84.8140018 211.617353,84.4452403 C211.203918,84.0740527 211,83.6365527 211,83.1254621 C211,82.7704482 211.093563,82.4332255 211.283087,82.1154113 C211.47501,81.795171 211.754098,81.5185998 212.12435,81.280037 C212.491403,81.0430915 212.956018,80.8506238 213.510996,80.7082948 C213.930828,80.5958872 214.496202,80.5077403 215.209516,80.4317237 C215.209516,80.1478743 215.182327,79.941659 215.130348,79.8122689 C215.05118,79.6133318 214.914434,79.4580638 214.718513,79.3472736 C214.523391,79.2340573 214.284286,79.1790665 213.9996,79.1790665 C213.309476,79.1790665 212.731307,79.478281 212.264294,80.0775185 L211.20072,79.2227357 Z" id="Shape"></path>
            <rect id="Rectangle" x="219" y="76" width="2" height="9"></rect>
            <path d="M222,78.0008233 L223.853399,78.0008233 L223.853399,82.7251235 C223.853399,82.9638908 223.927109,83.1540814 224.069615,83.2973418 C224.212121,83.4381322 224.389025,83.5097624 224.607699,83.5097624 C224.834562,83.5097624 225.064701,83.4488356 225.302211,83.3253352 C225.535627,83.2043049 225.81982,82.9704775 226.158067,82.6296166 L226.158067,78 L228,78 L228,84.887203 L226.158067,84.887203 L226.158067,83.8498 C225.740377,84.2482945 225.317772,84.5422254 224.882883,84.7241825 C224.453726,84.9094331 224.07371,85 223.748567,85 C223.452088,85 223.170352,84.9333098 222.909091,84.7999294 C222.644554,84.6657257 222.426699,84.4557751 222.255528,84.1585509 C222.085176,83.8646201 222.000819,83.5007057 222.000819,83.0733945 L222.000819,78.0008233 L222,78.0008233 Z" id="Path"></path>
            <path d="M232.832198,79.0607306 C233.213021,78.7145542 233.606102,78.4530718 234.008172,78.2729942 C234.41106,78.0912722 234.854808,78 235.342686,78 C235.889403,78 236.284936,78.1249853 236.525197,78.3774228 C236.844729,78.7145542 237,79.1774932 237,79.760484 L237,84.9991777 L235.183329,84.9991777 L235.183329,80.2003994 C235.183329,79.9200047 235.126941,79.7201926 235.010896,79.5993187 C234.894034,79.4800893 234.730591,79.4200634 234.520567,79.4200634 C234.292563,79.4200634 234.055571,79.4800893 233.802234,79.5993187 C233.549714,79.7201926 233.225279,79.9545401 232.831381,80.2982497 L232.831381,85 L231,85 L231,78.120874 L232.831381,78.120874 L232.831381,79.0607306 L232.832198,79.0607306 Z" id="Path"></path>
            <path d="M238,79 L239.651412,79 L241.009414,83.117968 L242.362709,79 L244,79 L242.036349,85.0265939 C241.800209,85.7538357 241.569561,86.2977327 241.346757,86.6575179 C241.123169,87.0173031 240.850941,87.3141834 240.531642,87.5466246 C240.358264,87.6770372 240.114278,87.7844357 239.80204,87.8711217 C239.486663,87.9570406 239.112448,88 238.680962,88 L238.050209,88 L238.050209,86.8761507 L238.395397,86.8761507 C238.877092,86.8761507 239.270136,86.7672179 239.574529,86.5516536 C239.877354,86.3360893 240.079759,86.0223321 240.182531,85.6142175 L238,79 Z" id="Path"></path>
            <path d="M248.208633,83.097158 L248.208633,81.4029575 C247.174261,81.5873383 246.463629,81.8412662 246.079137,82.1647412 C245.779376,82.4113909 245.629896,82.6847274 245.629896,82.9904113 C245.629896,83.2386784 245.713829,83.4432763 245.884892,83.6033965 C246.057554,83.7659427 246.274181,83.8460028 246.53797,83.8460028 C246.760991,83.8460028 247.016787,83.7853512 247.294165,83.6551525 C247.57474,83.5314233 247.878497,83.3446165 248.208633,83.097158 M244.200639,79.2227357 C244.550759,78.8248614 244.971223,78.5232209 245.461231,78.3145795 C245.948841,78.1051294 246.473221,78 247.032774,78 C247.614708,78 248.123102,78.0994686 248.563549,78.2984057 C248.884892,78.4472043 249.16227,78.6946627 249.398881,79.0391636 C249.635492,79.3868993 249.752198,79.8179298 249.752198,80.3387246 L249.752198,83.4926063 C249.752198,83.6931608 249.779376,83.933341 249.828937,84.2107209 C249.881695,84.4945702 249.93765,84.7169593 250,84.8827403 L248.434053,84.8827403 C248.359712,84.6563078 248.304556,84.4258318 248.265388,84.1880776 C247.943245,84.4581793 247.614708,84.6587338 247.268585,84.7978281 C246.926459,84.9344963 246.570743,85 246.200639,85 C245.561151,85 245.033573,84.8140018 244.619504,84.4452403 C244.206235,84.0740527 244,83.6365527 244,83.1254621 C244,82.7704482 244.093525,82.4332255 244.286171,82.1154113 C244.478018,81.795171 244.756994,81.5185998 245.1247,81.280037 C245.491607,81.0430915 245.956035,80.8506238 246.511591,80.7082948 C246.930456,80.5958872 247.495604,80.5077403 248.208633,80.4317237 C248.208633,80.1478743 248.183054,79.941659 248.129496,79.8122689 C248.05036,79.6133318 247.916067,79.4580638 247.718625,79.3472736 C247.522782,79.2340573 247.286171,79.1790665 247.001599,79.1790665 C246.310951,79.1790665 245.733813,79.478281 245.266986,80.0775185 L244.200639,79.2227357 Z" id="Shape"></path>
        </g>
    </g>
</svg>