<?xml version="1.0" encoding="UTF-8"?>
<svg width="174px" height="126px" viewBox="0 0 174 126" version="1.1" xmlns="http://www.w3.org/2000/svg" xmlns:xlink="http://www.w3.org/1999/xlink">
    <!-- Generator: Sketch 58 (84663) - https://sketch.com -->
    <title>filipartners--tub</title>
    <desc>Created with Sketch.</desc>
    <g id="filipartners--tub" stroke="none" stroke-width="1" fill="none" fill-rule="evenodd">
        <g id="Group-7" transform="translate(26.000000, 0.000000)" fill-rule="nonzero">
            <path d="M42.179209,26.3963883 C42.3909403,25.6868738 42.7164925,25.0642136 42.7397463,24.4305437 C42.8021642,22.7381068 43.7849403,21.810233 45.1905672,21.194301 C46.3893582,20.6688932 47.6132388,20.2009806 48.9172836,19.9135049 C48.8169254,20.0003592 48.7306418,20.1275825 48.6143731,20.1673398 C46.7938507,20.7967282 46.1231642,22.177835 45.9310149,23.9901553 C45.7492687,25.7027767 44.9311045,27.0484078 43.234806,27.7303981 C42.3248507,28.096165 41.4571194,28.577534 40.5312537,28.8913107 C39.5802985,29.2130388 38.8857463,28.8075146 38.519194,27.8661845 C38.2921642,27.2838932 38.0620746,26.7022136 37.7805821,25.9878058 C37.0168806,26.461835 36.3119254,26.9095631 35.5971791,27.3389417 C35.1143582,27.6288641 34.6388806,27.9463107 34.1211791,28.1585534 C33.1426866,28.5591845 32.3006567,28.2105437 32.0754627,27.1817476 C31.8300746,26.0618155 31.8031493,24.8935631 31.6489403,23.4457864 C29.4637015,24.5247379 27.3200746,25.5828932 25.0760896,26.6905922 C25.1354478,26.4514369 25.153194,26.2318544 25.2425373,26.0477476 C25.5797164,25.3516893 25.9040448,24.645233 26.2987463,23.9815922 C27.4742836,22.0059612 27.5587313,19.7660971 27.9436418,17.5916796 C28.0182985,17.1714757 28.3267164,16.7041748 28.6669552,16.4356602 C29.6154627,15.688835 30.6380149,15.0355922 31.631194,14.3456505 C31.7627612,14.4196602 31.8937164,14.4930583 32.0252836,14.567068 C31.8924925,15.5438738 31.765209,16.5219029 31.6256866,17.4974854 C31.478209,18.5336214 31.2774925,19.5642524 31.1893731,20.6052816 C31.1606119,20.9435243 31.4133433,21.3056214 31.5369552,21.6560971 C31.6385373,21.6781165 31.7401194,21.6995243 31.8410896,21.7215437 C32.1715373,21.0572913 32.6341642,20.424233 32.8,19.720835 C33.0282537,18.7550388 33.5863433,18.2008835 34.4149104,17.7880194 C35.1914627,17.4014563 35.9478209,16.9726893 36.8742985,16.4754175 C36.0726567,19.5813786 34.4846716,22.4182136 35.8621493,25.8348932 C36.644209,24.7669515 37.5566119,24.1497961 37.5676269,22.8408641 C37.6214776,16.6044757 39.2963582,10.8879903 43.2005373,5.9232233 C43.46,5.59354369 43.7090597,5.25530097 43.8687761,4.73417476 C42.4319403,5.29995146 41.0036716,5.88897087 39.5564328,6.4272233 C35.0011493,8.12271845 30.463,9.87020388 25.8648806,11.4427573 C24.3013731,11.9773398 23.605597,12.6581068 23.5064627,14.4098738 C23.2684179,18.6076311 22.5610149,22.7472816 20.5177463,26.5181068 C20.2503284,27.0110971 19.8085075,27.4667767 19.341597,27.783 C18.4463284,28.388534 17.4745672,28.8815243 16.431209,29.3628932 C19.2008507,24.4764175 20.5373284,19.2810583 20.3390597,13.5645728 C14.3567313,15.5671165 8.8621194,18.4027282 2.84307463,19.8523398 C4.48246269,18.6002913 5.57477612,16.7940874 7.86832836,16.2858058 C10.8111493,15.6337864 13.6456567,14.491835 16.523,13.5492816 C17.2261194,13.3186893 17.9139403,13.0416117 18.6097164,12.7883883 C20.4736866,12.110068 20.531209,12.0849903 20.1016269,10.1515631 C19.9315075,9.3845534 20.1365075,8.99921359 20.7606866,8.59919417 C21.7238806,7.98203883 22.6191493,7.25967961 23.7573582,6.42416505 C23.7573582,8.06583495 23.7573582,9.44449515 23.7573582,10.9730097 C25.051,10.5479126 26.1910448,10.2108932 27.3047761,9.80108738 C32.789597,7.78202913 38.2866567,5.7935534 43.7335373,3.67601942 C45.0155522,3.17752427 46.1225522,2.22579612 47.303597,1.47346602 C47.6297612,1.26550485 47.9247164,1.0092233 48.2502687,0.801262136 C49.1730746,0.211019417 49.6797612,0.414699029 49.6718982,1.48569903 C49.6577313,3.34878641 49.6118358,5.22043689 49.4233582,7.07251456 C48.8524179,12.6807379 45.9144925,17.0821748 42.1590149,21.0585146 C40.6560896,22.6524757 40.6609851,24.4794757 42.179209,26.3963883 Z M41.1395224,19.7660971 C44.9806716,15.3267379 47.2087463,9.27017476 46.4695224,4.42345631 C43.6166567,6.75384466 41.0220299,14.1462524 41.1395224,19.7660971 Z" id="Shape" fill="#3C3335"></path>
            <path d="M80.5154328,18.8467864 C80.2339403,20.966767 80.0032388,22.980932 79.6899254,24.9828641 C79.4010896,26.8288252 78.0688955,27.718165 76.4221642,28.1952524 C75.5844179,28.4380777 74.9369851,28.0466214 74.7093433,27.2056019 C74.4633433,26.2942427 74.3268806,25.3535243 74.1267761,24.3436893 C73.6084627,24.6415631 73.1103433,24.9296505 72.6103881,25.2146796 C71.9543881,25.5883981 71.4073134,25.5003204 70.9661045,24.8525825 C69.884806,23.2641262 68.9981045,20.046233 70.6160746,17.6546796 C71.5290896,16.304767 72.9022836,15.6772136 74.425403,15.4111456 C75.1566716,15.2833107 75.8347015,15.5787379 75.8646866,16.530466 C75.9332239,18.7054951 75.9705522,20.8823592 76.0868209,23.0555534 C76.1455672,24.1589709 76.3481194,25.2550485 76.4937612,26.4177961 C77.5677164,26.2110583 77.704791,25.4721845 77.9024478,24.8336214 C78.689403,22.2860971 78.4293284,19.6663981 78.4134179,17.0619903 C78.4109701,16.6797087 78.5137761,16.2209709 78.7383582,15.9279903 C79.2707463,15.2331553 79.9041045,15.1866699 80.4719851,15.937165 C81.3225821,17.060767 82.1652239,18.1910971 83.0103134,19.3189806 C83.1528955,19.5092039 83.291806,19.7018738 83.4478507,19.9147282 C84.3706567,18.1904854 84.1228209,16.6454563 82.7404478,15.4233786 C82.9026119,15.2447767 83.0574328,15.0594466 83.2275522,14.8887961 C84.3363881,13.7743689 84.5181343,13.8159612 85.4195224,15.1169417 C86.5216269,16.707233 87.6732985,18.2632718 88.8720896,19.9287961 C89.1113582,19.0467961 89.277806,18.245534 89.5458358,17.4797476 C90.4790448,14.8098932 92.6269552,14.2924369 94.6830746,16.2221942 C95.0165821,16.5347476 95.3329552,16.8656505 95.6303582,17.1616893 C96.4344478,16.5800097 97.2042687,15.9659126 98.0328358,15.4441748 C98.5572687,15.1138835 98.5401343,14.8153981 98.2904627,14.3230194 C97.7697015,13.2954466 97.3119701,12.2366796 96.7581642,11.0402913 C97.4582239,10.799301 98.0218209,10.6047961 98.5780746,10.4133495 C99.1000597,11.6978155 99.5620746,12.8367087 99.9916567,13.8930291 C100.96097,13.8930291 101.856851,13.8930291 102.752731,13.8930291 C102.775985,14.0025146 102.798627,14.1126117 102.821881,14.2220971 C102.338448,14.5474951 101.867254,14.892466 101.369134,15.1933981 C100.877746,15.4906602 100.735164,15.813 101.133537,16.2943689 C101.356284,16.5641068 101.624313,16.8442427 101.713045,17.1635243 C101.809731,17.512165 101.723448,17.9121845 101.716716,18.2895728 C101.245522,18.2400291 100.634806,18.3550194 100.336179,18.1024078 C99.9102687,17.7409223 99.7126119,17.109699 99.3521791,16.479699 C98.4226418,17.0644369 97.5249254,17.6289903 96.5201194,18.2602136 C96.5562239,18.3666408 96.6363881,18.6021262 96.7581642,18.9605534 C95.3005224,19.1954272 95.4651343,20.2786602 95.6113881,21.3025631 C95.7594776,22.3423689 95.919806,23.3925728 96.2227164,24.3938447 C96.3548955,24.8293398 96.8560746,25.1535146 97.190194,25.5284563 C97.5243134,25.185932 98.0609851,24.8911165 98.1570597,24.4917087 C98.5052537,23.0378155 98.687,21.5447767 98.9770597,20.0749806 C99.046209,19.7251165 99.2059254,19.2400777 99.4696716,19.1091845 C100.430418,18.6320971 100.987896,19.1856408 100.979328,20.3208641 C100.964642,22.2188155 101.041746,24.1186019 101.134149,26.0147184 C101.156791,26.4832427 101.384433,26.9425922 101.460313,27.2062136 C102.191582,26.7878447 102.887358,26.3890485 103.649836,25.9529417 C103.95397,27.6563883 103.189657,29.1940777 102.05206,29.4711553 C100.803701,29.774534 100.025925,28.8460485 99.3166866,26.1535631 C98.2121343,26.6960971 97.0849403,27.9897379 95.8702388,26.9003883 C94.9529403,26.0777184 94.4554328,24.7877476 93.7443582,23.663534 C93.1911642,23.8757767 92.4182836,24.1724272 91.6325522,24.4745825 C91.7910448,26.5382913 90.9942985,27.669233 89.4265075,27.392767 C88.5165522,27.2325146 87.6524925,26.8129223 86.6892985,26.4838544 C87.9364328,25.2960291 88.2399552,25.2152913 89.8646567,25.6562913 C89.1902985,22.9631942 87.4138358,21.0493398 85.8564478,18.6449417 C85.5229403,20.5294369 84.0995672,21.8004466 84.6288955,23.7075728 C84.8106418,24.3632621 84.7335373,25.250767 84.4220597,25.8489612 C83.8174627,27.0086505 82.6272388,26.9046699 81.5857164,25.7590485 C81.9914328,25.275233 82.7514627,24.7749029 82.7257612,24.3186117 C82.6639552,23.2304854 82.3273881,22.125233 81.918,21.1007184 C81.5973433,20.2970097 81.0013134,19.6064563 80.5154328,18.8467864 Z M74.0178507,17.2766796 C72.9726567,17.3586408 72.4096716,17.7078932 72.0822836,18.5323981 C71.4164925,20.208932 71.6949254,21.7937184 72.5430746,23.4678058 C74.5251493,21.6609903 74.036209,19.4553786 74.0178507,17.2766796 Z M91.901806,22.7118058 C92.0235821,22.681835 92.1447463,22.6512524 92.2659104,22.6212816 C93.0442985,21.1361942 93.3851493,19.5043107 93.4812239,17.8485728 C93.500806,17.512165 92.7964627,17.0210097 92.3313881,16.8258932 C92.1533134,16.7512718 91.4887463,17.2662816 91.4293881,17.5831165 C91.2170448,18.7287379 91.0634478,19.908 91.102,21.0676893 C91.1203582,21.6242913 91.6197015,22.1643786 91.901806,22.7118058 Z" id="Shape" fill="#3C3335"></path>
            <path d="M111.154672,27.2496408 C108.995746,28.8062913 106.923104,29.2479029 105.185806,26.9560485 C104.529806,26.0905631 103.866463,25.2079515 103.373239,24.2470485 C102.377612,22.3087282 102.640134,21.1710583 104.422104,19.8927087 C106.052313,18.7226214 107.940761,18.6736893 110.055015,18.9073398 C109.365358,19.6663981 108.67203,19.8101359 107.895478,19.7709903 C105.705955,19.6615049 104.458209,21.4787184 105.389582,23.4384466 C106.134925,25.0067184 107.028358,26.4661165 108.638373,27.4533204 C109.52997,26.2734466 109.515284,24.899068 109.630328,23.6017573 C109.747209,22.2842621 109.65603,20.9478058 109.65603,19.5862718 C110.454,19.5862718 111.075119,19.5862718 111.778239,19.5862718 C112.578657,24.543699 113.372343,29.4613689 114.181328,34.4762913 C115.282209,34.1129709 116.315164,33.6670777 117.394627,33.4426019 C118.764761,33.1581845 120.171612,33.0444175 121.565,32.8749903 C122.321358,32.7826311 122.61509,33.1074175 122.348896,33.9514951 C120.11409,34.2365243 117.849299,34.5129903 115.588179,34.8194272 C114.188672,35.0090388 114.216821,35.028 114.328806,36.3828058 C114.59806,39.6471845 114.988478,42.9115631 115.037433,46.1802233 C115.064358,47.9711359 114.642119,49.8109806 114.16603,51.5590777 C113.371731,54.4772621 111.059821,55.8663204 108.291403,56.1421748 C104.674224,56.5024369 101.017881,54.7372136 99.958,50.538233 C99.5675821,48.9907573 100.092015,47.6218835 100.585239,46.227932 C102.393522,41.1218738 105.821,37.612835 110.955179,35.8396602 C112.038925,35.4653301 112.401806,34.9417573 112.166821,33.7692233 C111.746418,31.6706505 111.499806,29.5378252 111.154672,27.2496408 Z M112.422612,36.1228544 C112.183343,36.1228544 112.070134,36.0928835 111.982015,36.1271359 C106.845388,38.1113301 103.819343,41.9518835 102.35191,47.1356214 C102.202597,47.6640874 102.14997,48.2628932 102.224627,48.8054272 C102.760075,52.6863495 105.247,54.8699417 109.200134,54.8895299 C109.679896,54.8919612 110.291836,54.6014272 110.619224,54.2423883 C111.869418,52.8722913 112.40609,51.1596699 112.701657,49.3589709 C113.42497,44.9508058 112.710224,40.5793398 112.422612,36.1228544 Z" id="Shape" fill="#3C3335"></path>
            <path d="M63.1204179,26.0923981 C63.4631045,26.0599806 63.7439851,25.970068 63.9942687,26.0226699 C64.5682687,26.1425534 64.831403,26.8490097 64.3859104,27.1254757 C63.744597,27.5236602 63.017,27.8973786 62.2857313,28.0074757 C61.4742985,28.1298058 61.0985672,27.4429223 61.0789851,26.7107767 C61.0361493,25.0954078 61.0655224,23.4782039 60.8911194,21.8212427 C60.6683731,22.3857961 60.4419552,22.9491262 60.2228806,23.5155146 C59.6543881,24.9804175 58.5596269,25.9596699 57.1937761,26.6178058 C55.9980448,27.1939806 54.6260746,26.0245049 54.6058806,24.4134175 C54.5826269,22.4946699 55.4546418,20.9147767 56.8327313,19.6853592 C57.6007164,19.0003107 58.6459104,18.6345437 59.5203731,18.0553107 C59.8759104,17.8198252 60.3103881,17.4289806 60.3654627,17.0583204 C60.9253881,13.2960583 61.4186119,9.52400971 61.9216269,5.75318447 C62.084403,4.5311068 62.2018955,3.30230097 62.3848657,2.0838932 C62.433209,1.7615534 62.5733433,1.37254369 62.8077164,1.17865049 C63.1289851,0.913194175 63.5799851,0.805543689 63.9752985,0.63061165 C64.1258358,1.03980583 64.4354776,1.46245631 64.4030448,1.85635922 C64.0695373,5.89202913 63.5989552,9.91852427 63.3303134,13.9578641 C63.0898209,17.577 63.047597,21.2095922 62.9386716,24.8366796 C62.9276567,25.2446505 63.0543284,25.6581262 63.1204179,26.0923981 Z M59.7939104,19.794233 C57.9458507,19.9416408 56.2152836,22.5362621 56.7391045,24.0341942 C56.8211045,24.2684563 57.1178955,24.6403398 57.225597,24.6115922 C57.5193284,24.5339126 57.8932239,24.3326796 58.0076567,24.078233 C58.6214328,22.7173107 59.1654478,21.3245825 59.7939104,19.794233 Z" id="Shape" fill="#3C3335"></path>
            <path d="M67.2791642,10.065932 C66.6292836,9.87815534 66.0693582,9.71667961 65.3833731,9.51850485 C65.7070896,8.64873786 66.0467164,7.88845631 66.2731343,7.09575728 C66.6592687,5.74645631 66.983597,4.37941748 67.3152687,3.01482524 C67.4915075,2.29185437 67.7944179,1.94137864 68.5599552,2.40500971 C68.9938209,2.66740777 69.4735821,2.85579612 69.668791,2.94999029 C68.8500149,5.38986408 68.0783582,7.686 67.2791642,10.065932 Z" id="Path" fill="#3C3335"></path>
            <path d="M21.7330597,90.1169126 C20.1866866,90.6221359 18.9248657,91.0337767 17.6446866,91.4521456 C15.3376716,87.8128252 16.2188657,84.0658544 16.6233582,80.4112427 C15.4551642,79.4387184 14.3145075,78.4888252 12.9688507,77.3682816 C14.073403,76.5688544 14.9111493,75.9633204 15.9642985,75.2005922 C16.4226418,75.8679029 16.830194,76.4612039 17.281806,77.1187282 C19.0631642,73.9448738 20.6897015,71.0468738 22.4441343,67.9207282 C14.3720299,67.6785146 6.78397015,65.6808641 0,61.2445631 C0.00979104478,61.0476117 0.0195820896,60.8506602 0.0293731343,60.6537087 C1.24162687,60.1270777 2.4508209,59.5918835 3.67041791,59.081767 C3.86195522,59.0016408 4.20770149,58.9300777 4.30071642,59.0273301 C5.87585075,60.6793981 7.83773134,59.888534 9.53953731,59.6420388 C13.4828806,59.0713689 17.4054179,58.2835631 21.2857313,57.368534 C30.1821194,55.2699612 38.4408657,51.6918058 46.0081194,46.5123495 C52.4132985,42.1286505 57.2818955,36.3987087 61.2068806,29.7818738 C61.4638955,29.3488252 62.0115821,29.0882621 62.4240299,28.7475728 C62.7251045,29.144534 63.1424478,29.498068 63.3088955,29.9451845 C66.3912388,38.204301 71.3938507,44.9948447 78.7946567,49.8605243 C85.9678209,54.5769612 93.9371194,56.8694272 102.501224,57.1354951 C104.172433,57.1874854 105.846701,57.1624078 107.516687,57.2413107 C107.96891,57.2627184 108.559433,57.4205243 108.799925,57.734301 C108.951075,57.9318641 108.594925,58.5477961 108.421134,58.9569903 C108.134746,59.6298058 107.895478,60.3442136 107.486701,60.9381262 C106.410299,62.5021165 105.532164,64.4086311 104.058,65.4392621 C102.227075,66.718835 102.172612,67.9690485 102.499388,69.8737282 C103.176806,73.8176505 103.564164,77.8355825 105.851597,81.2657184 C106.774403,82.6492718 107.983597,83.8560583 109.160358,85.0463301 C109.470612,85.3601068 110.148642,85.4188252 110.653493,85.4059806 C111.422701,85.3857961 112.188239,85.2010777 112.947657,85.0873107 C113.224254,86.5246893 113.232209,86.5815728 111.601388,86.8036019 C107.531373,87.3577573 103.863403,88.8813786 100.798194,91.5830388 C99.5265821,92.7035825 98.4587463,94.1782718 97.6766866,95.6884369 C97.1069701,96.7881845 96.575806,97.2010485 95.397209,97.0469126 C91.1662537,96.4933689 86.9952687,97.0230583 82.8616119,97.9007767 C79.4408657,98.6274175 76.9521045,100.814068 74.6977164,103.318165 C73.4646567,104.688262 72.4861642,106.811301 70.9887463,107.266369 C69.5831194,107.693301 67.6414328,106.384369 65.9432985,105.817369 C57.0738358,102.856369 48.1688806,102.826398 39.226597,105.471175 C38.8588209,105.580049 38.4732985,105.626534 38.0957313,105.702379 C36.7892388,104.040524 38.1801791,103.804427 39.2235373,103.52735 C48.2508806,101.127233 57.2433433,101.04466 66.1795075,104.008107 C66.8581493,104.233194 67.5539254,104.408738 68.5911642,104.707835 C66.2241791,99.6666117 66.3520746,94.5746214 66.5362687,89.4661165 C66.6837463,85.3711165 66.8703881,81.2712233 66.8159254,77.1762233 C66.7706418,73.7668835 66.6194925,73.7999126 63.2311791,72.9821359 C57.1313582,71.5092816 51.1214925,71.5398641 45.1073433,73.5656505 C43.8222687,73.998699 43.4269552,74.8415534 42.9343433,75.7614757 C41.4534478,78.5285825 40.0068209,81.3146505 38.6030299,84.1209029 C38.314806,84.6976893 38.2695224,85.3961942 38.0871642,86.1442427 C39.380194,86.1442427 40.5049403,86.1442427 41.6290746,86.1442427 C41.6921045,86.3136699 41.7551343,86.4830971 41.8181642,86.6525243 C40.5967313,87.2831359 39.3752985,87.9131359 37.9611045,88.642835 C37.6459552,92.3567767 39.4071194,95.5887379 41.5293284,98.8757476 C40.6738358,99.5167573 39.8434328,100.138806 38.796403,100.923553 C35.9086567,97.1502816 34.2068507,93.0809709 34.2533582,88.6984951 C32.4248806,87.6250485 30.7793731,86.6592524 29.1044925,85.6757184 C31.0443433,83.3196408 32.7577761,83.6786796 34.266209,85.340534 C35.6179851,82.200932 36.9165224,79.1854951 38.273806,76.0330485 C33.2681343,76.1266311 28.1486418,76.0624078 23.9531791,71.7979806 C23.0273134,73.9301942 22.1944627,75.8477184 21.2043433,78.1273398 C22.4074179,77.9872718 23.2598507,77.8881845 24.1128955,77.7890971 C24.1948955,77.9322233 24.2775075,78.0747379 24.3595075,78.2178641 C23.6117164,78.8215631 22.950209,79.6907184 22.0959403,79.9696311 C20.7001045,80.4259223 20.5654776,81.4430971 20.4167761,82.554466 C20.0747015,85.1044369 20.110194,87.606699 21.7330597,90.1169126 Z M60.5582239,36.5974951 C60.413806,36.5797573 60.2687761,36.5620194 60.1243582,36.5442816 C59.9462836,36.8250291 59.7516866,37.0966019 59.5925821,37.3871359 C54.1781343,47.2530583 46.6898209,55.2381553 37.412806,61.538767 C34.358,63.6134854 31.1055373,65.4031748 27.8983582,67.2448544 C26.0466269,68.3079029 25.768806,69.9361165 27.4779552,71.202233 C28.362209,71.856699 29.4288209,72.3558058 30.4893134,72.6646893 C33.568597,73.5613689 36.7390597,73.685534 39.8581194,72.9980388 C42.3756418,72.4432718 45.0889851,72.4793592 47.1946716,70.4994466 C49.999806,67.8626214 52.2297164,64.7921359 53.5900597,61.2665825 C55.5060448,56.3024272 57.1399254,51.217165 58.6293881,46.1062136 C59.532,43.0118738 59.932209,39.7719612 60.5582239,36.5974951 Z M62.8046567,36.2384563 C62.8481045,36.9516408 62.9215373,37.6636019 62.9307164,38.3773981 C63.0078209,44.3336505 62.8927761,50.2990777 63.201806,56.2424854 C63.4318955,60.6726699 64.2108955,65.0747184 66.194806,69.1434175 C67.4205224,71.6560777 69.187806,73.193767 72.2407761,73.1368835 C78.2604328,73.0237282 84.0861045,72.0438641 89.6884179,69.8321359 C90.4123433,69.5464951 91.0591642,69.0669612 91.9128209,68.5794757 C75.6303134,63.4122524 67.7362836,51.1884175 62.8046567,36.2384563 Z M89.616209,71.3802233 C89.749,74.9186214 89.9301343,77.8655534 89.9503284,80.8130971 C89.9705224,83.7863301 89.7330896,86.7620097 89.7857164,89.7334078 C89.841403,92.910932 91.5787015,94.841301 94.6316716,95.2468252 C95.1053134,95.3098252 95.7784478,94.8786117 96.1560149,94.4822621 C97.6118209,92.951301 98.7824627,91.0710874 100.440821,89.8288252 C102.545896,88.2519903 105.021194,87.1687573 107.432851,85.8194563 C101.785254,81.1115825 101.379537,74.278835 100.386358,67.1769612 C96.4503582,68.7128155 92.7878955,70.1422427 89.616209,71.3802233 Z" id="Shape" fill="#3C3335"></path>
            <path d="M64.1625522,84.8065631 C64.0921791,90.252699 62.7189851,94.3691068 59.4891642,97.7625437 C55.5586716,101.891796 49.7703284,101.29299 46.524597,96.5869515 C42.0874179,90.1542233 43.6931493,78.7922039 50.4826269,74.8782524 C54.540403,72.539301 59.4842687,73.6463883 61.9975075,77.6092718 C63.5610149,80.0736117 64.0805522,82.7930097 64.1625522,84.8065631 Z M60.2400149,87.6146505 C55.7379701,86.3381359 55.5066567,82.1360971 54.8604478,78.2778058 C53.6004627,82.0993981 52.521,86.0739029 47.9075821,87.0959709 C48.3316567,89.3621359 48.9576716,91.6484854 49.138194,93.9703107 C49.3223881,96.3441262 50.6154179,98.0383981 53.0001493,98.2732718 C54.8365821,98.4543204 57.3479851,97.0652621 57.7359552,95.747767 C58.5369851,93.0253107 59.4016567,90.3230388 60.2400149,87.6146505 Z" id="XMLID_191_" fill="#E7412B"></path>
            <path d="M25.0081642,91.9084369 C25.7143433,92.6876796 26.4205224,93.4663107 27.1799403,94.3036602 C28.1688358,93.9005825 29.1699701,93.492 30.6508657,92.888301 C29.8333134,94.2021262 29.2880746,95.0780097 28.7073433,96.0107767 C29.4392239,96.8407864 30.166209,97.664068 31.2554627,98.8989903 C29.6870597,98.5595243 28.6057612,98.3252621 27.4871343,98.0830485 C26.9284328,98.9901262 26.3862537,99.869068 25.6855821,101.006738 C25.4518209,99.5883204 25.6017463,98.2806117 25.0191791,97.5949515 C24.4549701,96.930699 23.1368507,96.9056214 21.9576418,96.3753204 C24.6660896,95.9135243 25.6243881,94.5067282 24.5143284,91.8968155 C24.6795522,91.9004854 24.8435522,91.904767 25.0081642,91.9084369 Z" id="XMLID_190_" fill="#91BFE0"></path>
            <path d="M11.7731194,113.937641 L11.0871343,113.577379 L11.3276269,113.119864 L11.7822985,113.280117 L16.8289701,108.400981 L17.7615672,108.890913 L16.6123433,115.817243 L17.0021493,116.100437 L16.7616567,116.557951 L16.0756716,116.197689 C15.9171791,116.114505 15.8517015,115.983 15.8792388,115.802563 L16.2231493,113.760874 L13.6982836,112.434204 L12.2106567,113.875252 C12.0766418,114.000641 11.9316119,114.020825 11.7731194,113.937641 Z M16.9746119,109.31968 L16.9305522,109.296437 L14.1602985,111.982194 L16.3332985,113.123534 L16.9746119,109.31968 Z" id="Shape" fill="#5D5D5D"></path>
            <path d="M23.7708209,112.727184 C23.3155373,112.180981 22.8627015,111.809709 22.4135373,111.613369 C21.9643731,111.417029 21.5794627,111.366262 21.2600299,111.46168 C20.9399851,111.556485 20.7062239,111.772398 20.5587463,112.109417 C20.4112687,112.445825 20.4051493,112.774282 20.5403881,113.093563 C20.6756269,113.412845 20.8769552,113.712553 21.1449851,113.992078 C21.4130149,114.271602 21.6761493,114.558466 21.9343881,114.852058 C22.1926269,115.14565 22.375597,115.483893 22.4826866,115.866786 C22.5897761,116.24968 22.5548955,116.644806 22.3768209,117.050942 C22.1351045,117.603262 21.7550896,117.951903 21.2355522,118.097476 C20.7160149,118.243049 20.1560896,118.18433 19.5551642,117.92132 C18.9542388,117.658922 18.5362836,117.282757 18.3019104,116.794049 C18.0675373,116.304728 18.0142985,115.741398 18.1409701,115.102835 L18.8465373,115.226388 C18.6733582,116.299835 18.9719851,117.005068 19.7430299,117.342087 C20.1799552,117.532922 20.5648657,117.575126 20.8977612,117.467476 C21.2300448,117.359825 21.4803284,117.115165 21.6473881,116.732883 C21.8334179,116.307786 21.7599851,115.871068 21.4289254,115.422728 C21.2820597,115.228835 21.1125522,115.030049 20.919791,114.826369 C20.7270299,114.622689 20.5361045,114.409223 20.3482388,114.185971 C20.1597612,113.962718 19.9994328,113.735796 19.8660299,113.503369 C19.7326269,113.271553 19.6567463,113.01099 19.639,112.721068 C19.6212537,112.431146 19.68,112.131437 19.8152388,111.822553 C20.049,111.288583 20.4167761,110.955845 20.9185672,110.824951 C21.4203582,110.693447 21.9674328,110.75767 22.559791,111.016398 C23.1515373,111.275126 23.7102388,111.696553 24.2358955,112.280068 L23.7708209,112.727184 Z" id="Path" fill="#5D5D5D"></path>
            <path d="M28.7263134,114.583544 C28.2379851,114.066699 27.7631194,113.724786 27.3023284,113.557194 C26.8415373,113.389602 26.454791,113.362689 26.1414776,113.47768 C25.8281642,113.59267 25.6084776,113.82265 25.4824179,114.168233 C25.3563582,114.513816 25.3704328,114.841049 25.5258657,115.151767 C25.6806866,115.461874 25.9003731,115.748126 26.1855373,116.010524 C26.4707015,116.272922 26.7515821,116.54266 27.0275672,116.819738 C27.3035522,117.096816 27.5073284,117.422825 27.6388955,117.798379 C27.7698507,118.173932 27.7594478,118.570282 27.6070746,118.986816 C27.4008507,119.553204 27.0428657,119.925087 26.5337313,120.102466 C26.024597,120.280456 25.4622239,120.25599 24.846,120.032126 C24.2297761,119.80765 23.7891791,119.458398 23.5248209,118.984981 C23.2604627,118.511563 23.1717313,117.951903 23.2592388,117.307223 L23.9709254,117.386738 C23.8650597,118.468748 24.2077463,119.154408 24.9983731,119.442495 C25.4463134,119.605806 25.8330597,119.623544 26.1586119,119.495097 C26.4835522,119.367262 26.7179254,119.107311 26.8611194,118.715243 C27.0202239,118.279748 26.9198657,117.848534 26.5606567,117.421602 C26.4021642,117.236883 26.2204179,117.049107 26.0154179,116.85766 C25.809806,116.666825 25.6066418,116.465592 25.4047015,116.254573 C25.2027612,116.043553 25.0283582,115.826417 24.8808806,115.603165 C24.732791,115.379913 24.641,115.124854 24.6048955,114.836767 C24.568791,114.54868 24.6085672,114.245913 24.7242239,113.929078 C24.9237164,113.38165 25.2700746,113.026893 25.7632985,112.864194 C26.2559104,112.702107 26.8060448,112.731466 27.4130896,112.952272 C28.0201343,113.173689 28.6039254,113.559641 29.1650746,114.108903 L28.7263134,114.583544 Z" id="Path" fill="#5D5D5D"></path>
            <path d="M29.2299403,117.60265 C29.5640597,116.444184 30.0682985,115.62335 30.7426567,115.138311 C31.4170149,114.653883 32.1886716,114.537058 33.0576269,114.787835 C33.9265821,115.038612 34.5189403,115.548728 34.8347015,116.318796 C35.1504627,117.088864 35.1412836,118.052825 34.8065522,119.21068 C34.4718209,120.369146 33.9663582,121.189981 33.2889403,121.673184 C32.6115224,122.157 31.8386418,122.273214 30.9696866,122.022437 C30.1007313,121.77166 29.510209,121.262155 29.1975075,120.493311 C28.884194,119.723854 28.895209,118.760505 29.2299403,117.60265 Z M34.0422388,118.990485 C34.3231194,118.016738 34.3598358,117.216087 34.1517761,116.587311 C33.9437164,115.959146 33.5227015,115.55301 32.8893433,115.370126 C32.2559851,115.187854 31.683209,115.307126 31.1722388,115.727942 C30.6612687,116.149369 30.2647313,116.84665 29.9838507,117.819786 C29.7029701,118.793534 29.6662537,119.594184 29.8749254,120.222961 C30.0829851,120.851738 30.5033881,121.257262 31.1373582,121.440146 C31.7707164,121.623029 32.3428806,121.503757 32.8544627,121.08233 C33.3654328,120.661515 33.7613582,119.964233 34.0422388,118.990485 Z" id="Shape" fill="#5D5D5D"></path>
            <path d="M39.4077313,116.993447 C39.0191493,116.910262 38.6678955,116.93534 38.355194,117.068068 C38.0424925,117.200796 37.7860896,117.415485 37.587209,117.711524 C37.2341194,118.252223 36.9838358,118.865709 36.8369701,119.551981 C36.6833731,120.27067 36.6503284,120.97835 36.7384478,121.674408 C36.7929104,122.051796 36.9336567,122.376583 37.1600746,122.648155 C37.3864925,122.92034 37.6942985,123.097718 38.0828806,123.180903 C39.0093582,123.379078 39.7271642,122.859175 40.2362985,121.620583 L40.8733284,121.91968 C40.1916269,123.426175 39.2155821,124.043942 37.945806,123.771757 C37.524791,123.681845 37.1680299,123.519146 36.8767463,123.28366 C36.5848507,123.048786 36.3688358,122.783942 36.2287015,122.489738 C36.0885672,122.195534 35.9943284,121.86035 35.9459851,121.484184 C35.8597015,120.842563 35.895806,120.152621 36.0542985,119.414359 C36.2011642,118.728087 36.4434925,118.119495 36.7806716,117.588583 C36.9746567,117.284592 37.1943433,117.031981 37.4409552,116.830748 C37.6875672,116.629515 37.9929254,116.485165 38.3570299,116.397087 C38.7211343,116.309621 39.114,116.310233 39.5350149,116.400757 C40.241194,116.551835 40.9241194,116.890689 41.583791,117.417932 L41.2062239,117.94701 C40.6285522,117.444233 40.0294627,117.126175 39.4077313,116.993447 Z" id="Path" fill="#5D5D5D"></path>
            <polygon id="Path" fill="#5D5D5D" points="43.6576567 124.661097 41.6566119 124.335699 41.7398358 123.826194 42.3591194 123.856777 43.3339403 117.86566 42.7385224 117.688282 42.8217463 117.178777 44.822791 117.504175 44.7395672 118.01368 44.1184478 117.993495 43.1436269 123.984 43.7408806 124.151592"></polygon>
            <path d="M45.3441642,124.927777 L44.5737313,124.841534 L44.6312537,124.328359 L45.1128507,124.312456 L48.0379254,117.93233 L49.0849552,118.049767 L50.5352537,124.919825 L51.0015522,125.042155 L50.9440299,125.55533 L50.173597,125.469087 C49.9955224,125.448903 49.886597,125.350427 49.8468209,125.172437 L49.4239701,123.146039 L46.5894627,122.828592 L45.7284627,124.711252 C45.6495224,124.875786 45.5216269,124.947961 45.3441642,124.927777 Z M48.5078955,118.734816 L48.4589403,118.729311 L46.8556567,122.23835 L49.2948507,122.511146 L48.5078955,118.734816 Z" id="Shape" fill="#5D5D5D"></path>
            <path d="M54.9149104,118.96235 C54.5177612,118.942777 54.1756866,119.023515 53.8880746,119.204563 C53.6004627,119.386223 53.382,119.638835 53.2332985,119.962398 C52.9713881,120.552641 52.8239104,121.198544 52.7890299,121.899495 C52.7523134,122.633476 52.8337015,123.337485 53.0319701,124.010301 C53.146403,124.374233 53.3373284,124.672107 53.6047463,124.903922 C53.8721642,125.135738 54.2038358,125.261738 54.6009851,125.281922 C55.5476567,125.329019 56.1724478,124.700243 56.4759701,123.395592 L57.1533881,123.588262 C56.7219701,125.18467 55.8579104,125.950456 54.561209,125.886233 C54.1310149,125.864825 53.7528358,125.761456 53.4272836,125.576126 C53.1017313,125.390796 52.8459403,125.164485 52.6599104,124.895971 C52.4744925,124.628068 52.3276269,124.312456 52.2193134,123.949136 C52.0314478,123.329534 51.9561791,122.643262 51.9935075,121.889097 C52.0283881,121.188146 52.1697463,120.548971 52.4169701,119.970961 C52.5595522,119.640058 52.736403,119.355029 52.9475224,119.117097 C53.1580299,118.879165 53.4364627,118.687718 53.782209,118.542146 C54.1279552,118.396573 54.5153134,118.334796 54.9455075,118.356204 C55.6669851,118.392291 56.395194,118.617379 57.1313582,119.032078 L56.8437463,119.614369 C56.1926418,119.211903 55.5507164,118.994155 54.9149104,118.96235 Z" id="Path" fill="#5D5D5D"></path>
            <polygon id="Path" fill="#5D5D5D" points="60.3128358 125.869107 58.2854776 125.844641 58.291597 125.327796 58.9084328 125.265408 58.9824776 119.196 58.3674776 119.109146 58.373597 118.592301 60.4009552 118.616767 60.3942239 119.133 59.7773881 119.205175 59.7039552 125.274583 60.3189552 125.35165"></polygon>
            <path d="M61.7068358,122.251806 C61.6493134,121.048078 61.8610448,120.107971 62.3432537,119.432097 C62.8254627,118.756223 63.5175672,118.396573 64.421403,118.353146 C65.3246269,118.309718 66.0503881,118.602087 66.5974627,119.229029 C67.1451493,119.855971 67.4474478,120.771612 67.5049701,121.97534 C67.5624925,123.17968 67.3483134,124.119175 66.8636567,124.79566 C66.3783881,125.472146 65.6838358,125.831796 64.7806119,125.874612 C63.8773881,125.917427 63.1534627,125.62567 62.6094478,124.998728 C62.0654328,124.371175 61.7643582,123.455534 61.7068358,122.251806 Z M66.7106716,122.013262 C66.6623284,121.000981 66.4383582,120.230913 66.0381493,119.703058 C65.6379403,119.175204 65.1086119,118.926874 64.4501642,118.958068 C63.7917164,118.989262 63.2880896,119.287136 62.9405075,119.850466 C62.5923134,120.413796 62.443,121.201602 62.4907313,122.213883 C62.5390746,123.226165 62.7630448,123.996233 63.1632537,124.524087 C63.5628507,125.051942 64.0921791,125.300272 64.7506269,125.268466 C65.4090746,125.237272 65.9127015,124.94001 66.2602836,124.376068 C66.6090896,123.81335 66.758403,123.025544 66.7106716,122.013262 Z M65.5932687,116.745728 L63.6375075,117.883398 L63.3376567,117.439951 L65.1838806,116.099214 L65.5932687,116.745728 Z" id="Shape" fill="#5D5D5D"></path>
            <path d="M71.2732985,117.969641 L73.9676716,117.573291 C74.9443284,117.429553 75.736791,117.625893 76.3450597,118.162311 C76.9527164,118.698728 77.3431343,119.550146 77.5150896,120.716563 C77.6870448,121.882981 77.5591493,122.810243 77.131403,123.498961 C76.7036567,124.18768 76.0017612,124.604214 75.0251045,124.747951 L72.3313433,125.144301 L72.2560746,124.633573 L72.8557761,124.475155 L71.9709104,118.470583 L71.349791,118.481592 L71.2732985,117.969641 Z M72.7492985,118.304825 L73.6470149,124.398087 L74.9841045,124.201136 C75.6982388,124.095932 76.2055373,123.754019 76.5053881,123.174175 C76.8052388,122.594942 76.8823433,121.813252 76.7373134,120.83033 C76.5928955,119.847408 76.2930448,119.12199 75.8389851,118.653466 C75.3849254,118.184942 74.8005224,118.003282 74.0857761,118.108485 L72.7492985,118.304825 Z" id="Shape" fill="#5D5D5D"></path>
            <path d="M78.0591045,116.913932 L82.3414627,115.981777 C82.5360597,115.939573 82.6547761,116.018476 82.6982239,116.219097 L82.9797164,117.510291 L82.4748657,117.620388 L82.1762388,116.576913 L79.5540746,117.147583 L80.1397015,119.836398 L82.8977164,119.235757 L83.0139851,119.769728 L80.2559701,120.370369 L80.8672985,123.175398 L83.5769701,122.585767 L83.4301045,121.539845 L83.9349552,121.429748 L84.2078806,122.681796 C84.2513284,122.882417 84.173,123.004136 83.9722836,123.048175 L79.6024179,123.999291 L79.4922687,123.49468 L80.0791194,123.295893 L78.7873134,117.36533 L78.1680299,117.418544 L78.0591045,116.913932 Z" id="Path" fill="#5D5D5D"></path>
            <path d="M89.3145224,114.477117 C88.9363433,114.598835 88.6444478,114.795786 88.4394478,115.066748 C88.2344478,115.33832 88.119403,115.651485 88.0955373,116.007466 C88.0594328,116.652146 88.1493881,117.309058 88.364791,117.976981 C88.590597,118.676709 88.9155373,119.306097 89.339,119.865146 C89.574597,120.164854 89.8585373,120.375874 90.1908209,120.498816 C90.5224925,120.621146 90.8780299,120.621757 91.256209,120.500039 C92.157597,120.209505 92.5204776,119.400291 92.342403,118.07301 L93.0442985,118.01368 C93.2058507,119.659631 92.6685672,120.681087 91.4324478,121.079272 C91.0224478,121.211388 90.6326418,121.248087 90.2624179,121.189981 C89.892194,121.131874 89.5727612,121.010155 89.3041194,120.825437 C89.0354776,120.640718 88.7870299,120.397282 88.5569403,120.095738 C88.1622388,119.582563 87.8483134,118.967243 87.617,118.248553 C87.401597,117.580631 87.3073582,116.932282 87.3342836,116.304117 C87.350806,115.944466 87.4150597,115.615398 87.5282687,115.318136 C87.6414776,115.020874 87.8336269,114.743184 88.1053284,114.485068 C88.3770299,114.226951 88.7178806,114.031835 89.1278806,113.899718 C89.8150896,113.678301 90.5763433,113.631204 91.4110299,113.759039 L91.348,114.405553 C90.5977612,114.258146 89.9197313,114.282 89.3145224,114.477117 Z" id="Path" fill="#5D5D5D"></path>
            <polygon id="Path" fill="#5D5D5D" points="96.8383284 118.980699 94.9449851 119.705505 94.7601791 119.223524 95.3109254 118.937883 93.1385373 113.27033 92.5345522 113.416515 92.3497463 112.933922 94.2430896 112.209117 94.4278955 112.691097 93.8808209 112.985913 96.053209 118.653466 96.6535224 118.498107"></polygon>
            <path d="M98.7800149,114.318087 L99.3142388,114.076485 C99.7848209,113.863631 100.082836,113.58166 100.207672,113.231184 C100.332507,112.880709 100.290284,112.473961 100.081612,112.012777 C99.8729403,111.551592 99.5932836,111.24699 99.2432537,111.100194 C98.8932239,110.953398 98.4826119,110.986427 98.0114179,111.199282 L96.9521493,111.678204 L99.475791,117.253398 L100.292119,116.960417 L100.505075,117.431388 L98.431209,118.369049 L98.2182537,117.898078 L98.7512537,117.580631 L96.2484179,112.050699 L95.6542239,112.232359 L95.4412687,111.761388 L97.7862239,110.700786 C98.4746567,110.389456 99.076194,110.320951 99.5914478,110.49466 C100.106701,110.668981 100.506299,111.069612 100.790239,111.697165 C101.224716,112.656845 101.08397,113.447097 100.369224,114.067922 C100.73394,114.070369 101.053373,114.198204 101.328746,114.452039 L102.772313,115.761583 L103.371403,115.567078 L103.584358,116.037437 L102.706224,116.43501 C102.548955,116.505961 102.409433,116.485777 102.285821,116.374456 L100.65806,114.875301 C100.420627,114.655718 100.204612,114.537058 100.011239,114.51932 C99.8178657,114.501583 99.5492239,114.570087 99.2047015,114.726058 L99.005209,114.815971 L98.7800149,114.318087 Z" id="Path" fill="#5D5D5D"></path>
            <path d="M103.802209,108.201583 C103.454015,108.393641 103.204955,108.641971 103.055642,108.947184 C102.906328,109.252398 102.85309,109.582689 102.897149,109.936223 C102.984657,110.57601 103.198224,111.203563 103.537239,111.818272 C103.892164,112.461728 104.330925,113.01833 104.854134,113.486243 C105.14297,113.735796 105.461791,113.888709 105.811209,113.946204 C106.160627,114.003087 106.509433,113.935806 106.857015,113.744359 C107.686806,113.287456 107.888134,112.424417 107.461,111.154631 L108.138418,110.963184 C108.610836,112.547971 108.278552,113.653223 107.140955,114.279553 C106.764,114.487515 106.387657,114.597612 106.013149,114.611068 C105.638642,114.624524 105.302075,114.565806 105.002836,114.435524 C104.704209,114.305243 104.412925,114.113796 104.130209,113.861184 C103.64494,113.433029 103.21903,112.888049 102.854925,112.226854 C102.51591,111.612146 102.299896,110.993767 102.206881,110.37233 C102.154254,110.015738 102.154866,109.681165 102.208716,109.367388 C102.263179,109.054223 102.39903,108.744728 102.616269,108.439515 C102.834119,108.134301 103.131522,107.878019 103.508478,107.670058 C104.140612,107.322029 104.879224,107.130583 105.72309,107.096942 L105.784284,107.743456 C105.020582,107.742845 104.359075,107.895146 103.802209,108.201583 Z" id="Path" fill="#5D5D5D"></path>
        </g>
    </g>
</svg>