<?xml version="1.0" encoding="UTF-8"?>
<svg width="44px" height="44px" viewBox="0 0 44 44" version="1.1" xmlns="http://www.w3.org/2000/svg" xmlns:xlink="http://www.w3.org/1999/xlink">
    <!-- Generator: Sketch 53.2 (72643) - https://sketchapp.com -->
    <title>instagram</title>
    <desc>Created with Sketch.</desc>
    <g id="Design-Wider---AAFF" stroke="none" stroke-width="1" fill="none" fill-rule="evenodd">
        <g id="Desktop-HD---MVP-w---contractar" transform="translate(-201.000000, -2839.000000)">
            <g id="instagram" transform="translate(201.000000, 2839.000000)">
                <circle id="Oval" stroke="#000000" stroke-width="1" fill="#FFFFFF" fill-rule="evenodd" cx="22" cy="22" r="21.5"></circle>
                <path d="M22.0027267,15.7327532 C18.534424,15.7327532 15.736878,18.5309234 15.736878,22 C15.736878,25.4690766 18.534424,28.2672468 22.0027267,28.2672468 C25.4710293,28.2672468 28.2685753,25.4690766 28.2685753,22 C28.2685753,18.5309234 25.4710293,15.7327532 22.0027267,15.7327532 Z M22.0027267,26.0745286 C19.7614179,26.0745286 17.929107,24.2472634 17.929107,22 C17.929107,19.7527366 19.7559646,17.9254714 22.0027267,17.9254714 C24.2494888,17.9254714 26.0763463,19.7527366 26.0763463,22 C26.0763463,24.2472634 24.2440354,26.0745286 22.0027267,26.0745286 L22.0027267,26.0745286 Z M29.9863667,15.4763906 C29.9863667,16.2891145 29.33197,16.9382027 28.5248807,16.9382027 C27.7123381,16.9382027 27.0633947,16.28366 27.0633947,15.4763906 C27.0633947,14.6691212 27.7177914,14.0145785 28.5248807,14.0145785 C29.33197,14.0145785 29.9863667,14.6691212 29.9863667,15.4763906 Z M34.1363327,16.9600208 C34.0436264,15.0018471 33.5964554,13.2673088 32.1622359,11.8382238 C30.7334697,10.4091388 28.9993183,9.96186793 27.0415815,9.86368651 C25.0238582,9.74914153 18.9761418,9.74914153 16.9584185,9.86368651 C15.006135,9.9564134 13.2719836,10.4036843 11.8377641,11.8327693 C10.4035446,13.2618543 9.96182686,14.9963926 9.86366735,16.9545663 C9.74914792,18.9727398 9.74914792,25.0218057 9.86366735,27.0399792 C9.95637355,28.9981529 10.4035446,30.7326912 11.8377641,32.1617762 C13.2719836,33.5908612 15.0006817,34.0381321 16.9584185,34.1363135 C18.9761418,34.2508585 25.0238582,34.2508585 27.0415815,34.1363135 C28.9993183,34.0435866 30.7334697,33.5963157 32.1622359,32.1617762 C33.591002,30.7326912 34.0381731,28.9981529 34.1363327,27.0399792 C34.2508521,25.0218057 34.2508521,18.9781943 34.1363327,16.9600208 Z M31.5296524,29.2054248 C31.1042945,30.2745113 30.2808453,31.0981442 29.206544,31.5290515 C27.5978187,32.1672307 23.7805044,32.0199586 22.0027267,32.0199586 C20.2249489,32.0199586 16.4021813,32.1617762 14.7989093,31.5290515 C13.7300613,31.1035987 12.9066121,30.2799658 12.475801,29.2054248 C11.8377641,27.5963405 11.9850034,23.7781745 11.9850034,22 C11.9850034,20.2218255 11.8432175,16.398205 12.475801,14.7945752 C12.9011588,13.7254887 13.724608,12.9018558 14.7989093,12.4709485 C16.4076346,11.8327693 20.2249489,11.9800414 22.0027267,11.9800414 C23.7805044,11.9800414 27.603272,11.8382238 29.206544,12.4709485 C30.275392,12.8964013 31.0988412,13.7200342 31.5296524,14.7945752 C32.1676892,16.4036595 32.0204499,20.2218255 32.0204499,22 C32.0204499,23.7781745 32.1676892,27.601795 31.5296524,29.2054248 Z" id="Shape" fill="#000000" fill-rule="nonzero"></path>
            </g>
        </g>
    </g>
</svg>