<?xml version="1.0" encoding="UTF-8"?>
<svg width="36px" height="36px" viewBox="0 0 36 36" version="1.1" xmlns="http://www.w3.org/2000/svg" xmlns:xlink="http://www.w3.org/1999/xlink">
    <!-- Generator: Sketch 58 (84663) - https://sketch.com -->
    <title>linkedin K</title>
    <desc>Created with Sketch.</desc>
    <g id="linkedin-K" stroke="none" stroke-width="1" fill="none" fill-rule="evenodd">
        <circle id="Oval" stroke="#000000" fill="#000000" cx="18" cy="18" r="17.5"></circle>
        <path d="M13.0291071,25.9995982 L9.29732143,25.9995982 L9.29732143,13.9821875 L13.0291071,13.9821875 L13.0291071,25.9995982 Z M11.1612054,12.3429018 C9.96790179,12.3429018 9,11.3545089 9,10.1612053 C9,8.96760458 9.96760461,8 11.1612054,8 C12.3548061,8 13.3224107,8.96760458 13.3224107,10.1612053 C13.3224107,11.3545089 12.3541071,12.3429018 11.1612054,12.3429018 Z M26.9959821,25.9995982 L23.2722321,25.9995982 L23.2722321,20.1495982 C23.2722321,18.7554018 23.2441071,16.9674553 21.3320089,16.9674553 C19.3917857,16.9674553 19.0944643,18.4821875 19.0944643,20.0491518 L19.0944643,25.9995982 L15.3666964,25.9995982 L15.3666964,13.9821875 L18.9458036,13.9821875 L18.9458036,15.6214732 L18.9980357,15.6214732 C19.49625,14.6772768 20.7132589,13.6808482 22.5289286,13.6808482 C26.3057143,13.6808482 27,16.1679018 27,19.3982589 L27,25.9995982 L26.9959821,25.9995982 Z" id="Shape" fill="#FFFFFF" fill-rule="nonzero"></path>
    </g>
</svg>