<svg width="36" height="36" xmlns="http://www.w3.org/2000/svg"><g fill="none" fill-rule="evenodd"><circle stroke="#FFF" cx="18" cy="18" r="17.5"/><path d="M13.03 26H9.296V13.982h3.732V26zM11.16 12.343C9.968 12.343 9 11.355 9 10.16a2.161 2.161 0 0 1 4.322 0c0 1.194-.968 2.182-2.16 2.182zM26.996 26h-3.724v-5.85c0-1.395-.028-3.183-1.94-3.183-1.94 0-2.238 1.515-2.238 3.082V26h-3.727V13.983h3.579v1.64h.052c.498-.945 1.715-1.941 3.53-1.941 3.778 0 4.472 2.487 4.472 5.717V26h-.004z" fill="#FFF" fill-rule="nonzero"/></g></svg>