<?xml version="1.0" encoding="UTF-8"?>
<svg width="72px" height="105px" viewBox="0 0 72 105" version="1.1" xmlns="http://www.w3.org/2000/svg" xmlns:xlink="http://www.w3.org/1999/xlink">
    <!-- Generator: Sketch 58 (84663) - https://sketch.com -->
    <title>animacions OUTLINED</title>
    <desc>Created with Sketch.</desc>
    <g id="animacions-OUTLINED" stroke="none" stroke-width="1" fill="none" fill-rule="evenodd">
        <path d="M22.1996173,19.6774619 C21.5930498,19.0402707 20.600696,19.0448964 19.7338389,19.04374 C18.8390937,19.0622428 17.9431865,19.1709469 17.0484413,19.2761818 C15.2577889,19.4947464 13.4613265,19.7526296 11.6369759,19.7977303 C10.7259626,19.8185459 9.8056532,19.7884788 8.8946399,19.6288919 C7.98827463,19.4669922 7.0714513,19.1963883 6.2801247,18.6632755 C5.8513442,18.3868895 5.56200452,18.0966264 5.20062042,17.7994247 C4.87525853,17.4617481 4.5266565,17.1367921 4.25823294,16.7551713 C3.69698367,16.0185274 3.20661682,15.1754923 3.07066203,14.2006244 C2.90449506,13.2442595 3.23101896,12.129464 4.01769754,11.4772393 C4.78578401,10.8227017 5.73281951,10.5370643 6.65429087,10.360131 C7.11793157,10.2884325 7.58505829,10.2676168 8.051023,10.2213598 L9.43962107,10.2456447 L12.1505828,10.5127793 C13.045328,10.5798521 13.9586654,10.731344 14.8383045,10.7290311 L16.1548581,10.7139976 C16.5940967,10.7174669 17.0321732,10.7128412 17.4632777,10.6295784 L18.7624013,10.4561144 L19.9987765,10.1022478 C20.4019928,9.97041513 20.7610529,9.75647617 21.1305711,9.57607359 L21.6104799,9.22105055 C21.7266805,9.10425144 21.9079536,8.92731814 21.9474618,8.85561968 L22.0102102,8.7446027 L22.1275729,8.66596568 C22.9851339,8.08775227 23.8415328,7.35226481 24.6061333,6.57977169 C25.0047016,6.20393298 25.3718957,5.79571431 25.7356039,5.38402636 C26.112094,4.98390268 26.454886,4.5537119 26.790706,4.11889542 C27.133498,3.68986107 27.477452,3.25967029 27.7772497,2.79825599 L28.7207992,1.41863879 C29.0914794,0.893621016 29.5713882,0.420642446 30.2500001,0.154664277 C30.9297741,-0.133286001 31.7675809,0.008954498 32.3439363,0.35010041 C32.5682036,0.476150934 32.6042258,0.523564433 32.7425046,0.613765725 C32.8610293,0.700497737 33.0074422,0.846207516 33.1329389,0.965319479 C33.3665022,1.22088981 33.5605574,1.48108584 33.7116182,1.77597468 C34.00793,2.35650094 34.189203,2.99022284 34.2136052,3.61122404 C34.2635715,4.2345381 34.192689,4.84166218 34.0881084,5.43259629 C33.9649357,6.01890469 33.7941207,6.5843974 33.5896075,7.13485657 C33.3665022,7.67375147 33.148045,8.21727207 32.8691633,8.72263059 C32.6146839,9.24417909 32.3125621,9.73219121 32.0150884,10.224829 C31.4096829,11.2008533 30.7310709,12.1190562 30.0350289,13.0199127 L30.0129507,13.0488233 L29.9815766,13.0788904 L27.135822,15.8149963 L25.6751795,17.1610771 C25.3974599,17.3900496 25.2022428,17.5866422 24.8571267,17.8422125 L24.5666251,18.0353358 L24.4922566,18.0815929 L24.4550724,18.1047214 C24.5875412,17.9948608 24.1064704,18.3834203 24.7420881,17.8630282 C24.7478981,17.8688103 24.7095519,17.9347266 24.7525461,17.8907824 C24.7943784,17.8433689 24.8292386,17.7797655 24.8455067,17.7126927 C24.8629368,17.6490892 24.8582888,17.5727651 24.8478307,17.5334465 L24.8606128,17.5820165 L24.8850149,17.6791563 L24.9477633,17.8954081 C25.7286318,20.322748 26.7023935,22.7836243 27.6192168,25.2190592 C29.4865617,30.0991804 31.425951,34.9573295 33.4129825,39.7935064 C35.4023381,44.628527 37.4404979,49.4438882 39.5739423,54.211836 C40.6418266,56.5952317 41.7341129,58.9659067 42.8775276,61.3053581 C44.0302383,63.6274632 45.2015411,65.9888868 46.5994352,68.0739243 C46.7760602,68.3271818 46.9573333,68.5746571 47.1420924,68.7932218 C47.3129074,69.0036915 47.5476327,69.2268819 47.6150291,69.2511668 C47.6591854,69.2870161 47.5813309,69.2222562 47.5429847,69.240759 C47.4755883,69.208379 47.2826952,69.2754518 47.2176228,69.3136139 C46.9701154,69.5738099 47.2164608,69.2742954 47.2710751,69.1736862 C47.5069625,68.8591381 47.5046385,68.7226798 47.5778449,68.5584672 C47.6475653,68.1872541 47.5708729,68.07855 47.250159,67.8657675 C46.9201491,67.6818956 46.38795,67.6298564 45.9429014,67.7431862 C45.4885567,67.8542032 45.1283347,68.1063043 44.9528716,68.4462938 L44.845967,68.726149 C44.837833,68.6151321 44.7913527,69.1112392 44.8180788,68.8718588 C44.8192409,68.8059425 44.7332524,68.6810484 44.6821241,68.6486684 C44.6612079,68.631322 44.6391298,68.6359478 44.672828,68.6371042 C44.6809621,68.6428863 44.7100122,68.6509813 44.7623025,68.6498249 C45.1364687,68.6868305 45.7953265,68.5318693 46.3612238,68.363031 C46.9503613,68.1837849 47.5464707,67.9663766 48.1402562,67.7293091 C50.515398,66.7694749 52.8440595,65.5795117 55.1366989,64.3456042 C57.4305002,63.1059147 59.6917654,61.7956831 61.9274664,60.4426637 C63.0511269,59.7626848 64.2084856,59.0746108 65.4657769,58.5044924 C66.0851265,58.2130728 66.7416604,57.9655975 67.4458365,57.7724742 C68.1546606,57.6244516 68.9297191,57.3816019 69.9627431,57.8256698 C70.4856461,58.0592681 70.8877005,58.6710178 70.9504488,59.1752199 C71.0364373,59.6863606 70.9655549,60.1200206 70.8609743,60.5027979 C70.6506511,61.2787603 70.282295,61.9124822 69.8732686,62.5115113 C69.4584322,63.1059147 68.9715513,63.6413403 68.4137881,64.1143189 C68.1349065,64.3513864 67.8385947,64.5734203 67.5132329,64.7665436 C67.191357,64.9666055 66.8230008,65.1308181 66.5406332,65.2533993 C65.2519677,65.7980763 63.9644642,66.1889486 62.6235084,66.474586 C61.9541925,66.6168265 61.2767426,66.7255306 60.5725665,66.7845084 C60.2181544,66.8099498 59.8590943,66.8249834 59.4721461,66.8006984 C59.279253,66.7891341 59.0782258,66.767162 58.8516345,66.7151228 C58.6227191,66.6468936 58.3740497,66.6122008 58.0324197,66.301122 C57.8616047,66.1380658 57.7210019,65.8767134 57.6919517,65.5933888 C57.6873037,65.4742768 57.6954377,65.3482263 57.7163539,65.2325836 C57.740756,65.1446952 57.7709682,65.0568067 57.8046664,64.9712312 C57.9417832,64.680968 58.0974921,64.5017219 58.2404189,64.35023 L58.3496476,64.239213 L58.4495801,64.1455424 L58.4972224,64.1073803 L58.6901155,63.954732 L59.0759018,63.6494353 C59.3083031,63.4424349 59.6510951,63.2516245 59.9625129,63.0596576 C60.2809028,62.8549701 60.5969686,62.6872882 60.9095484,62.5508298 C62.1714878,61.9460186 63.4485332,61.5285485 64.8266732,61.2325032 L71.2060903,59.8598246 L65.304258,62.6364054 C62.1807838,64.1062239 59.0073434,65.385232 55.684004,66.3566305 C54.0200104,66.8261398 52.3223185,67.2274199 50.5386381,67.3453754 C49.6485409,67.3974146 48.7293936,67.3893196 47.7939782,67.1372186 C47.3314995,66.9984474 46.8539147,66.8261398 46.4344302,66.5023403 C45.9951917,66.2120771 45.6698298,65.7587578 45.4246464,65.2961871 L45.4165123,65.2811535 L45.3921102,65.2117679 C45.3142557,64.9920468 45.0911504,64.6751859 44.8529391,64.515599 C44.6065936,64.3375093 44.2928518,64.2565594 43.9477358,64.247308 C43.2516937,64.2241794 42.4685012,64.5098169 41.746895,64.8902813 C41.3762148,65.0614325 41.0287748,65.3100642 40.6708767,65.5240032 C40.3199507,65.7541321 39.9655386,66.0154846 39.6436628,66.2675856 C38.9731849,66.7937598 38.3282711,67.3638783 37.6949774,67.9536559 C36.42258,69.1320549 35.218741,70.4006551 33.8789472,71.587149 C33.1945252,72.1688317 32.5124273,72.7701736 31.5677158,73.1656716 C31.1122091,73.3576385 30.4568373,73.4628733 29.8758339,73.1795487 C29.2983166,72.8950677 29.0147869,72.3943349 28.7998157,71.9606749 L28.9113683,72.1144796 C28.6220286,71.8126522 28.4837498,71.5154505 28.3721972,71.1662096 L28.2896947,70.630784 C28.2989908,70.4550071 28.335013,70.2803867 28.3629011,70.1057662 C28.3931133,69.7380225 28.6278387,69.49286 28.7614695,69.1864069 C28.9264744,68.9030823 29.1693338,68.7168976 29.372685,68.4809866 C29.7921695,68.0218851 30.3173965,67.7651584 30.7868472,67.4008839 C30.9530142,67.3014312 31.0378407,67.2609563 31.1819295,67.1869449 C31.3527445,67.1198722 31.5119395,67.0423916 31.7106426,67.0134809 C31.8884296,66.9764753 32.1370991,66.9556596 32.3973886,67.0747715 C32.6623261,67.1834757 32.8401132,67.4413588 32.9051856,67.6483592 C33.0318443,68.0692986 32.980716,68.4023495 32.9214537,68.7111155 C32.8575433,69.0221943 32.7622587,69.3101446 32.6483821,69.5865306 C32.4194667,70.1393026 32.124317,70.6515997 31.778039,71.129204 C31.083159,72.0647533 30.1686596,72.9355427 28.9357705,73.2847836 C28.3245549,73.4501526 27.648267,73.4316498 27.0486715,73.2269622 C26.7372537,73.1240402 26.4885842,72.9968333 26.1864625,72.8106486 C26.0679378,72.7204473 25.9703292,72.6730338 25.8332124,72.5469833 C25.6949336,72.4128378 25.5531688,72.2891001 25.4602083,72.0555019 C25.3533036,71.8623786 25.3823538,71.4876963 25.5264426,71.3096066 C25.6554254,71.104919 25.8146203,70.9985277 25.9563851,70.90717 C26.2468868,70.7302367 26.5280925,70.6250019 26.8092981,70.535957 C27.3705474,70.3555544 27.9259866,70.2329732 28.4837498,70.1265819 C30.7089928,69.7125811 32.9319117,69.5044243 35.1455346,69.2349768 C36.251765,69.1019878 37.3568335,68.9689987 38.4456338,68.7885961 C38.9894529,68.6972384 39.5297861,68.59316 40.0457171,68.4532323 C40.2978726,68.3815339 40.5581621,68.300584 40.7557032,68.1941927 C40.8626078,68.1537178 40.9393003,68.0612036 40.9509204,68.0739243 L41.1577576,67.7119627 C41.4947395,66.8469555 41.6550965,65.669713 41.7329509,64.6069567 C41.8026713,63.5141334 41.8305595,62.4143715 41.7817552,61.3146096 C41.7039007,59.1150857 41.4424492,56.9178748 40.9915906,54.7634516 C40.7626753,53.6856618 40.4814696,52.6217491 40.1561077,51.5705572 L39.6111266,50.0151631 L38.9708608,48.4979311 L38.9174085,48.3718806 L38.9534307,48.2897743 C39.6761989,46.6441789 41.230964,45.891345 42.6985785,45.3917687 C43.4585309,45.1755168 44.2138353,44.9349801 44.9981899,44.8945051 C45.7755724,44.8170245 46.5529549,44.6620633 47.3303375,44.7187282 L49.664809,44.7534211 C50.4758898,44.8389966 51.197496,44.9627343 51.9830125,45.2194611 C53.5029174,45.6866575 54.9089455,46.3666365 56.2359573,47.1876995 C61.5358701,50.4314767 65.6272959,55.7637608 66.9275814,61.8916665 C67.0495922,62.6595339 67.2715354,63.4181499 67.3098817,64.1964252 L67.4528085,66.5300945 C67.3540379,68.0797065 67.3528759,69.6501341 66.9856818,71.1662096 C66.5324991,74.2550257 65.29961,77.2096962 63.5182536,79.7908409 C59.9369488,84.9542866 54.0932168,88.4166285 47.8648606,89.2885743 C44.7530065,89.7337987 41.5330857,89.531424 38.5072201,88.6479139 C35.4627624,87.800253 32.6565161,86.2275126 30.2139779,84.2523355 C29.028731,83.2231157 27.8725343,82.1499516 26.8801805,80.934547 C26.3630875,80.3713671 25.8494805,79.6671032 25.4764764,78.9940628 C25.069774,78.3187095 24.7002558,77.6248534 24.3690839,76.9124945 C23.0362622,74.0757795 22.1589471,70.9985277 21.9869701,67.8391697 C21.801049,64.6832809 22.3762423,61.48923 23.5719473,58.5669394 C24.6909598,55.5810454 26.6698573,53.0542528 28.7219612,50.6928292 C32.9040236,46.0081442 38.818638,42.7689926 45.1504128,41.9560246 C48.3192052,41.5582137 51.5890922,41.8762311 54.6230919,42.8672889 L55.7653445,43.2304069 C56.1406727,43.3645524 56.4939228,43.5507372 56.8599549,43.7080112 C57.5896951,44.0641907 58.3008433,44.3058839 59.0433656,44.7603596 L61.0152911,45.9572614 L62.9465463,47.4455827 C67.8176786,51.6040935 70.9225607,57.5839766 71.7801217,63.868 C72.5935264,70.1531797 71.145666,76.7575333 67.5109088,82.0250575 C64.0155925,87.3712187 58.3322175,91.1226673 52.2549221,92.8677154 C50.7303692,93.3198782 49.1686322,93.6506163 47.5778449,93.8344882 C46.7830323,93.931628 45.9812476,93.9952315 45.1620328,93.9952315 C44.7588165,94.0125779 44.335846,93.9767287 43.9210096,93.9570694 L42.7659749,93.8564603 C39.4833058,93.419331 36.5097305,92.3924239 33.6418978,90.9896782 C30.7996293,89.5742118 28.164198,87.7100517 25.935469,85.4191702 C23.6707178,83.1571993 21.9497858,80.3632721 20.8145052,77.3889424 C20.5623498,76.6337956 20.1846976,75.9121853 20.0417707,75.1269715 L19.5049236,72.8013972 C19.2911144,72.0300605 19.3108685,71.2298131 19.2039639,70.4457557 C19.1516736,69.6570726 18.9971267,68.8683895 19.0308249,68.0808629 C19.0982213,66.5034967 19.0447689,64.9353819 19.220232,63.3510772 C19.4270692,61.7471132 19.8221515,60.1986577 20.3345964,58.6883642 C21.4117767,55.6909059 22.9932679,52.8611295 25.0918521,50.4580746 C27.1695202,48.0388296 29.6794548,46.0208648 32.4008746,44.4007109 L32.4415449,44.3764259 L32.5193993,44.3417331 C33.1155088,44.0745985 33.7801766,43.6952905 34.360018,43.292854 C34.9526415,42.8881046 35.5080807,42.4347853 35.9891515,41.9294268 C36.4969484,41.4402582 36.8734386,40.8689834 37.2243647,40.2965521 C37.5160284,39.7009923 37.7681838,39.0846168 37.8355802,38.4347049 C37.8843845,38.1120618 37.9180827,37.7871059 37.8774125,37.4552114 L37.8553344,36.9602607 L37.7449437,36.4664665 L37.6403631,35.9715158 C37.614799,35.8836273 37.5218384,35.6847219 37.4695481,35.5563585 C37.3184872,35.2464362 37.1616163,34.9307316 36.9710472,34.6335299 C36.6131491,34.0252494 36.1669385,33.4759467 35.6905158,32.9659625 C35.1943389,32.4767939 34.6574918,32.0315696 34.0590583,31.685798 C33.7825007,31.471859 33.4443567,31.377032 33.1329389,31.2290094 L32.6588401,31.0208526 L32.1533672,30.8994277 C31.8128992,30.8335114 31.4852133,30.7063045 31.1342873,30.6843323 L30.0791851,30.6253546 C29.375009,30.5848796 28.6545648,30.7583437 27.9410927,30.8057572 L25.8215924,31.3862834 L23.7636784,32.2501343 C23.0862284,32.5623695 22.4448007,32.9705882 21.7836189,33.3256112 C21.457095,33.5141088 21.120113,33.6817907 20.8028852,33.8864782 L19.8663077,34.5340772 L17.9919908,35.8269624 L17.9338905,35.8674374 L17.9257564,35.8732195 C17.2936248,36.2860639 16.6231469,36.7648246 16.0037973,37.2678702 C15.3600455,37.7501002 14.761612,38.291308 14.1620165,38.8290464 C13.8668668,39.1031196 13.544991,39.3505949 13.2719194,39.6477966 L12.4248164,40.5128039 C11.8519471,41.0817659 11.2918598,41.6634486 10.7933589,42.2994833 L10.0171384,43.2292505 C9.76614497,43.544955 9.48145332,43.8352182 9.25834802,44.1717384 L7.88369402,46.1619489 C7.66523675,46.500782 7.40029921,46.8107044 7.22018817,47.1715095 L6.64034679,48.2319529 L5.47717803,50.3528397 L5.43534578,50.4291639 L5.43302177,50.4326332 C4.45112606,52.07129 3.67025752,53.9539528 3.03347781,55.8204257 C2.3955361,57.704245 1.97605166,59.6528242 1.64371773,61.6129677 C1.39621029,63.583519 1.22307128,65.5725731 1.31370781,67.5616272 C1.34508199,68.5561543 1.38226621,69.5506814 1.53681311,70.535957 L1.72041018,72.0173398 C1.79942664,72.5088212 1.92259935,72.9922076 2.02136993,73.4802197 L2.33394974,74.9419432 C2.44550239,75.4276425 2.61980341,75.8971518 2.75924422,76.374756 C3.06136598,77.3253389 3.31468345,78.2932681 3.73416789,79.2022196 C4.13389821,80.1065454 4.45577409,81.0906646 4.91941478,81.9313869 L6.34635908,84.6200793 L7.99757069,87.0994584 C8.51931172,87.94365 9.23394588,88.669886 9.84167541,89.4620384 C10.1623893,89.8459721 10.464511,90.2484086 10.801493,90.6184652 L11.8577571,91.6893164 C12.5735533,92.3912675 13.2324111,93.1556656 14.0307098,93.7685719 C14.8034443,94.4092323 15.5587487,95.0730213 16.3465892,95.6951789 L18.8263117,97.4113163 C19.6397164,98.0045633 20.5635118,98.4231898 21.4268828,98.9377997 L22.7457605,99.6721308 L24.1250625,100.286193 C25.0558299,100.667814 25.940117,101.172016 26.9092307,101.453028 L29.7782254,102.408237 C31.7408548,102.851148 33.6941881,103.413172 35.7137559,103.561194 C37.7147315,103.888463 39.7401093,103.826016 41.7631631,103.857239 C42.7717849,103.813295 43.7769208,103.67568 44.7855427,103.588948 L46.2961514,103.4363 L47.7823581,103.125221 C48.7712258,102.907813 49.7728757,102.734349 50.7524474,102.479935 L53.6446822,101.538604 C54.123429,101.372078 54.6184439,101.247184 55.0832466,101.045966 L56.4718446,100.423808 L59.2513648,99.1783365 L59.3420013,99.3494877 L56.5729392,100.650468 L55.1866652,101.301536 C54.7218625,101.512006 54.2268476,101.647308 53.7481008,101.823085 L50.8500559,102.823394 C49.8669982,103.097467 48.8595384,103.29059 47.8648606,103.528814 L46.3670339,103.86996 L44.842481,104.052676 C43.8245631,104.15791 42.8078072,104.315184 41.7864032,104.378788 C39.7366233,104.385726 37.6798713,104.484023 35.6417115,104.189134 C33.5849595,104.073491 31.5897939,103.541535 29.5795222,103.122908 L26.6373211,102.202393 C25.6426433,101.930632 24.73163,101.435682 23.7741364,101.062156 L22.3541642,100.457345 L20.9992643,99.7207007 C20.1114911,99.2037779 19.1644556,98.7816821 18.3254868,98.1849659 L15.7725579,96.4526385 C14.9603152,95.8246987 14.1794466,95.1528148 13.38231,94.5040593 C12.5596092,93.8819017 11.8751872,93.1070957 11.1349889,92.3947368 L10.0415406,91.3065392 C9.69177654,90.9307004 9.37803472,90.5213253 9.04337677,90.1304531 C8.40775907,89.3197979 7.67801883,88.591249 7.11909358,87.7123646 L5.37375943,85.1370021 L3.92125098,82.4621868 C3.39950994,81.527794 3.0834441,80.571429 2.65466361,79.6266283 C2.21426305,78.6933918 1.94119146,77.6965519 1.6204776,76.7182148 C1.47174073,76.225577 1.28814366,75.7421906 1.16729496,75.2403013 L0.829150992,73.7311643 C0.722246371,73.2269622 0.590939607,72.7273858 0.5037891,72.218558 L0.298113904,70.6851361 C0.128460917,69.6651676 0.0784946263,68.6347913 0.036662383,67.6021022 C-0.0748902658,65.5390367 0.0819806466,63.472502 0.320192032,61.4221572 C0.643229911,59.3822203 1.06155234,57.3538477 1.7064661,55.3856092 C2.36299991,53.4127451 3.11481829,51.5138922 4.20245661,49.6566708 L4.15946236,49.7353078 L5.34703327,47.5161247 L5.94198073,46.405955 C6.12790181,46.0278034 6.39748738,45.7028475 6.62175468,45.3478244 L8.0335929,43.2627869 C8.26367023,42.9112331 8.55533393,42.6059364 8.81329943,42.2751984 L9.61043607,41.3003306 C10.1240431,40.6342287 10.6992364,40.0224789 11.2895358,39.4246063 L12.1622029,38.5156548 C12.4445706,38.204576 12.7769045,37.9420671 13.0825123,37.6529604 C13.7030239,37.0851548 14.3223735,36.5150364 14.9940134,36.0015829 C15.6505472,35.4615315 16.3152151,34.9712066 17.0600614,34.4774123 L16.993827,34.5236694 L18.9297303,33.1590857 L19.8988439,32.4767939 C20.2300158,32.2593857 20.5855899,32.0755138 20.9283819,31.8731391 C21.626748,31.4892054 22.2960639,31.0567018 23.0199941,30.713243 L25.241751,29.756878 L27.6017867,29.0873069 C28.4302975,29.0109827 29.2448643,28.8178595 30.0896432,28.8513958 L31.3573926,28.9126865 C31.779201,28.9404407 32.1940374,29.0792119 32.6123599,29.1613182 L33.2363575,29.3116537 L33.8313049,29.5591291 C34.2229012,29.7360624 34.6400616,29.8655822 34.9886637,30.1188396 C35.738158,30.5455611 36.4039879,31.084456 37.0128795,31.677703 C37.5996929,32.2894528 38.13654,32.9439904 38.5711305,33.6644443 C38.8000458,34.0183109 38.992939,34.3918367 39.1823461,34.7757704 C39.2776306,35.0035865 39.3601331,35.1504527 39.4507696,35.4314644 L39.5971825,36.0663428 L39.7377853,36.703534 L39.7807795,37.3650101 C39.8307458,37.8056087 39.7958856,38.2485202 39.7342993,38.6914317 C39.6425007,39.5807239 39.3183009,40.4249155 38.9325146,41.2112857 C38.4956001,41.965276 37.9947752,42.683417 37.3905316,43.276664 C36.8048802,43.8918831 36.1541565,44.422683 35.4697345,44.8921923 C34.7760164,45.3686401 34.0939185,45.7699202 33.2758657,46.137664 L33.3943904,46.0786862 C30.8402995,47.606326 28.511638,49.4901453 26.5920028,51.7313005 C24.6514516,53.9562657 23.2012671,56.5732596 22.2100754,59.3359633 C21.7406246,60.7248319 21.3792405,62.1599576 21.1968055,63.5939268 C21.0376105,65.0544939 21.0957109,66.5578488 21.0294765,68.0380751 C20.9957783,68.7816575 21.1480012,69.5113629 21.1968055,70.2480067 C21.2990621,70.9777121 21.2746599,71.7317024 21.4780111,72.440592 L21.977674,74.589233 C22.1066568,75.3177819 22.4633928,75.9711631 22.6934702,76.667332 C24.7095519,82.2135551 29.2599704,86.5513121 34.5529111,89.1694624 C37.1918285,90.471599 40.1247335,91.4429975 42.9425999,91.815367 L44.0860146,91.9136632 C44.4381026,91.9275404 44.7832186,91.9610767 45.1492508,91.9437303 C45.868533,91.9414175 46.6040832,91.8893783 47.3349855,91.8014898 C48.800276,91.6395901 50.2609185,91.3377627 51.6855388,90.9202926 C57.388668,89.2955129 62.6223464,85.8782717 65.8922334,80.9218263 C69.265539,76.0763979 70.637869,69.9727772 69.9104528,64.1131625 C69.1400423,58.2604863 66.2536175,52.6737883 61.7810535,48.8205742 L60.0752276,47.4825883 L58.1125982,46.2799045 C57.5490249,45.9248814 56.7960445,45.6508083 56.1488068,45.330478 C55.8106628,45.1824554 55.4818149,45.0055221 55.1343749,44.8794716 L54.0792727,44.5417949 C51.2776744,43.6201228 48.286669,43.2951668 45.3467919,43.6351563 C39.4577417,44.3452024 33.8661651,47.2906215 29.8316777,51.7347698 C27.8644002,53.9655171 25.9645192,56.3361921 24.901283,59.1162422 C23.7578684,61.8407838 23.1919711,64.8058621 23.3372219,67.7709405 C23.4708527,70.7360189 24.2726373,73.665248 25.5171466,76.3782253 C25.8250784,77.0570479 26.1725184,77.7231497 26.5490086,78.3626537 C26.9185267,79.0322249 27.304313,79.5757455 27.819082,80.151646 C28.7579834,81.3254193 29.8514318,82.356952 30.9716063,83.3503226 C33.2805137,85.2503319 35.9298892,86.7698767 38.8139899,87.6001912 C41.6806606,88.4698242 44.7460344,88.6837631 47.7207717,88.2767009 C53.6748944,87.4845485 59.3106271,84.1991399 62.7699213,79.2750745 C64.4862052,76.8234496 65.6923683,73.9925168 66.1467129,71.0147177 C66.515069,69.5448992 66.5208791,68.0311365 66.6301077,66.5324074 L66.506935,64.2808443 C66.4755608,63.5291669 66.2640756,62.7994616 66.1525229,62.0570356 C64.9428739,56.1500074 61.0176151,50.9460867 55.8815452,47.7566615 C53.3146723,46.1249433 50.4328955,45.0795334 47.3384715,45.3281652 C46.5738711,45.2657181 45.8301867,45.4148972 45.0772064,45.4831264 C44.3137679,45.520132 43.5979718,45.7386967 42.8798516,45.94801 C42.7020645,46.0035184 42.5149815,46.0393677 42.3441665,46.1099097 L41.8491516,46.3573851 C41.5307617,46.5377876 41.1577576,46.6430225 40.893982,46.8974364 C40.3106546,47.305655 39.7668355,47.8711478 39.5367581,48.4539869 L39.519328,48.24583 L40.1839959,49.7965984 L40.7487312,51.3843724 C41.0857131,52.4552237 41.3773768,53.5387956 41.6155882,54.6339318 C42.085039,56.8253606 42.3615966,59.0549515 42.4522331,61.2937939 C42.5068474,62.413215 42.4847693,63.5361055 42.4185349,64.6601523 C42.3186023,65.8015456 42.2430719,66.870084 41.7620011,68.0762372 L41.5563259,68.4393552 C41.3855109,68.6579199 41.24026,68.742339 41.0926852,68.8186632 C40.7986975,68.9759372 40.5198158,69.0568871 40.2386102,69.1413063 C39.678523,69.2962675 39.1219217,69.4049716 38.5653205,69.500955 C37.45328,69.690609 36.3424016,69.8305367 35.2326851,69.9681515 C33.0179002,70.2480067 30.7926573,70.4700407 28.6301627,70.8828851 C28.0921536,70.9881199 27.5553064,71.1072319 27.0579675,71.2772266 C26.8092981,71.3570201 26.5676007,71.4599421 26.3828416,71.5755847 C26.2933671,71.6276239 26.2166747,71.7004788 26.2050546,71.7293895 C26.1887865,71.7733337 26.1853005,71.7189817 26.2050546,71.7652387 C26.2213227,71.8369372 26.4049198,71.9942112 26.6570752,72.156111 C26.8325382,72.2555637 27.0800457,72.3885528 27.301989,72.4521563 C27.7598196,72.6001789 28.2455385,72.6082739 28.7103412,72.4787541 C29.6469186,72.2081502 30.4545133,71.4622549 31.0564328,70.6203762 C31.3585546,70.1948111 31.6153581,69.7333968 31.8059272,69.256949 C31.9930103,68.8082554 32.119669,68.2231034 32.0301945,67.9571252 C32.0046303,67.905086 32.0104404,67.9154938 32.0104404,67.9224324 C32.0185744,67.9247453 31.9662841,67.905086 31.8791336,67.9339967 C31.7989551,67.9409352 31.7071566,67.9929744 31.6165201,68.0218851 C31.5131015,68.0750807 31.3492585,68.1629692 31.2795381,68.2092263 C30.8786458,68.5353386 30.3778209,68.7897525 30.055945,69.1644348 C29.2808865,69.8340059 29.0438371,70.8262202 29.6004383,71.3882436 L29.6724828,71.4610985 L29.711991,71.5420484 C29.8769959,71.8785686 30.0908052,72.1734574 30.3220445,72.2682844 C30.5428258,72.3688935 30.8368135,72.3561728 31.1807675,72.2104631 C31.8628655,71.9225128 32.5333434,71.3570201 33.1643131,70.7973095 C34.4332244,69.6466648 35.6300914,68.3572489 36.9117849,67.138375 C37.5520506,66.5266252 38.2132324,65.9275961 38.9150845,65.3632599 C39.2799546,65.0718403 39.6285567,64.808175 40.0062089,64.5526046 C40.3966431,64.3109114 40.7638373,64.0437768 41.1868077,63.8390893 C41.5900241,63.6112732 42.0315866,63.4274014 42.4870933,63.2701273 C42.95422,63.1313561 43.4434249,63.0076184 43.981434,63.0284341 C44.506661,63.0342162 45.0853404,63.1695182 45.5606012,63.5014127 C46.0370239,63.8471843 46.3763299,64.2530901 46.5982732,64.8532756 L46.565737,64.7700129 C46.730742,65.0417732 46.900395,65.3065949 47.1839246,65.480059 C47.4372421,65.6801208 47.7788721,65.7980763 48.1263121,65.8998419 C48.8386222,66.0860266 49.6462169,66.0964345 50.4480016,66.0363003 C52.062029,65.9125626 53.6923245,65.5135953 55.2912458,65.0406168 C58.4867644,64.0680618 61.6265066,62.7601431 64.6326181,61.3007324 L65.1102029,62.7046346 C63.923794,62.974082 62.6897428,63.3903957 61.5928084,63.938542 C61.3034687,64.0680618 61.0431792,64.2126152 60.8107779,64.3675764 C60.5667564,64.5225376 60.323897,64.6370238 60.0647695,64.8694656 L59.6824693,65.179388 L59.4919002,65.3343492 L59.4442579,65.3725113 C59.5232744,65.3042821 59.4489059,65.3725113 59.458202,65.3655727 L59.3954536,65.4303326 C59.3117891,65.5135953 59.2653089,65.5968581 59.2618229,65.6014838 C59.2687949,65.5933888 59.2711189,65.5818245 59.2687949,65.5714167 C59.282739,65.5367239 59.286225,65.4927797 59.2757669,65.4546176 C59.2722809,65.3343492 59.2037225,65.2233322 59.1514322,65.1759187 C59.0480136,65.0972817 59.1316781,65.1574159 59.2165046,65.1689801 C59.3094651,65.1897958 59.4361239,65.2082987 59.5709167,65.2140808 C59.8405022,65.2302708 60.139138,65.2187065 60.4400977,65.195578 C61.0455032,65.1423823 61.6671768,65.0417732 62.2830404,64.9087841 C63.5112816,64.6451188 64.7453328,64.2588722 65.8736413,63.7777987 C66.9787097,63.3395129 67.8316227,62.5519862 68.5230167,61.5805877 C68.8507026,61.1029834 69.1377183,60.5779657 69.263215,60.0864843 C69.3352594,59.8424782 69.3480415,59.60888 69.3213154,59.4747345 C69.2829691,59.3348068 69.2829691,59.3452147 69.2062767,59.2989576 C69.0250036,59.1890971 68.404492,59.2203206 67.8653209,59.3799075 C67.3040716,59.5360251 66.7265543,59.7511205 66.159495,60.0217244 C65.0242144,60.5398036 63.922632,61.1978104 62.8036195,61.8801023 C60.5528124,63.2516245 58.2764411,64.5838282 55.9559136,65.8489591 C53.6319001,67.1094644 51.2823224,68.3260254 48.7898179,69.3448374 C48.1646583,69.5980949 47.5255546,69.8305367 46.8574007,70.0294421 C46.1671687,70.2086882 45.532713,70.4307222 44.5880015,70.3717444 C44.4752869,70.3671187 44.3428181,70.3451466 44.1940812,70.3000459 C44.0639365,70.2734481 43.8977695,70.2005932 43.7350885,70.0976713 C43.5828657,70.0225035 43.4132127,69.8235981 43.294688,69.6605419 C43.2052135,69.4778265 43.1041189,69.2754518 43.0983088,69.0777028 C43.0460185,68.3653439 43.2575038,68.07855 43.4341288,67.6287 C43.8780154,66.7972291 44.7193083,66.2710549 45.537361,66.0848702 C46.3647098,65.8986855 47.2327289,65.9391604 48.0635637,66.3739769 C48.4679421,66.5960108 48.8885885,66.940626 49.1070458,67.455236 C49.2522966,67.691147 49.2534586,67.9686895 49.3011009,68.2311984 C49.319693,68.4890815 49.2604307,68.7215233 49.2267325,68.9655294 C49.0942637,69.4153794 48.8514043,69.8999223 48.6840753,70.1046098 L48.5469585,70.3081409 L48.4319199,70.4723535 C48.3459314,70.5660241 48.2436748,70.6562254 48.1356081,70.7302367 C47.9543351,70.8851979 47.5662248,70.9418628 47.3489296,70.9141086 C47.1560364,70.8805722 46.907367,70.804248 46.8190545,70.7360189 C46.3100955,70.4388172 46.1044203,70.1554926 45.8511029,69.872168 C45.6152155,69.5888435 45.4107023,69.3055189 45.2143232,69.0210379 C43.7048764,66.742877 42.5637857,64.3872356 41.398293,62.0200299 C40.2525543,59.6505114 39.166078,57.2601771 38.1040038,54.8617479 C35.9833415,50.0625766 33.9626117,45.2252432 31.9918482,40.3705634 C30.0234088,35.5135708 28.1037736,30.6392317 26.2526969,25.7348256 C25.3347115,23.2693236 24.4190502,20.8442965 23.6207516,18.2828111 L23.5498691,18.0272408 L23.5161709,17.8861567 L23.4999029,17.8156147 C23.4836348,17.7346648 23.4731767,17.6190221 23.4836348,17.5149437 C23.4929308,17.407396 23.521981,17.3033176 23.5580032,17.2154292 C23.5951874,17.1298536 23.5765953,17.1576078 23.5882154,17.122915 L23.9658676,16.8095234 L24.0797442,16.7227913 C24.2633413,16.5909587 24.5468709,16.3365448 24.7757863,16.1503601 L26.2224847,14.847067 L29.0775353,12.1630004 L29.024083,12.2219782 C29.706181,11.3604402 30.3685248,10.4850251 30.9530142,9.56566575 C31.2400299,9.10309502 31.5316936,8.64399357 31.773391,8.16176358 C32.0418145,7.69109787 32.2440037,7.19614719 32.4554889,6.70697864 C32.6460581,6.21087154 32.802929,5.7089823 32.9168056,5.20131092 C33.0109282,4.69479598 33.0771626,4.18481175 33.0399783,3.69217392 C33.0295203,3.19375396 32.8889175,2.73002681 32.6878903,2.31602601 C32.5879577,2.1090256 32.4450309,1.92052803 32.3055901,1.7597847 C32.2254116,1.6903991 32.1847414,1.62448277 32.0789988,1.54353289 C31.9848762,1.47992941 31.8070892,1.34000177 31.781525,1.33884534 C31.3957388,1.12259353 31.0180866,1.05552077 30.6439204,1.20123055 C30.2697542,1.33421963 29.894426,1.66495771 29.6236785,2.04773498 L28.6568888,3.42619575 C28.340823,3.89917432 27.9806009,4.34092937 27.6203788,4.78152799 C27.2671288,5.22790874 26.9069067,5.66850736 26.5106624,6.08019531 C26.1283621,6.50344752 25.7425759,6.92207403 25.3207674,7.31178987 C24.4992287,8.11666294 23.6451537,8.84752469 22.6365318,9.50900083 L22.8166429,9.31934683 C22.1159528,10.3289074 21.2142356,10.6295784 20.3194904,11.0007914 C19.8616597,11.126842 19.406153,11.2644567 18.9471604,11.3766301 L17.5574003,11.5489377 C17.0949216,11.6264183 16.6301189,11.6241055 16.1641542,11.6125412 L14.7697461,11.5986641 C13.8436267,11.5801613 12.9674736,11.4147922 12.0634323,11.3292166 L9.38616876,11.0123557 L8.06612909,10.9637858 C7.63386257,11.0007914 7.19346201,11.0111993 6.76468152,11.0678642 C5.9187406,11.2112611 5.08093372,11.4622057 4.45461208,11.9768157 C3.82364241,12.4879563 3.56102888,13.3067065 3.67374354,14.1243003 C3.76670408,14.9488326 4.19432257,15.7352028 4.70211952,16.4267461 C4.94614094,16.7898641 5.25755875,17.0859094 5.54806044,17.4050832 C5.87458434,17.6872513 6.23015841,18.0388051 6.56016833,18.2515876 C7.26202041,18.7465383 8.11144735,19.019455 8.97249436,19.1906062 C9.8393514,19.3594445 10.7340966,19.406858 11.6276798,19.4033887 C13.4194942,19.3941373 15.2124707,19.1721033 17.0112571,18.9870751 C17.9118124,18.8991866 18.8146916,18.8066725 19.7280289,18.805516 C20.1835356,18.8020468 20.6436902,18.8274882 21.0991969,18.916533 C21.5349494,18.9974829 22.0439084,19.1940755 22.3344101,19.5479421 L22.1996173,19.6774619 Z" id="Path" fill="#FFFFFF" fill-rule="nonzero"></path>
    </g>
</svg>