<svg width="36" height="36" xmlns="http://www.w3.org/2000/svg"><g fill="none" fill-rule="evenodd"><circle stroke="#FFF" cx="18" cy="18" r="17.5"/><path d="M25.944 14.048c.013.178.013.356.013.533 0 5.419-4.124 11.663-11.663 11.663-2.322 0-4.48-.673-6.294-1.84.33.038.647.05.99.05a8.21 8.21 0 0 0 5.089-1.75 4.106 4.106 0 0 1-3.833-2.844c.254.038.508.064.774.064.368 0 .736-.05 1.079-.14a4.1 4.1 0 0 1-3.287-4.023v-.05c.546.304 1.18.495 1.853.52a4.096 4.096 0 0 1-1.827-3.414c0-.761.203-1.46.558-2.068a11.651 11.651 0 0 0 8.452 4.29 4.627 4.627 0 0 1-.102-.94 4.097 4.097 0 0 1 4.1-4.099 4.09 4.09 0 0 1 2.994 1.294 8.07 8.07 0 0 0 2.602-.99 4.088 4.088 0 0 1-1.802 2.26 8.217 8.217 0 0 0 2.36-.635 8.811 8.811 0 0 1-2.056 2.12z" fill="#FFF" fill-rule="nonzero"/></g></svg>