<?xml version="1.0" encoding="UTF-8"?>
<svg width="73px" height="72px" viewBox="0 0 73 72" version="1.1" xmlns="http://www.w3.org/2000/svg" xmlns:xlink="http://www.w3.org/1999/xlink">
    <!-- Generator: Sketch 58 (84663) - https://sketch.com -->
    <title>tallers OUTLINED</title>
    <desc>Created with Sketch.</desc>
    <g id="tallers-OUTLINED" stroke="none" stroke-width="1" fill="none" fill-rule="evenodd">
        <path d="M31.966873,61.6306378 C32.1916639,61.9062916 32.4102451,62.1894292 32.6412456,62.4588465 C32.9119882,62.6771243 33.1318113,62.9602619 33.442296,63.1274004 C33.5925705,63.2147115 33.7304257,63.328216 33.8893938,63.3955704 C34.0508458,63.4591828 34.2073301,63.5365155 34.3725079,63.5889022 C34.7028635,63.6737187 35.0580579,63.7385784 35.3834458,63.6824498 L35.3908975,63.6812025 L35.400833,63.6799552 L37.2823698,63.5028383 C37.903339,63.3968177 38.5180986,63.2571198 39.1365839,63.1361315 C39.7476177,62.981466 40.347474,62.7843923 40.95354,62.6110173 C41.5496704,62.4052125 42.1358654,62.1707197 42.7257862,61.9486999 C43.2970779,61.6805299 43.8845148,61.4460371 44.4409032,61.1491792 C45.0047433,60.8647943 45.556164,60.5604526 46.0864717,60.223681 C46.5931827,59.8731891 47.1297001,59.4902674 47.676153,59.1821838 C48.2710416,58.9140138 48.868414,58.667048 49.4645444,58.464985 C50.0494975,58.2479545 50.6381763,57.9947521 51.2442423,57.8014203 C51.8391308,57.5956155 52.4911486,57.4721326 53.1096339,57.346155 C54.3664757,57.106673 55.6171077,56.9707171 56.8714656,56.7823745 C57.5036123,56.7150202 58.1109202,56.5541182 58.7256798,56.4243988 C59.3391974,56.2909374 59.9576828,56.1724437 60.5438777,55.9479294 L61.4343476,55.6510714 C61.7187515,55.5288358 61.9857683,55.3741704 62.2627206,55.2382144 C62.7768831,54.9775283 63.345691,54.4823494 63.3369974,54.0545247 L63.3295458,53.9871704 L63.3084328,53.6229582 C63.2947715,53.5044645 63.3183683,53.3722505 63.2550295,53.271219 L63.1258679,52.9456731 C63.0550774,52.8546201 62.9731094,52.7735454 62.8985931,52.684987 C62.8302865,52.5889447 62.7060927,52.5540203 62.6129473,52.4841713 C62.5198019,52.4105805 62.395608,52.3893764 62.2838336,52.3444735 C62.0590427,52.2658935 61.8007195,52.2372055 61.5709609,52.2334636 L61.5982835,52.2297217 L58.6548893,52.6824924 L57.9184198,52.7959969 C57.6737579,52.8446417 57.4241282,52.8359105 57.1769825,52.858362 L55.6891402,52.9506623 C54.6993152,53.0467046 53.6983128,52.9706192 52.7097297,52.9606408 L51.978228,52.9207271 C51.9024697,52.9144906 51.8888084,52.9207271 51.7621307,52.9045122 C51.7161789,52.9032649 51.6255174,52.8820607 51.5187107,52.8234375 C51.3560168,52.7199115 51.2641133,52.5914393 51.1970486,52.4617199 C50.9449351,51.9403476 50.9138867,51.433943 50.8915318,50.9113234 L50.887806,50.8115392 L50.9523868,50.7603998 C51.4081782,50.4036714 51.8726632,50.0668998 52.3520514,49.8174394 C52.8239881,49.5355491 53.3033763,49.2736157 53.7889743,49.0266499 C54.7514766,48.5115141 55.7276403,48.0337974 56.7000781,47.5448549 L59.6223594,46.1004791 C60.5910714,45.6152785 61.5709609,45.1313253 62.477576,44.5924908 L62.4887534,44.585007 L62.5284954,44.5662974 L63.2898037,44.2008379 C63.5344656,44.0661293 63.8188695,43.9900439 64.0287571,43.8041958 C64.2510641,43.6383047 64.4808228,43.4798973 64.6994039,43.3102642 C64.8720334,43.1131905 65.1067598,42.9186113 65.223502,42.7227849 L65.2085987,42.7527202 C65.3365184,42.4109594 65.4507767,42.0654567 65.4830671,41.7274378 C65.485551,41.5627939 65.4930026,41.39815 65.4420831,41.2634414 C65.4035831,41.1237436 65.3265829,41.0127337 65.2197762,40.9266698 C65.0049208,40.7508002 64.6546941,40.6909297 64.3081933,40.6934243 C63.9616925,40.6946716 63.5891109,40.7545421 63.2550295,40.8431006 L63.284836,40.8318749 C62.6651087,41.0576366 62.0416556,41.294624 61.4281379,41.4779774 C60.8046848,41.6625781 60.216006,41.8995655 59.6149077,42.1178434 C59.3093909,42.2151329 59.0336805,42.3810241 58.7430669,42.5094962 L57.8799197,42.9223532 C57.6004835,43.0632984 57.2577085,43.198007 56.9782723,43.3202426 L56.0853185,43.7019171 C54.8955415,44.2108163 53.7070063,44.7284467 52.5048099,45.1986796 L50.7064829,45.9208676 L50.2469657,46.1104575 C50.179901,46.1428873 50.0979331,46.1778118 49.9849167,46.211489 C49.8731422,46.2339404 49.7812388,46.2925636 49.5365769,46.2214674 C49.3962378,46.1678334 49.2782537,46.0044368 49.2732859,45.8822012 C49.2596246,45.7774278 49.2745279,45.6888694 49.2906731,45.6352354 C49.3217215,45.5092579 49.3651894,45.4281832 49.4074153,45.3408721 C49.494351,45.1724863 49.5862544,45.0327884 49.6930611,44.8831122 L49.7178999,44.849435 L49.7551581,44.8207471 L55.2271391,40.6023713 L57.9668554,38.4906888 C58.8920995,37.7946942 59.771392,37.0874739 60.6295715,36.3328561 C61.0518306,35.952429 61.5026543,35.5907113 61.8814455,35.1803489 L62.4726082,34.5816439 L62.5471245,34.5068058 C62.5471245,34.5068058 62.5992859,34.4506772 62.55706,34.5018166 L62.5881085,34.4569137 L62.7098185,34.2785495 C62.7371411,34.1750234 62.7731573,34.1463355 62.7768831,34.0278418 C62.8451898,33.6336943 62.5719633,33.1622141 62.214285,32.8379155 C61.8441873,32.5173589 61.367283,32.2816188 60.9003141,32.2903499 C60.6655877,32.274135 60.4457646,32.3464785 60.2383609,32.4362843 C60.0408926,32.5447996 59.7639404,32.7294003 59.5304559,32.87284 L58.0674524,33.7896071 C57.0739016,34.3845702 56.1610768,35.0518768 55.2234132,35.6942374 L55.2209294,35.6954847 L55.1103968,35.7491187 C54.7912186,35.9050315 54.4645888,36.0596969 54.1118783,36.2854586 C53.7666194,36.4875216 53.4226024,36.6970683 53.0823113,36.9203354 C52.3967612,37.3519019 51.7211467,37.8071672 51.0442902,38.2574433 L49.0323499,39.6419487 C48.3766063,40.1034504 47.677395,40.588651 47.0874742,41.055142 L47.0017804,41.1237436 L46.9458932,41.1362166 C46.8266671,41.1636572 46.7148926,41.1910979 46.585731,41.2035709 C46.4180693,41.1886033 46.2516496,41.1836141 46.0728104,41.0239594 C45.9138423,40.8880035 45.8517454,40.6909297 45.8331163,40.5587157 C45.8132453,40.4102868 45.819455,40.3092553 45.8455357,40.1633209 L45.8778261,39.9799675 L46.0641169,39.8814307 C46.4888598,39.655669 46.8067961,39.3126609 47.0526999,38.8561483 C47.3023295,38.4033776 47.4997978,37.8670377 47.7655726,37.3344397 L48.1915575,36.5723381 C48.2809771,36.4176727 48.2996061,36.390232 48.3505256,36.2492869 C48.4697517,35.9886007 48.5703487,35.9175045 48.6622522,35.7877851 L49.7564,34.4843544 C50.4816921,33.6187267 51.2218874,32.7605828 51.8751471,31.8712564 C52.5172293,30.9856719 53.168005,30.0302385 53.3803765,29.0735577 C53.4673122,28.5983356 53.3940378,28.2079301 53.0773435,27.9098248 C53.0115208,27.8275029 52.9047141,27.7663851 52.8177784,27.6927943 C52.8985044,27.7401918 52.7010362,27.6329238 52.7171814,27.6591171 C52.7072458,27.679074 52.7432621,27.662859 52.6824071,27.6728374 C52.5246809,27.6815686 52.2874706,27.7613959 52.0664056,27.8786423 C51.1585485,28.3625955 50.3003691,29.115966 49.4831735,29.8593581 C48.6647361,30.6152232 47.8798309,31.4172384 47.1160388,32.2379632 C46.3609402,33.0574407 45.5934222,33.9081008 44.9314689,34.76375 L44.9240173,34.7737285 L44.8532268,34.846072 C44.3564514,35.3574658 43.839805,35.8127311 43.3566909,36.365286 L41.8961713,37.9992518 C41.3981539,38.5443228 40.912556,39.0968776 40.4033612,39.6344648 L38.791325,41.1960871 L38.7739379,41.212302 L38.7565508,41.2222804 C38.5541148,41.3420215 38.3665821,41.4792247 38.1492428,41.5815035 C37.9269359,41.6762984 37.7120805,41.7823191 37.4649347,41.827222 C36.9905142,41.9544468 36.4626904,41.9494576 35.9895118,41.8085124 C35.5126074,41.6762984 35.0841386,41.4355691 34.7177668,41.146195 C34.5339599,41.001508 34.3613304,40.8443479 34.2048462,40.6759621 C34.0421522,40.5038344 33.905539,40.3429324 33.7552645,40.12216 L33.7416031,40.1034504 L33.7155224,40.0485691 L32.815117,38.1813579 C32.5356809,37.5439865 32.1308089,36.9976681 31.7967275,36.4002104 C31.6154044,36.1145782 31.4042749,35.8638705 31.2105325,35.5932059 C31.119871,35.5221097 30.7460475,34.9383723 30.8118702,34.9358777 L30.7112732,34.4182473 C30.6640795,34.0465513 30.5249824,33.7908544 30.4219015,33.4977384 C30.3411755,33.2046224 30.1399815,32.9327105 29.9909489,32.6508202 C29.8543357,32.3539623 29.6096738,32.1369318 29.4196572,31.8799875 C29.2383342,31.609323 28.9514464,31.4546575 28.7266555,31.2326377 C28.4931711,31.0156071 28.1901381,30.9170703 27.929331,30.7474372 C27.6536206,30.606492 27.344378,30.5653311 27.0550063,30.461805 C26.7544572,30.4131602 26.4452145,30.4318697 26.1409396,30.4056764 C26.0490361,30.3994399 25.8081,30.4430955 25.6665191,30.4642996 C25.5435671,30.5116971 25.4106797,30.5191809 25.2951794,30.5865352 C25.0244369,30.6788356 24.8865817,30.8459741 24.8344203,30.969457 C24.7549362,31.0817142 24.8418719,31.299992 24.9312915,31.5357321 L24.8617429,31.4347007 C25.0505176,31.7103544 25.284002,31.9785244 25.4106797,32.2753823 C25.5684059,32.5697456 25.6839062,32.8516359 25.7907129,33.1896547 L25.8006484,33.2345576 L26.2502301,34.8186313 C26.3856014,35.3437455 26.5880374,35.8888166 26.7544572,36.4239092 L27.808863,39.6569163 C27.9802505,40.213213 28.171509,40.7046501 28.3267513,41.3133335 L28.5565099,42.2163802 L28.6670425,42.6679036 C28.6720102,42.8824396 28.6583489,42.970998 28.6533811,43.1294054 C28.6533811,43.6807129 28.5428486,44.2993748 28.4621226,44.8955852 C28.3441384,45.4656023 28.2485092,46.038114 28.1019604,46.5969053 C27.8374275,47.7219718 27.504588,48.8220923 27.0959903,49.9259547 C26.9655867,50.2128342 26.8947962,50.4610473 26.7122313,50.7803566 C26.5979729,50.9537316 26.5433276,51.0784619 26.3669724,51.2817721 L26.0477942,51.5611678 L25.4106797,52.1212064 C25.1734695,52.2983233 24.9151463,52.4667091 24.6667586,52.6388368 C24.1662574,53.003049 23.6583045,53.2724663 23.1528355,53.5568512 C22.6523343,53.857451 22.1207847,54.0757289 21.6066221,54.3389096 C20.5547002,54.8166263 19.5077461,55.2581713 18.4024208,55.6373511 L18.4533403,55.6173943 C16.7903847,56.2709806 15.1038322,56.5803115 13.3526989,56.6089995 C11.6201947,56.6264617 9.82310971,56.309647 8.25454139,55.4614815 C6.69590859,54.6395094 5.29872778,53.4408521 4.35361259,51.9690356 C4.11267652,51.6048233 3.83572424,51.2580734 3.62832051,50.8776462 L3.06448043,49.7064295 C2.64470522,48.9380914 2.3988014,48.1161193 2.14420401,47.2953945 L1.75299339,46.0680492 L1.50708956,44.8145106 C1.35433113,43.9800654 1.15810485,43.1356419 1.04260457,42.3099279 C0.816571763,40.6111024 0.735845761,38.9185134 0.751990961,37.2209352 C0.776829731,33.8295207 1.22516953,30.4430955 2.09576841,27.1577017 C2.55901147,25.5237359 3.09180308,23.905985 3.77114344,22.3443628 C4.44551604,20.7839878 5.22048566,19.2622792 6.12958463,17.8241398 C6.57668249,17.0994573 7.04365136,16.3884951 7.56153971,15.7124573 C8.04589573,15.0114736 8.60104223,14.3666184 9.14749517,13.7155266 C10.2490946,12.4183324 11.473646,11.23589 12.7478749,10.1133181 C13.3936829,9.56325786 14.0730232,9.0556059 14.7349764,8.52425519 C15.4217684,8.02907625 16.1296734,7.56258525 16.8276428,7.08112663 C17.5429994,6.62960326 18.2819528,6.21674626 19.0084868,5.78268512 C19.7412305,5.3623443 20.5112324,5.0118524 21.2613632,4.62394144 C22.0052844,4.22106285 22.8038508,3.94166718 23.5726108,3.59741179 C24.3426126,3.2494145 25.1337274,2.96378231 25.931052,2.69187045 C27.5070719,2.08942352 29.1352533,1.67033001 30.7485314,1.1963552 L30.7721282,1.18887138 L30.8006928,1.18388218 C33.1318113,0.820917257 35.4070427,0.719885784 37.7158063,0.757304848 C40.0171183,0.789734704 42.3134626,1.02796941 44.5812423,1.43708451 C49.10935,2.2540674 53.5455543,3.8368938 57.4402734,6.3564441 C61.3412022,8.85977946 64.617436,12.2985914 67.0267967,16.2413135 C67.3298297,16.7327505 67.5956045,17.246639 67.8812503,17.7480544 C68.0228313,18.0174717 68.1606865,18.2120508 68.3047514,18.5450805 L68.6413167,19.3283862 L69.98882,22.4616092 C70.2347238,22.9717557 70.4098371,23.521816 70.5663214,24.0818546 L71.0655806,25.7457557 C71.3872427,26.8571019 71.7809372,27.9534804 71.9212763,29.0985038 L72.5136809,32.501144 L72.7049395,35.9499344 C72.8254075,37.0999469 72.6726491,38.2487122 72.6142779,39.3974774 L72.5012615,41.1200017 C72.4751808,41.695008 72.3149708,42.2550466 72.2280351,42.8225691 C71.9920668,43.9476356 71.8740826,45.1001428 71.5387592,46.2002632 L70.532789,49.4981301 C70.1080461,50.5645734 69.6323836,51.6110599 69.1840438,52.6675248 C68.9766401,53.2038647 68.7071394,53.7102693 68.4115581,54.2029537 L67.5633141,55.6997162 C67.040458,56.7249986 66.353666,57.6442602 65.6743256,58.5672638 L64.6658716,59.9580057 C64.3081933,60.4032926 63.9070472,60.8149023 63.5307398,61.2452215 C62.052833,62.9939391 60.3352321,64.5218842 58.5530503,65.9400667 C57.6141448,66.5886638 56.7274007,67.3145936 55.7487532,67.8970837 C54.7489927,68.4458967 53.7715871,69.0371179 52.7569234,69.5472644 L49.5999157,70.8482006 L46.3112626,71.75 L46.2814561,71.6078076 L49.5291252,70.6448903 L52.6314876,69.2903202 C53.6275223,68.7627114 54.582573,68.1565226 55.5599786,67.5952366 C56.5162712,66.9990262 57.3794185,66.2618706 58.2922432,65.6032951 C60.0222636,64.1651558 61.6864611,62.6259849 63.1047549,60.8735255 C63.4674009,60.4432062 63.8536438,60.0315965 64.1964188,59.5850624 L65.1601631,58.1955678 C65.8072131,57.2725642 66.4654405,56.3607864 66.9709094,55.3492243 L67.788105,53.8711713 C68.0725089,53.3847235 68.333316,52.8870499 68.5295422,52.3569465 C68.958011,51.3154493 69.4138024,50.286425 69.8199163,49.2386912 L70.7712412,46.0006949 C71.0891775,44.9217786 71.1897745,43.7917228 71.4095976,42.690355 C71.4890817,42.1340583 71.6405982,41.58774 71.6604692,41.0252067 L71.7523726,39.3413488 C71.7983244,38.2187769 71.9386634,37.0974523 71.8070179,35.9761277 L71.5859529,32.6134012 L70.9724353,29.2993194 C70.8246446,28.1792421 70.4309501,27.1290137 70.1105299,26.0600758 L69.6149965,24.4610345 C69.462238,23.9259419 69.2896086,23.3945911 69.0350112,22.8794554 L67.6552175,19.7612001 L67.3099586,18.9816362 C67.2304746,18.790799 67.0491516,18.510156 66.9237158,18.2794051 C66.6417957,17.7966992 66.3797467,17.3027676 66.0816815,16.8300401 C63.7120628,13.0444781 60.5364261,9.78278304 56.7696267,7.42039281 C53.0090369,5.04303496 48.726833,3.56124003 44.3403062,2.81784796 C42.144559,2.44116272 39.9177633,2.2515728 37.6897256,2.20791722 C35.4716235,2.16800355 33.2026018,2.27527154 31.0552902,2.60954851 L31.1062097,2.59832279 C29.5339155,3.06107188 27.9417504,3.46769237 26.4129241,4.05392437 C25.6379545,4.31835242 24.8679526,4.59525349 24.1227895,4.93327237 C23.3776264,5.26754934 22.6001729,5.5369666 21.8823325,5.92737216 C21.1582823,6.3028101 20.4118773,6.64082898 19.7039724,7.04620217 C19.003519,7.46529569 18.2906463,7.86318506 17.6013705,8.2972462 L15.5881882,9.68424617 C14.9535576,10.1943927 14.300298,10.6820879 13.6805707,11.2084494 C12.4597451,12.2848711 11.2861133,13.4161741 10.2317075,14.6572397 C9.70885137,15.2796435 9.17605975,15.8958108 8.71405864,16.5668593 C8.21852518,17.2129618 7.77142732,17.8927415 7.34420048,18.5862414 C6.4736016,19.9620157 5.73216432,21.4176173 5.08511436,22.9131325 C4.43309665,24.4086478 3.92265993,25.9627862 3.47556207,27.5331396 C2.63476972,30.6913086 2.1727686,33.9579929 2.1342685,37.2371502 C2.10942973,38.8736105 2.18022023,40.5200493 2.38514008,42.1265745 C2.49691454,42.9522885 2.67823756,43.7330996 2.81981855,44.5401041 L3.0470933,45.7412561 L3.41098127,46.8962578 C3.64570765,47.6695851 3.87174045,48.4479017 4.25549945,49.1488855 L4.76717811,50.232791 C4.95471082,50.5820356 5.20434046,50.8888719 5.41919582,51.2206543 C6.26371399,52.5615041 7.48205565,53.5967648 8.83576861,54.3264366 C10.1944493,55.0773125 11.776679,55.3679339 13.3477312,55.3616974 C14.9113317,55.3542135 16.5432389,55.0523664 17.973952,54.497317 L18.0186618,54.4798548 L18.0261135,54.4773601 C19.0606482,54.1293629 20.1001507,53.6990436 21.1086048,53.2475203 C21.6004124,52.9980598 22.1195427,52.7885131 22.5902374,52.5078701 C23.0708676,52.2421947 23.5626752,51.9802613 23.9799666,51.6796615 L24.6357101,51.2393638 L25.2765504,50.6830671 L25.5969705,50.4049187 C25.5882769,50.3824673 25.6690029,50.2564898 25.707503,50.19163 C25.8118259,50.0232443 25.9149068,49.725139 26.0192296,49.4981301 C26.4017466,48.4803315 26.7333442,47.4064044 26.9916674,46.3262407 C27.1369742,45.7886535 27.2276357,45.2410879 27.343136,44.7022534 C27.4114426,44.1746446 27.5219752,43.676971 27.525701,43.090739 C27.5294268,42.9660088 27.5443301,42.7701824 27.5406042,42.7028281 L27.4375233,42.3323793 L27.2400551,41.5889873 C27.1195871,41.0975502 26.9096995,40.5262859 26.7482475,39.9986771 L25.708745,36.761928 C25.5398413,36.2143624 25.3485828,35.6954847 25.2007921,35.1217257 L24.7363071,33.434126 L24.7462426,33.4790288 C24.6766941,33.2582564 24.5736132,32.9938283 24.4519032,32.7730558 C24.3500643,32.52609 24.1799187,32.3552096 24.0495151,32.141921 L23.9799666,32.0408895 C23.8992406,31.8213643 23.7924339,31.6280325 23.7551757,31.3773248 C23.7241273,31.1153913 23.7154337,30.8522106 23.8321759,30.5790514 C24.0395796,30.0589264 24.4928872,29.7321333 24.8791301,29.5936827 C25.0741144,29.4926512 25.2976633,29.4602214 25.5075509,29.4003509 C25.7112288,29.3716629 25.8180356,29.342975 26.0751168,29.3342439 C26.4675694,29.3566953 26.8687155,29.3454696 27.2537164,29.4128239 C27.626298,29.5338122 28.0237183,29.6049084 28.3714611,29.780778 C28.7018167,29.9840883 29.0781241,30.1300226 29.3637699,30.3894615 C29.6419642,30.6538895 29.9834973,30.862189 30.2020784,31.1777564 C30.4318371,31.4820981 30.7137571,31.7527627 30.8789349,32.0982654 C31.059016,32.4362843 31.2775972,32.740626 31.3943394,33.1297842 C31.5259849,33.4989857 31.6886788,33.8856493 31.725937,34.2199263 L31.825292,34.7375567 L31.8588244,34.9046952 C31.8836631,34.8972114 31.9035342,34.8872329 31.9171955,34.8797491 C31.9556956,34.8735126 31.9234052,34.8211259 32.0016473,34.9308885 C32.2177446,35.230241 32.4574387,35.5221097 32.6499392,35.8301934 C33.0014078,36.4588336 33.4311185,37.0562913 33.7155224,37.711125 L34.6382827,39.6481852 L34.5985407,39.5745943 C34.6817506,39.6980772 34.8109122,39.8589792 34.935106,39.9874513 C35.0592999,40.1234073 35.1959131,40.2481375 35.3374941,40.3603947 C35.6206561,40.5861564 35.9323826,40.7570368 36.2552866,40.8480898 C36.5769487,40.9453794 36.9097882,40.9503686 37.2364181,40.8630574 C37.4028378,40.8381114 37.560564,40.7557895 37.722016,40.6909297 C37.8809841,40.6185862 38.0312587,40.506329 38.1877429,40.4190179 L38.1542106,40.4452112 L39.7029079,38.9559325 C40.2021672,38.4320656 40.6865232,37.8857473 41.1795728,37.3519019 L42.6549957,35.7154416 C43.1381098,35.1653813 43.7205789,34.6477509 44.2508867,34.1139056 L44.1738865,34.1949803 C44.9016624,33.2644929 45.656761,32.4387789 46.4366984,31.5980972 C47.2166358,30.7661467 48.018928,29.9554003 48.8646882,29.1795784 C49.7216257,28.4137349 50.5735955,27.6478914 51.6640175,27.0678959 C51.9434537,26.9306927 52.2452447,26.7972313 52.6513586,26.771038 C52.7320846,26.7560704 52.905956,26.7822637 53.0363595,26.8171882 C53.189118,26.8720695 53.1183275,26.8383923 53.3220054,26.9494022 C53.4536509,27.0554229 53.592748,27.1414867 53.7107322,27.2761954 C54.2497335,27.7551594 54.4037338,28.6257763 54.2509754,29.2456854 C53.9491843,30.515439 53.2450052,31.4571521 52.5768423,32.393876 C51.8850826,33.3256107 51.1411614,34.177518 50.4109016,35.0431457 L49.3167538,36.3341034 C49.2397536,36.4301457 49.1329469,36.5611124 49.1403985,36.5623597 C49.0994145,36.6895845 48.9826723,36.9116043 48.9255431,36.9989154 L48.5194293,37.7161142 C48.2760093,38.1950782 48.081025,38.7276762 47.7842017,39.2652634 C47.4973139,39.8053452 47.0253772,40.3279648 46.4379403,40.6248227 L46.6565215,40.3429324 C46.6540376,40.3591474 46.6490699,40.4252544 46.6540376,40.4389747 C46.6590054,40.4651681 46.6565215,40.4389747 46.6242311,40.4040503 C46.56586,40.3703731 46.5733116,40.3641366 46.5671019,40.374115 C46.6006343,40.3653839 46.6478279,40.3516636 46.6900539,40.349169 L46.5484729,40.4302436 C47.2402326,39.8851726 47.8910084,39.4461222 48.5703487,38.9696528 L50.6009182,37.5863947 C51.2852263,37.1361187 51.9658086,36.6808534 52.663778,36.245545 C53.006553,36.0222779 53.3605055,35.8077419 53.7206677,35.5994425 C54.057233,35.3849065 54.4633469,35.1828435 54.8868479,34.9957482 L54.7750734,35.0506295 C55.7388177,34.3945486 56.6926265,33.7085324 57.6774837,33.124795 L59.1442131,32.2142645 C59.4025363,32.059599 59.6024884,31.9174066 59.9080052,31.7515154 C60.2222157,31.609323 60.5699584,31.5132807 60.9139754,31.5319902 C61.6069771,31.5344848 62.2267044,31.8525469 62.7172701,32.2803715 C63.1805132,32.7181745 63.6114658,33.3493094 63.5108688,34.1263786 C63.5083849,34.3010009 63.3978524,34.5354937 63.3196103,34.6939011 L63.1966584,34.8722653 L63.1656099,34.9171682 C63.1047549,34.9994901 63.1258679,34.9620711 63.102271,34.990759 L63.0240289,35.0693391 L62.3993338,35.6979793 C61.991978,36.1332878 61.5399124,36.4912635 61.1052339,36.8791744 C60.2309092,37.6425233 59.306907,38.3734424 58.3891145,39.0557167 L55.6444304,41.146195 L50.1476106,45.3333883 L50.2097075,45.2710231 C50.1264977,45.3845276 50.039562,45.5167417 49.978707,45.6364827 C49.9489005,45.6938586 49.9190939,45.7599656 49.9128842,45.7923954 C49.9029487,45.8160942 49.9141262,45.8123523 49.9066745,45.7849116 C49.9104004,45.7462453 49.8458196,45.6489557 49.7799968,45.6289989 C49.6918192,45.6028055 49.7663355,45.625257 49.8073195,45.6003109 C49.8507873,45.5903325 49.9190939,45.5641391 49.998578,45.5267201 L50.4382242,45.3496032 L52.2477286,44.6336518 C53.4598606,44.1671608 54.6496377,43.6582615 55.8431405,43.1555987 L56.7385782,42.7789135 C57.0515467,42.6417103 57.3148377,42.5481626 57.6153868,42.3984864 L58.5070986,41.9781455 C58.8076477,41.8471788 59.0932936,41.678793 59.407504,41.5802562 C60.0247474,41.3594837 60.6407489,41.1175071 61.2604762,40.9391429 C61.8888971,40.7557895 62.476334,40.5325224 63.0749484,40.320481 L63.1059968,40.3092553 C63.5083849,40.2044819 63.8958697,40.1458587 64.3106772,40.1446114 C64.7155491,40.1496006 65.1713406,40.1982454 65.5600673,40.5025871 C65.7500839,40.6522634 65.8966326,40.8767778 65.9574876,41.1012921 C66.0344878,41.3332903 66.0245523,41.5528155 66.0183426,41.7710934 C65.9736328,42.1976707 65.8407454,42.5793452 65.6979225,42.9535358 L65.6917128,42.9697507 L65.6805353,42.9859657 C65.4917607,43.2915547 65.2595182,43.4636824 65.0471467,43.7006698 C64.8062106,43.8877651 64.556581,44.0598928 64.3106772,44.238257 C64.0759508,44.4390726 63.7816114,44.5189 63.5170785,44.6610924 L62.7036088,45.0427669 L62.7532863,45.0178208 C61.7870582,45.5853433 60.8133784,46.0555762 59.8359728,46.5382821 L56.904998,47.966443 C55.9325601,48.449149 54.9539126,48.9206292 53.996378,49.4257865 C53.5107801,49.6690104 53.0363595,49.9259547 52.5731165,50.1991139 C52.0837927,50.4510689 51.6702272,50.7554106 51.2616294,51.0597523 L51.3212425,50.9100761 C51.3324199,51.3715779 51.3820975,51.8854663 51.5683883,52.259657 C51.6801627,52.4604726 51.7335661,52.4941498 51.9807118,52.5003863 L52.7283588,52.5452892 C53.713216,52.5615041 54.6918636,52.6425787 55.672995,52.552773 L57.1434501,52.470451 C57.388112,52.4492469 57.6352578,52.4592253 57.8774358,52.4130751 L58.6076956,52.3045598 L61.527493,51.8729933 L61.5498479,51.8692514 L61.5548157,51.8692514 C61.8479132,51.8742406 62.1198977,51.9091651 62.3906403,52.0014654 C62.5235277,52.0538521 62.6638667,52.0825401 62.7830928,52.1710985 C62.8998351,52.2559151 63.0438999,52.3045598 63.1358034,52.4230535 C63.2326746,52.5340634 63.3369974,52.6425787 63.4226912,52.7598251 L63.586627,53.1689402 C63.6586595,53.3036488 63.6363046,53.4483359 63.6512078,53.589281 L63.6710789,54.0146111 L63.6636272,53.9472567 C63.7145467,54.4162423 63.4611913,54.7006272 63.2364004,54.9500877 C62.9731094,55.1558925 62.7321734,55.4090948 62.4291404,55.5263412 C62.1372848,55.6685337 61.851639,55.8294357 61.5560576,55.9554132 L60.6419909,56.2547657 C60.0396507,56.4805274 59.4112298,56.5977738 58.7865348,56.7299878 C58.1618397,56.8584599 57.5396285,57.0181146 56.9112076,57.0804797 C55.6605756,57.2613385 54.3913144,57.3923052 53.1580695,57.6205615 C52.5383422,57.7440444 51.936002,57.8500651 51.3336619,58.0533753 C50.7300798,58.241718 50.1538203,58.4861892 49.5502382,58.7069617 C48.9454142,58.9090246 48.3716386,59.1447647 47.8065566,59.3904832 C47.2489262,59.7023088 46.748425,60.0565426 46.2119075,60.4220021 C45.6691804,60.7612683 45.1103081,61.0668573 44.5402583,61.3499949 C43.9764182,61.6456055 43.3827716,61.878851 42.8052702,62.1457736 C42.2091398,62.3652988 41.6167351,62.5985443 41.0143949,62.8031018 C40.4021193,62.9752295 39.7960533,63.1698087 39.1788099,63.3219795 C38.5541148,63.4404732 37.9319036,63.5776765 37.3047247,63.6812025 L35.4033168,63.848341 L35.419462,63.8458464 C35.036945,63.9094588 34.6780248,63.8346207 34.3240723,63.7435676 C34.1514428,63.6874391 33.987507,63.6063644 33.8186033,63.5377628 C33.6509416,63.4654193 33.5093606,63.3481729 33.3541183,63.2558725 C33.0349401,63.0800029 32.8026976,62.7843923 32.5245034,62.5523941 C32.2935029,62.2804823 32.0774056,61.9960974 31.8538566,61.7191963 L31.966873,61.6306378 Z" id="Path" fill="#FFFFFF" fill-rule="nonzero"></path>
    </g>
</svg>