<svg width="36" height="36" xmlns="http://www.w3.org/2000/svg"><g fill="none" fill-rule="evenodd"><circle stroke="#FFF" cx="18" cy="18" r="17.5"/><path d="M27.582 13.276c-.23-.896-.908-1.601-1.768-1.84C24.254 11 18 11 18 11s-6.254 0-7.814.435c-.86.24-1.538.945-1.768 1.84C8 14.9 8 18.288 8 18.288s0 3.388.418 5.012c.23.896.908 1.572 1.768 1.811 1.56.435 7.814.435 7.814.435s6.254 0 7.814-.435a2.518 2.518 0 0 0 1.768-1.811C28 21.675 28 18.287 28 18.287s0-3.387-.418-5.011zm-11.4 8.037v-5.768l5.227 2.884-5.227 2.884z" fill="#FFF" fill-rule="nonzero"/></g></svg>