<?xml version="1.0" encoding="UTF-8"?>
<svg width="44px" height="44px" viewBox="0 0 44 44" version="1.1" xmlns="http://www.w3.org/2000/svg" xmlns:xlink="http://www.w3.org/1999/xlink">
    <!-- Generator: Sketch 53.2 (72643) - https://sketchapp.com -->
    <title>youtube</title>
    <desc>Created with Sketch.</desc>
    <g id="Design-Wider---AAFF" stroke="none" stroke-width="1" fill="none" fill-rule="evenodd">
        <g id="Desktop-HD---MVP-w---contractar" transform="translate(-280.000000, -2839.000000)">
            <g id="youtube" transform="translate(280.000000, 2839.000000)">
                <circle id="Oval" stroke="#000000" stroke-width="1" fill="#FFFFFF" fill-rule="evenodd" cx="22" cy="22" r="21.5"></circle>
                <path d="M33.7114318,16.2260648 C33.4303002,15.1311574 32.601989,14.2688426 31.5502854,13.9762037 C29.643997,13.4444444 22,13.4444444 22,13.4444444 C22,13.4444444 14.3560477,13.4444444 12.4497146,13.9762037 C11.398011,14.2688889 10.5696998,15.1311574 10.2885682,16.2260648 C9.77777778,18.2106481 9.77777778,22.3512963 9.77777778,22.3512963 C9.77777778,22.3512963 9.77777778,26.4919444 10.2885682,28.4765278 C10.5696998,29.5714352 11.398011,30.3978241 12.4497146,30.690463 C14.3560477,31.2222222 22,31.2222222 22,31.2222222 C22,31.2222222 29.6439523,31.2222222 31.5502854,30.690463 C32.601989,30.3978241 33.4303002,29.5714352 33.7114318,28.4765278 C34.2222222,26.4919444 34.2222222,22.3512963 34.2222222,22.3512963 C34.2222222,22.3512963 34.2222222,18.2106481 33.7114318,16.2260648 Z M19.7777778,26.0488715 L19.7777778,19 L26.1666412,22.5245226 L19.7777778,26.0488715 Z" id="Shape" fill="#000000" fill-rule="nonzero"></path>
            </g>
        </g>
    </g>
</svg>