<?xml version="1.0" standalone="no"?>
<!DOCTYPE svg PUBLIC "-//W3C//DTD SVG 20010904//EN"
 "http://www.w3.org/TR/2001/REC-SVG-20010904/DTD/svg10.dtd">
<svg version="1.0" xmlns="http://www.w3.org/2000/svg"
 width="700.000000pt" height="700.000000pt" viewBox="0 0 700.000000 700.000000"
 preserveAspectRatio="xMidYMid meet">
<metadata>
Created by potrace 1.11, written by Peter Selinger 2001-2013
</metadata>
<g transform="translate(0.000000,700.000000) scale(0.100000,-0.100000)"
fill="#000000" stroke="none">
<path d="M2040 6093 c-479 -18 -930 -270 -1196 -669 -132 -198 -220 -433 -255
-679 -16 -117 -17 -365 0 -480 108 -762 727 -1637 1796 -2541 399 -337 1055
-814 1120 -814 16 0 64 26 123 67 978 679 1768 1414 2248 2093 298 421 477
822 535 1200 17 108 17 358 0 475 -55 384 -239 735 -512 972 -224 196 -490
318 -788 362 -93 15 -313 15 -411 1 -446 -62 -842 -337 -1094 -760 -31 -52
-66 -119 -78 -147 -12 -29 -24 -53 -27 -53 -3 0 -27 44 -53 98 -211 433 -613
755 -1060 847 -86 18 -253 31 -348 28z m235 -168 c143 -23 260 -61 400 -130
251 -124 451 -304 599 -539 111 -176 168 -363 169 -546 1 -130 -14 -196 -68
-298 l-33 -62 34 -78 c48 -110 68 -217 61 -323 l-6 -86 35 -34 34 -33 34 40
34 39 -5 105 c-6 115 12 206 63 321 l26 56 -25 49 c-92 181 -97 366 -17 606
127 380 487 726 890 858 206 67 463 88 661 55 276 -46 508 -169 715 -380 326
-333 482 -808 419 -1278 -28 -209 -86 -381 -216 -637 -219 -431 -552 -864
-1039 -1350 -264 -265 -421 -401 -735 -641 -625 -476 -768 -579 -805 -579 -35
0 -175 97 -725 503 -408 301 -456 341 -699 578 -689 671 -1169 1361 -1320
1896 -49 174 -60 256 -60 448 0 148 4 199 23 285 45 212 115 382 224 547 223
335 535 549 887 608 105 18 336 18 445 0z"/>
<path d="M1930 5884 c-304 -39 -518 -139 -728 -339 -268 -255 -415 -562 -454
-948 -53 -516 229 -1131 863 -1887 227 -271 590 -634 819 -820 119 -97 367
-280 377 -280 10 1 57 40 52 44 -567 435 -1061 919 -1410 1381 -274 363 -488
769 -569 1081 -127 489 8 991 363 1344 301 301 696 406 1122 299 366 -91 712
-374 869 -710 102 -219 120 -425 50 -561 -13 -25 -13 -31 2 -53 9 -14 20 -25
24 -25 4 0 17 22 29 49 67 156 68 324 5 517 -61 187 -153 333 -314 495 -205
206 -439 336 -702 389 -98 20 -322 33 -398 24z"/>
<path d="M4805 5884 c-202 -31 -333 -71 -486 -151 -290 -149 -540 -421 -644
-698 -85 -224 -87 -444 -7 -593 l18 -34 18 27 c16 25 16 29 -3 88 -100 301 79
697 447 992 113 91 284 184 411 224 238 76 531 78 748 6 542 -182 918 -800
854 -1400 -34 -310 -167 -639 -408 -1009 -315 -483 -856 -1049 -1506 -1575
l-128 -104 22 -23 c12 -13 26 -24 30 -24 13 0 312 231 439 338 142 120 580
555 723 718 132 151 306 368 389 485 265 375 446 743 503 1024 103 509 -59
1022 -436 1380 -232 219 -482 321 -809 330 -80 2 -158 1 -175 -1z"/>
<path d="M4855 5649 c-221 -16 -436 -101 -608 -238 -264 -213 -428 -484 -426
-705 0 -44 4 -89 8 -100 6 -17 11 -15 52 20 181 157 389 270 599 326 97 26
297 35 394 18 162 -28 319 -106 423 -209 79 -78 100 -128 84 -201 -43 -200
-228 -388 -484 -492 -71 -29 -241 -68 -296 -68 -49 0 -37 -13 35 -39 92 -33
205 -111 243 -167 61 -93 62 -212 1 -307 -84 -133 -219 -200 -403 -200 l-80 0
47 -18 c140 -53 191 -160 134 -277 -55 -112 -217 -244 -365 -298 -69 -26 -91
-29 -193 -29 -127 0 -194 16 -265 64 -22 15 -45 30 -51 33 -7 5 -5 -16 4 -60
20 -99 11 -295 -19 -390 l-23 -74 38 -76 c21 -42 62 -113 91 -157 59 -89 190
-245 206 -245 6 0 70 48 142 107 520 422 983 882 1299 1288 290 374 474 729
549 1061 26 119 32 354 10 474 -30 166 -99 339 -192 477 -174 258 -399 417
-659 466 -107 20 -180 24 -295 16z"/>
<path d="M1877 5640 c-423 -76 -772 -443 -874 -920 -24 -116 -25 -371 0 -487
63 -297 263 -698 531 -1066 293 -403 819 -930 1316 -1321 l125 -98 93 98 c106
113 176 210 231 319 l38 76 -29 86 c-35 104 -46 237 -29 336 6 37 14 74 18 83
3 9 -27 -10 -68 -43 -184 -149 -353 -213 -480 -183 -36 9 -65 26 -103 61 -73
66 -101 130 -100 229 0 66 4 84 36 150 59 121 181 229 317 281 113 43 313 35
414 -18 36 -18 51 -7 49 39 -1 18 -3 88 -6 154 -3 92 -8 128 -21 148 -10 14
-20 26 -23 26 -3 0 -29 -27 -59 -60 -94 -103 -252 -196 -401 -234 -264 -69
-475 10 -570 210 -36 79 -38 196 -4 262 67 127 215 217 422 257 104 19 299 20
390 1 36 -8 67 -12 69 -10 6 5 -15 134 -23 141 -2 3 -39 -9 -82 -26 -144 -58
-409 -98 -574 -86 -256 18 -477 83 -622 183 -185 128 -268 374 -184 546 55
113 205 216 381 262 109 29 352 26 465 -4 205 -56 353 -145 531 -319 l118
-115 7 37 c23 122 -54 355 -168 510 -123 167 -277 298 -453 385 -172 86 -277
112 -475 116 -85 1 -177 -1 -203 -6z"/>
<path d="M2162 4999 c-197 -25 -385 -134 -442 -257 -19 -40 -22 -59 -18 -138
3 -78 9 -101 36 -156 124 -253 561 -395 1024 -333 123 16 168 27 258 61 94 35
96 37 82 69 l-12 26 -34 -20 c-59 -37 -167 -72 -270 -87 -118 -18 -253 -13
-418 17 -372 67 -572 213 -572 419 1 143 102 242 311 302 105 31 282 30 395 0
170 -46 371 -166 524 -314 69 -67 93 -85 102 -76 7 7 12 18 12 26 0 23 -221
236 -300 289 -219 147 -441 203 -678 172z"/>
<path d="M4620 4919 c-164 -19 -381 -103 -539 -211 -94 -63 -221 -169 -221
-183 1 -5 7 -21 14 -33 l13 -24 58 51 c200 175 475 306 693 331 187 21 375
-32 494 -139 110 -98 114 -179 17 -308 -76 -101 -255 -212 -424 -261 -266 -78
-617 -39 -795 88 -35 25 -37 25 -50 1 -9 -17 -3 -23 44 -50 104 -60 263 -111
409 -132 151 -22 411 12 560 74 187 78 327 199 399 344 43 89 47 140 14 196
-70 121 -283 234 -481 257 -90 11 -100 11 -205 -1z"/>
<path d="M2158 4765 c-272 -66 -293 -239 -43 -356 207 -97 547 -135 740 -83
66 17 130 47 141 66 4 7 -25 43 -79 94 -238 231 -524 336 -759 279z"/>
<path d="M4590 4695 c-203 -45 -379 -142 -594 -326 -15 -13 130 -78 222 -100
75 -19 107 -21 237 -16 174 7 242 23 381 92 97 47 179 113 215 171 28 45 17
67 -54 114 -104 68 -272 95 -407 65z"/>
<path d="M3218 4388 c-13 -21 -13 -26 2 -51 16 -26 17 -26 33 -9 21 23 21 31
-1 60 l-18 24 -16 -24z"/>
<path d="M3730 4380 c-9 -16 -7 -26 8 -45 l20 -25 15 24 c14 21 14 26 1 45
-19 26 -30 27 -44 1z"/>
<path d="M3282 4278 l-21 -24 20 -64 c11 -36 23 -105 26 -153 6 -83 8 -89 35
-108 16 -12 32 -18 36 -14 4 4 6 48 6 98 -2 92 -22 175 -63 254 l-17 34 -22
-23z"/>
<path d="M3660 4249 c-39 -93 -60 -234 -44 -296 l6 -23 29 21 c28 19 29 24 29
97 0 56 7 96 25 147 23 64 23 70 8 87 -9 10 -19 18 -23 18 -4 0 -17 -23 -30
-51z"/>
<path d="M3831 4103 c-6 -31 -9 -58 -7 -60 2 -3 21 0 42 6 22 5 65 13 96 16
l57 7 -86 44 c-47 24 -87 44 -88 44 -1 0 -7 -26 -14 -57z"/>
<path d="M3960 4014 c-56 -9 -130 -26 -130 -28 0 -2 5 -17 10 -33 11 -29 12
-30 53 -22 159 31 543 -23 727 -102 62 -27 126 -95 136 -144 17 -93 -30 -184
-120 -229 -97 -50 -273 -48 -430 6 -125 43 -200 89 -338 211 l-78 68 -26 -18
-27 -17 72 -68 c141 -132 334 -240 500 -280 114 -27 268 -22 354 12 170 67
258 255 178 381 -67 107 -263 196 -534 243 -88 16 -302 28 -347 20z"/>
<path d="M2725 3976 c-137 -28 -251 -78 -329 -147 -63 -56 -85 -105 -86 -190
0 -124 85 -242 209 -290 121 -48 329 -21 499 65 72 37 172 118 222 181 36 45
36 47 9 71 -21 19 -22 19 -38 -6 -111 -167 -260 -255 -452 -267 -140 -9 -256
40 -324 136 -41 58 -42 139 -3 199 50 75 166 136 315 167 89 18 279 21 347 6
55 -13 70 -6 64 30 -2 18 -14 26 -53 37 -73 20 -295 24 -380 8z"/>
<path d="M3661 3887 c-13 -15 -19 -30 -15 -40 8 -21 13 -21 43 2 17 13 22 23
16 39 -8 28 -16 28 -44 -1z"/>
<path d="M3294 3858 c-5 -27 -2 -35 22 -55 31 -24 39 -21 49 17 4 21 -1 29
-29 47 l-35 22 -7 -31z"/>
<path d="M3567 3792 c-30 -31 -33 -42 -15 -60 9 -9 17 -4 35 20 40 55 24 86
-20 40z"/>
<path d="M3403 3766 c-9 -29 -8 -37 7 -51 16 -14 19 -14 35 11 17 26 16 27 -7
51 l-24 24 -11 -35z"/>
<path d="M3976 3792 c-17 -7 -9 -16 55 -66 133 -105 273 -156 429 -158 98 -1
143 20 148 70 3 31 0 34 -50 56 -133 59 -521 124 -582 98z"/>
<path d="M2800 3756 c-95 -18 -163 -43 -209 -77 -49 -35 -52 -58 -11 -92 45
-38 93 -50 179 -44 125 8 213 53 289 146 28 35 40 57 34 63 -16 16 -210 19
-282 4z"/>
<path d="M3481 3681 c-22 -30 -22 -31 -3 -67 l18 -36 18 46 c15 40 16 48 3 66
-15 21 -15 21 -36 -9z"/>
<path d="M3675 3616 c-23 -40 -25 -54 -28 -190 -3 -124 -1 -153 14 -186 10
-22 23 -40 29 -40 6 0 32 11 58 24 26 13 85 36 132 51 73 24 106 29 234 33
l149 4 -64 23 c-137 48 -314 157 -429 264 -35 34 -66 61 -67 61 -1 0 -14 -20
-28 -44z"/>
<path d="M3968 3245 c-75 -17 -215 -68 -243 -89 -30 -21 -9 -39 25 -21 69 36
214 66 345 72 213 10 331 -21 362 -95 30 -72 -21 -153 -153 -241 -181 -121
-377 -123 -549 -6 -60 41 -64 43 -79 26 -15 -16 -13 -20 17 -48 125 -118 274
-158 442 -118 206 49 433 259 411 379 -10 52 -74 102 -167 131 -77 24 -321 30
-411 10z"/>
<path d="M2975 3206 c-158 -40 -305 -162 -356 -295 -55 -146 15 -307 148 -341
116 -29 314 63 493 227 63 59 64 61 51 86 l-14 26 -71 -62 c-166 -146 -240
-188 -343 -195 -85 -5 -121 6 -163 54 -149 171 88 456 380 456 52 0 92 -7 130
-21 54 -21 55 -21 74 -1 19 19 19 19 -25 38 -97 42 -208 52 -304 28z"/>
<path d="M3495 3176 c-13 -31 -14 -45 -5 -64 12 -28 12 -28 32 13 13 25 13 35
2 60 l-12 30 -17 -39z"/>
<path d="M3415 3044 c-13 -20 -14 -28 -4 -40 10 -13 15 -12 35 7 19 18 21 24
11 40 -16 25 -21 24 -42 -7z"/>
<path d="M3563 3044 c-8 -20 13 -42 27 -28 12 12 3 44 -11 44 -5 0 -12 -7 -16
-16z"/>
<path d="M3960 3045 c-36 -7 -83 -20 -105 -29 -38 -16 -39 -17 -17 -32 93 -65
216 -77 315 -31 68 31 140 85 131 98 -8 13 -249 9 -324 -6z"/>
<path d="M3020 3006 c-59 -17 -83 -30 -132 -74 -96 -87 -87 -166 16 -132 42
13 151 90 225 156 52 47 53 49 30 55 -37 11 -89 9 -139 -5z"/>
<path d="M3475 2946 c-14 -21 -14 -28 -2 -57 l14 -34 22 43 c17 34 20 47 10
58 -16 20 -26 18 -44 -10z"/>
<path d="M3610 2738 c-23 -100 3 -419 31 -391 4 4 13 42 20 83 12 78 7 191
-12 283 -18 82 -25 87 -39 25z"/>
<path d="M3341 2707 c-23 -96 -25 -178 -7 -267 10 -46 20 -89 24 -94 11 -18
31 98 33 189 1 86 -16 211 -31 220 -4 2 -12 -19 -19 -48z"/>
<path d="M3492 2240 c-5 -14 -17 -43 -27 -65 -16 -39 -16 -41 7 -82 12 -24 25
-43 28 -43 3 0 16 19 28 43 l23 42 -24 65 c-24 61 -26 63 -35 40z"/>
<path d="M3394 2026 c-45 -76 -127 -182 -216 -280 l-82 -88 25 -19 c13 -10 27
-19 30 -19 20 -1 309 349 309 373 -1 7 -9 28 -19 47 l-19 34 -28 -48z"/>
<path d="M3556 2034 c-18 -27 -22 -42 -16 -54 39 -73 272 -350 294 -350 7 0
21 9 30 19 17 19 16 22 -41 83 -76 82 -132 156 -192 257 l-50 82 -25 -37z"/>
<path d="M3393 1812 c-56 -70 -123 -150 -148 -178 l-45 -51 139 -93 c77 -50
146 -93 155 -94 16 -1 286 183 286 196 0 4 -31 42 -69 82 -37 41 -101 117
-140 170 -40 53 -73 96 -74 96 -1 0 -48 -58 -104 -128z"/>
<path d="M2954 1537 l-27 -24 32 -22 c30 -22 33 -22 56 -7 32 21 31 30 -4 55
l-30 21 -27 -23z"/>
<path d="M3965 1537 l-26 -22 25 -24 25 -23 31 22 31 22 -22 24 c-28 30 -31
30 -64 1z"/>
<path d="M3064 1457 l-26 -23 168 -120 c93 -67 197 -140 232 -163 l62 -42 48
32 c26 18 127 91 224 162 185 136 189 140 136 168 -15 8 -43 -7 -156 -87 -75
-54 -162 -111 -193 -128 l-56 -30 -44 19 c-24 11 -117 68 -206 127 l-163 107
-26 -22z"/>
</g>
</svg>
